<svg width="429" height="514" viewBox="0 0 429 514" fill="none" xmlns="http://www.w3.org/2000/svg">
<path d="M216.17 0.615906C215.365 0.615906 214.712 1.26669 214.708 2.0708C214.498 37.4199 214.515 72.7721 214.404 108.123C214.399 109.579 214.421 111.039 214.478 112.495C214.528 113.801 214.928 126.914 216.5 126.93C217.976 126.944 218.683 113.997 218.772 112.655C218.9 110.716 218.939 108.772 218.939 106.829L219.667 28.7939C219.667 19.8877 219.593 10.9769 219.548 2.06927C219.545 1.26517 218.892 0.615906 218.088 0.615906H216.17ZM135.512 31.9977C135.613 35.4034 137.43 58.3891 140.369 58.4032C143.021 58.4157 144.986 35.5473 144.954 32.7157C144.921 29.9749 143.187 28.2979 140.407 28.1462C140.278 28.1399 140.152 28.1352 140.03 28.1352C137.444 28.1352 135.94 29.637 135.512 31.9977ZM204.772 46.2274C201.623 46.2759 199.458 48.2893 199.513 52.5695C199.642 55.2697 201.506 70.3786 204.794 70.5772C208.187 70.7838 210.262 55.7499 210.373 52.3317C210.492 48.671 208.452 46.2258 204.891 46.2258C204.852 46.2258 204.811 46.2259 204.772 46.2274ZM272.51 54.2481C271.71 54.2481 271.057 54.8942 271.051 55.6952C270.98 64.2368 270.847 81.4373 270.855 81.4998C270.98 82.4119 271.767 90.2323 273.688 90.2323C275.198 90.2323 276.202 83.5351 276.245 81.7611C276.288 79.8166 276.306 79.1814 276.317 77.2368C276.357 70.0688 276.44 62.896 276.534 55.7249C276.543 54.9114 275.889 54.2481 275.076 54.2481H272.51ZM126.401 58.5001C126.401 58.5001 126.377 82.8014 126.336 114.144C126.335 115.335 127.309 119.396 128.498 119.396C129.692 119.396 130.66 115.339 130.656 114.146C130.527 82.8906 130.38 58.4032 130.38 58.4032C130.38 58.4032 129.994 57.9307 128.47 57.9307C126.28 57.9307 126.401 58.5001 126.401 58.5001ZM225.166 61.3943C223.027 61.4271 221.56 62.7943 221.596 65.6994C221.685 67.5329 222.949 74.7135 225.18 74.8512C227.484 74.9904 228.892 67.8584 228.967 65.5368C229.047 63.0541 227.664 61.3926 225.249 61.3926C225.222 61.3926 225.194 61.3927 225.166 61.3943ZM186.527 90.736C186.586 92.7369 187.653 98.6722 189.38 98.68C190.937 98.6878 192.091 92.8214 192.072 91.16C192.054 89.5486 191.035 88.5646 189.402 88.4755C189.325 88.4708 189.25 88.4693 189.177 88.4693C187.661 88.4693 186.777 89.35 186.527 90.736ZM195.836 95.2806C195.522 116.43 196.396 137.652 194.899 158.711C193.49 178.547 196.734 196.148 210.233 211.259C211.765 212.973 212.622 215.271 213.893 217.241C215.69 220.027 216.508 223.329 216.446 226.646C215.964 251.598 215.676 276.556 215.313 301.512C215.083 317.309 214.92 333.108 214.514 348.9C214.437 351.815 214.944 355.35 210.676 357.5C202.604 349.662 198.677 338.43 191.867 329.524C185.998 321.844 184.544 313.589 184.776 304.348C185.103 291.229 184.696 278.093 184.882 264.966C184.943 260.726 183.571 257.618 180.555 254.711C172.679 247.122 165.143 239.178 157.229 231.632C154.014 228.566 152.218 224.31 152.249 219.869C152.421 194.668 152.293 169.466 152.193 144.265C152.185 142.031 153.011 138.68 149.353 138.689C146.02 138.696 147.041 141.845 147.035 143.794C146.944 170.293 146.983 196.794 146.869 223.293C146.852 227.481 148.313 230.71 151.187 233.675C159.134 241.877 166.81 250.343 174.844 258.458C177.206 260.847 178.554 264.062 178.493 267.42C178.263 280.051 179.127 292.748 178.143 305.307C177.104 318.579 182.44 329.125 188.77 339.972C193.272 347.683 198.061 355.468 201.186 365.746C182.68 359.163 173.321 340.493 160.068 328.368C156.329 324.946 152.396 323.701 147.065 323.789C133.864 324.006 120.024 327.348 107.431 322.684C95.4052 313.534 58.7999 287.612 52.9632 289.599V289.6C66.5452 307.266 88.3389 316.719 107.543 328.217C115.878 331.92 124.896 330.502 133.325 329.696C146.904 328.397 156.789 332.634 165.162 343.272C171.33 351.111 179.055 357.722 185.353 366.27C183.165 366.993 177.361 366.342 176.791 365.979C176.38 365.716 175.571 365.431 175.166 365.159C167.461 359.968 157.412 360.812 148.05 360.977C125.241 361.376 102.422 361.289 79.608 361.469C76.6591 361.492 74.3219 360.885 71.7125 359.077C50.3851 344.285 28.8809 329.752 7.34229 315.271C2.49266 312.01 -2.84977 314.16 3.0042 318.152C24.743 332.986 46.4506 347.862 68.0909 362.838C72.0676 365.589 76.207 366.67 81.0206 366.647C94.5651 366.576 108.11 366.597 121.654 366.614C131.654 366.627 141.653 366.641 151.653 366.619C157.59 366.606 163.198 367.988 168.646 370.079C174.456 372.311 169.805 373.009 167.086 374.822C166.926 374.93 165.977 375.401 165.794 375.487C158.871 378.738 151.149 378.25 143.593 378.217C119.315 378.112 95.0392 378.201 70.7629 378.372C70.242 378.377 69.6459 378.313 69.028 378.252C66.6501 378.009 63.9421 377.765 63.9687 381.307C63.9906 384.461 66.4373 384.179 68.6009 383.897C69.2298 383.816 69.8336 383.733 70.3467 383.735C89.5043 383.816 108.662 383.81 127.819 383.804C136.095 383.8 144.371 383.797 152.648 383.802C158.347 383.804 163.632 382.375 168.556 379.545C168.957 379.284 169.748 378.752 170.146 378.488C172.538 378.242 174.731 377.804 177.012 377.302C179.685 376.717 182.246 376.183 183.912 376.484C196.961 378.849 209.354 386.644 209.434 401.334C209.545 422.192 208.941 443.078 209.888 463.899C210.57 478.888 196.049 495.961 187.564 503.461C186.093 504.761 165.819 510.962 168.049 513.223H260.216C256.824 508.334 234.231 494.585 228.845 491.398C226.783 488.767 226.911 485.491 226.913 482.371C226.925 455.49 227.018 428.608 226.982 401.727C226.977 398.132 227.867 395.164 230.413 392.544C239.678 383.006 258.404 378.774 270.522 383.397C276.404 385.642 282.222 388.24 288.691 388.234C315.17 388.207 341.647 388.167 368.128 388.029C368.58 388.027 369.057 388.062 369.542 388.098C371.635 388.246 373.865 388.395 374.974 385.57C374.03 382.846 371.745 383.07 369.636 383.292C369.04 383.355 368.455 383.419 367.921 383.414C361.989 383.372 356.054 383.395 350.12 383.419C341.477 383.452 332.835 383.486 324.198 383.312C319.934 383.228 315.655 383.331 311.373 383.434C298.01 383.753 284.638 384.073 271.764 378.7C268.589 377.375 265.759 376.018 270.995 373.468C275.062 372.884 279.173 372.416 283.267 372.393C305.848 372.255 328.43 372.238 351.01 372.272C355.264 372.279 359.029 371.471 362.607 368.898C379.549 356.708 396.641 344.723 413.613 332.574C415.169 331.46 418.611 330.681 416.929 327.951C414.833 324.555 412.672 327.851 410.981 329.022C394.829 340.223 378.705 351.466 362.71 362.892C357.637 366.515 352.439 367.858 345.597 367.019C325.517 364.557 305.275 364.438 285.227 367.149C279.076 367.981 272.967 367.438 266.585 369.715C266.233 369.84 265.474 369.859 265.105 369.921C264.03 370.162 255.615 372.66 253.217 369.53C259.783 356.765 273.008 348.957 282.723 338.555C284.661 336.482 287.17 337.003 289.57 337.006C300.025 337.022 310.477 337.064 320.93 337.033C321.288 337.033 321.676 337.059 322.069 337.088C323.902 337.214 325.886 337.339 325.997 334.594C326.114 331.681 323.824 331.715 321.895 331.75C321.642 331.755 321.398 331.759 321.163 331.756C317.369 331.722 313.573 331.751 309.779 331.78C302.872 331.834 295.967 331.886 289.079 331.559C282.688 331.257 277.93 333.441 273.399 337.577C261.194 348.717 248.83 359.685 236.47 370.652C234.575 372.33 233.343 373.075 229.343 375.364C229.291 375.393 228.23 375.932 227.971 375.606C223.132 369.538 232.676 361.458 235.279 354.815C246.635 325.851 258.043 296.931 253.525 264.744C252.621 258.3 255.379 252.933 259.082 247.908C263.115 242.431 266.926 236.788 271.049 231.381C274.139 227.331 275.403 222.977 275.433 217.863C275.644 180.653 275.958 143.444 276.267 106.234C276.274 105.199 275.437 104.356 274.402 104.356H272.546C271.564 104.356 270.763 105.144 270.749 106.127C270.358 134.287 269.881 162.451 270.838 190.566C271.616 213.394 267.816 233.243 250.959 249.447C247.965 252.326 247.163 255.944 247.197 260.063C247.285 271.001 247.112 281.943 246.959 292.882C246.731 309.169 238.427 322.32 230.197 335.468C229.791 336.116 228.107 337.801 227.019 335.648C226.441 334.503 227.049 332.505 227.015 330.647C226.417 297.59 225.705 264.534 225.285 231.474C225.184 223.667 223.717 216.819 218.508 210.594C213.221 204.278 208.933 197.135 203.99 190.519C201.751 187.52 200.576 183.861 200.595 180.118C200.725 151.793 200.689 123.465 200.619 95.1383C200.612 92.9341 201.823 89.2561 198.496 89.1106C198.402 89.1059 198.31 89.1044 198.222 89.1044C194.33 89.1044 195.869 93.0514 195.836 95.2806ZM204.093 100.947C204.153 102.948 205.22 110.926 206.947 110.934C208.505 110.942 209.658 103.032 209.639 101.369C209.62 99.761 208.602 98.7755 206.969 98.6863C206.892 98.6816 206.818 98.68 206.745 98.68C205.227 98.68 204.347 99.5623 204.093 100.947ZM293.386 105.208C291.394 107.738 292.225 110.763 292.208 113.532C291.989 147.555 291.801 181.579 291.803 215.603C291.803 221.709 290.503 226.787 286.194 231.483C279.963 238.274 274.444 245.718 268.61 252.873C266.744 255.159 264.918 257.533 264.889 260.607C264.8 269.809 264.856 279.013 264.856 288.217C272.468 288.217 279.483 288.26 286.501 288.196C288.968 288.174 291.106 287.427 293.073 285.627C306.336 273.493 319.696 261.465 333.068 249.447C335.897 246.905 337.528 244.222 337.517 240.065C337.408 202.881 337.608 165.699 337.492 128.516C337.484 125.641 339.684 120.287 335.132 120.241C331.325 120.201 333.226 125.414 333.206 128.189C332.956 164.4 332.81 200.611 332.888 236.822C332.901 242.188 331.12 245.869 327.059 249.289C316.844 257.895 306.275 266.247 297.142 275.924C289.04 284.51 279.993 284.421 270.15 283.022C267.6 269.207 269.166 256.94 279.93 246.806C284.835 242.187 288.572 236.33 292.874 231.062C295.261 228.142 296.624 224.919 296.63 221.07C296.674 184.129 296.774 147.189 296.823 110.249C296.827 108.013 297.411 105.204 293.656 105.204C293.569 105.204 293.478 105.205 293.386 105.208ZM262.852 105.829C260.713 105.862 259.244 107.229 259.282 110.135C259.37 111.966 260.634 121.408 262.866 121.544C265.17 121.683 266.577 112.293 266.653 109.972C266.733 107.489 265.35 105.828 262.933 105.828C262.907 105.828 262.878 105.828 262.852 105.829ZM127.571 124.557C126.884 124.557 126.327 125.106 126.326 125.794C126.283 159.039 126.221 194.653 126.149 221.064C126.136 225.549 127.596 228.921 130.786 231.998C138.126 239.081 144.685 247.1 152.621 253.408C161.559 260.512 162.562 269.083 160.44 280.242H138.288C126.1 269.956 112.161 262.155 99.3538 252.745C98.0021 251.751 96.3736 250.387 94.9703 252.341C93.0774 254.976 95.4866 256.299 97.1808 257.49C108.246 265.252 119.029 273.431 130.764 280.198C132.658 282.06 134.359 284.285 137.362 284.294C146.753 284.324 156.146 284.305 165.975 284.305C165.975 276.758 165.986 269.983 165.967 263.207C165.963 261.465 165.474 259.988 164.142 258.65C155.082 249.569 146.311 240.186 137.01 231.361C132.607 227.184 130.759 222.89 130.787 216.742C130.898 191.588 130.809 157.841 130.687 125.793C130.684 125.106 130.127 124.557 129.442 124.557H127.571ZM250.396 130.81C250.348 140.751 250.296 150.691 250.262 160.632C250.255 162.395 251.44 169.797 253.074 169.797C255.111 169.797 255.812 162.559 255.832 160.474C255.881 155.624 255.848 150.774 255.848 145.925H255.882C255.882 140.833 255.898 135.742 255.873 130.65C255.865 128.882 255.663 127.116 253.362 126.944C253.225 126.933 253.092 126.928 252.966 126.928C250.49 126.928 250.407 128.874 250.396 130.81ZM216.026 132.773C215.21 132.773 214.55 133.435 214.551 134.251C214.565 143.811 214.507 153.37 214.241 162.922C213.88 175.897 214.415 188.171 223.911 198.207C225.355 199.729 225.042 204.078 228.545 202.301C232.514 200.288 229.349 197.436 227.91 195.776C219.653 186.238 218.899 175.102 219.039 163.092C219.152 153.482 219.227 143.872 219.294 134.262C219.299 133.441 218.634 132.773 217.814 132.773H216.026ZM103.075 147.519C102.891 151.264 105.051 162.473 108.821 162.57C111.974 162.65 114.266 152.314 114.552 148.8C114.86 145.021 112.75 142.988 108.834 142.513C105.973 142.891 103.259 143.788 103.075 147.519ZM163.624 149.282C163.661 152.627 165.989 159.627 169.381 159.81C172.816 159.996 174.59 153.177 175.139 150.161C175.014 146.008 172.799 143.802 169.213 143.785C169.202 143.785 169.19 143.785 169.177 143.785C165.963 143.785 163.583 145.843 163.624 149.282ZM80.0742 163.717C79.1856 164.058 78.6912 165.057 78.6552 166.007C78.5911 167.754 79.2215 169.461 79.1668 171.279C79.1042 173.349 78.832 175.406 78.8305 177.477C78.8273 181.213 78.8242 184.95 78.8226 188.687C78.8179 196.331 78.8117 203.975 78.807 211.618C78.8008 220.586 78.7147 229.553 78.6161 238.52C78.5786 241.971 78.5379 245.423 78.4988 248.874C78.4863 249.995 78.4738 251.115 78.4613 252.235C78.4237 255.867 77.4115 260.506 78.8774 263.919C79.9255 266.358 82.1908 268.015 84.3543 269.551C95.2863 277.312 106.218 285.073 117.149 292.834C118.604 293.866 120.149 294.933 121.925 295.101C123.7 295.265 125.729 294.148 125.891 292.371C117.59 286.137 109.278 279.895 100.497 274.36C94.8311 270.789 87.4299 267.048 84.8784 260.457C83.6926 257.393 83.3516 254.073 83.1701 250.792C82.4896 238.503 83.1232 226.097 82.6804 213.805C82.2893 203.002 82.2096 192.185 82.6898 181.385C82.8776 177.142 82.8119 172.781 83.3093 168.582C83.447 167.412 83.4971 166.17 82.9746 165.115C82.5506 164.263 81.6354 163.599 80.7187 163.599C80.5012 163.598 80.2838 163.635 80.0742 163.717ZM171.202 190.144C169.82 191.231 169.465 192.566 170.493 193.881C175.817 200.707 192.105 217.943 197.645 224.594C199.139 226.388 201.341 227.051 202.976 224.099C202.978 223.498 203.278 222.563 202.936 222.116C197.383 214.858 180.838 197.217 175.111 190.094C174.656 189.528 174.057 189.271 173.409 189.269C172.689 189.269 171.912 189.585 171.202 190.144ZM241.781 202.464C241.338 205.697 243.707 214.114 246.676 214.118C250.262 214.126 251.183 205.871 251.591 203.401C251.885 199.875 250.31 198.237 247.482 198.018C247.286 198.002 247.095 197.996 246.908 197.996C244.114 197.996 242.169 199.643 241.781 202.464ZM318.511 206.955C317.596 211.088 317.218 215.34 317.391 219.569C317.59 224.395 317.981 230.654 316.39 233.863C314.63 237.412 308.712 241.4 304.638 244.493C301.333 247.003 298.082 249.652 295.379 252.821C293.14 255.442 289.229 258.599 289.329 262.356C289.336 262.593 289.361 262.838 289.451 263.054C289.481 263.128 289.522 263.2 289.57 263.267C290.057 263.918 291.083 263.645 291.801 263.265C295.895 261.095 299.008 257.501 302.409 254.355C306.996 250.11 312.24 246.58 316.504 242.013C321.409 236.76 324.195 230.316 323.565 223.074C323.153 218.356 323.067 213.959 323.205 209.184C323.237 208.028 323.256 206.809 322.707 205.793C322.196 204.848 321.557 204.466 320.932 204.466C319.855 204.464 318.813 205.599 318.511 206.955ZM177.298 223.342C174.157 223.81 170.984 225.418 173.306 229.01C175.892 233.01 179.251 236.774 183.024 239.659C185.946 241.894 188.108 239.13 189.346 236.907C189.313 234.376 179.36 223.337 177.367 223.337C177.344 223.337 177.32 223.339 177.298 223.342ZM101.96 229.166C101.882 232.434 103.642 234.953 107.074 235.087C110.694 235.228 112.851 233.054 113.386 229.482C113.02 225.97 111.093 223.962 107.726 223.924C107.694 223.924 107.661 223.924 107.628 223.924C104.363 223.922 102.043 225.717 101.96 229.166ZM360.448 235.76C360.295 239.336 362.749 241.559 366.427 241.456C369.814 241.361 371.548 239.208 371.737 235.749C371.529 232.37 369.697 230.549 366.235 230.534C366.222 230.534 366.21 230.534 366.197 230.534C362.751 230.534 360.58 232.686 360.448 235.76ZM42.2909 248.732C42.3581 251.997 44.007 254.463 47.4878 254.577C51.1563 254.697 53.4137 252.703 53.47 248.845C53.5232 245.19 51.2658 243.759 47.954 243.493C44.6828 243.756 42.2158 245.062 42.2909 248.732ZM119.974 251.08C119.98 254.231 121.681 256.313 124.867 256.113C127.777 255.93 129.931 254.136 129.947 250.944C129.961 247.787 128.054 246.138 124.833 245.772C122.048 246.397 119.965 247.853 119.974 251.08ZM339.445 290.306C339.445 299.167 367.07 271.406 379.312 261.149C380.814 259.891 381.034 258.348 378.796 256.139C365.08 266.702 351.688 277.775 339.445 290.306ZM419.116 270.909C418.775 274.077 420.901 276.045 423.756 276.38C427.004 276.763 428.304 274.249 429 271.363C428.692 268.858 427.849 266.516 424.823 266.466C424.775 266.466 424.725 266.466 424.676 266.466C421.846 266.466 419.451 267.794 419.116 270.909ZM384.978 275.441C369.592 287.697 354.238 299.999 339.046 312.497C333.882 316.746 328.449 317.911 320.963 316.536C315.412 315.518 309.782 315.967 304.252 317.084C302.237 317.49 298.09 316.334 298.331 320.069C298.478 322.349 300.519 322.296 302.234 322.304C307.093 322.326 311.952 322.312 319.009 322.312C320.709 322.019 322.693 322.196 324.833 322.374C329.317 322.747 334.493 323.119 339.224 319.163C355.431 305.609 371.926 292.399 388.262 278.998C389.818 277.722 392.704 276.43 390.774 273.897C390.017 272.904 389.332 272.531 388.704 272.531C387.235 272.531 386.071 274.57 384.978 275.441ZM65.6426 275.404C63.5588 278.219 66.8206 279.59 68.6509 280.899C79.4844 288.64 90.9561 295.609 101.089 304.168C110.545 312.156 120.714 313.745 132.164 312.059C143.903 312.068 155.642 312.076 167.382 312.084C168.164 312.395 168.48 312.104 168.4 311.295C169.58 306.821 166.352 307.245 163.754 307.278C153.156 307.408 142.559 307.641 131.964 307.837C118.788 309.232 108.374 303.522 98.4542 295.603C89.958 288.82 80.8282 282.822 71.8799 276.617C70.644 275.762 69.1375 274.202 67.6497 274.202C66.9676 274.202 66.2903 274.529 65.6426 275.404ZM316.26 288.316C313.322 291.135 310.456 294.042 307.731 297.067C306.566 298.361 307.359 299.77 308.384 300.912C309.214 301.837 310.303 302.788 311.486 302.087C315.65 299.622 319.151 296.416 321.485 292.455C321.781 290.403 320.638 289.467 319.539 288.538C318.962 288.049 318.288 287.751 317.642 287.751C317.147 287.751 316.67 287.923 316.26 288.316ZM40.2572 302.355C54.7012 312.408 70.098 320.937 85.1553 330.007C85.7091 330.342 86.4287 330.168 86.7698 329.618C86.9121 329.388 87.0545 329.159 87.1968 328.929C87.5488 328.36 87.3705 327.615 86.801 327.266C71.8454 318.107 56.8914 308.944 41.9358 299.785C41.6542 299.611 41.3741 299.536 41.1097 299.536C39.7941 299.536 38.8993 301.412 40.2572 302.355ZM386.703 312.053C371.995 321.714 358.346 332.828 344.319 343.422C343.803 343.815 343.697 344.545 344.08 345.068C344.24 345.283 344.401 345.503 344.56 345.718C344.956 346.257 345.713 346.371 346.25 345.972C360.322 335.504 374.393 325.037 388.465 314.57C389.777 313.594 388.858 311.779 387.565 311.779C387.289 311.779 386.996 311.862 386.703 312.053ZM38.0514 316.708C37.0924 318.18 37.1863 319.559 38.5786 320.475C45.8139 325.231 53.0492 329.99 60.43 334.511C62.4215 335.731 64.7212 335.651 65.3204 332.329C65.1295 331.761 65.1123 330.778 64.6461 330.466C57.0557 325.375 49.448 320.311 41.7371 315.405C41.3569 315.163 40.9627 315.052 40.5716 315.052C39.633 315.052 38.7131 315.693 38.0514 316.708Z" fill="url(#paint0_radial_734_489)"/>
<defs>
<radialGradient id="paint0_radial_734_489" cx="0" cy="0" r="1" gradientUnits="userSpaceOnUse" gradientTransform="translate(215.716 335.083) scale(236.228 236.227)">
<stop stop-color="#F2CB05"/>
<stop offset="0.33393" stop-color="#F2CB05"/>
<stop offset="0.811796" stop-color="#F28705"/>
<stop offset="0.978645" stop-color="#D9042B"/>
<stop offset="1" stop-color="#D9042B"/>
</radialGradient>
</defs>
</svg>
