<svg width="36" height="36" viewBox="0 0 36 36" fill="none" xmlns="http://www.w3.org/2000/svg">
<path d="M5.21666 3.60751C5.02187 3.55102 4.81543 3.54824 4.61919 3.59946C4.42295 3.65068 4.24421 3.754 4.10188 3.89848C3.95955 4.04297 3.85892 4.22324 3.81065 4.42023C3.76238 4.61721 3.76826 4.82359 3.82766 5.01751L7.47566 16.875H20.2497C20.548 16.875 20.8342 16.9935 21.0452 17.2045C21.2561 17.4155 21.3747 17.7016 21.3747 18C21.3747 18.2984 21.2561 18.5845 21.0452 18.7955C20.8342 19.0065 20.548 19.125 20.2497 19.125H7.47566L3.82766 30.9825C3.76826 31.1764 3.76238 31.3828 3.81065 31.5798C3.85892 31.7768 3.95955 31.957 4.10188 32.1015C4.24421 32.246 4.42295 32.3493 4.61919 32.4006C4.81543 32.4518 5.02187 32.449 5.21666 32.3925C15.1391 29.507 24.4961 24.9485 32.8842 18.9135C33.0291 18.8093 33.1472 18.6721 33.2286 18.5133C33.3101 18.3545 33.3525 18.1785 33.3525 18C33.3525 17.8215 33.3101 17.6456 33.2286 17.4867C33.1472 17.3279 33.0291 17.1907 32.8842 17.0865C24.4961 11.0515 15.1391 6.49298 5.21666 3.60751Z" fill="#7F6798"/>
</svg>
