<svg width="120" height="120" viewBox="0 0 120 120" fill="none" xmlns="http://www.w3.org/2000/svg">
<circle cx="60" cy="60" r="60" fill="#FBE6EA"/>
<path d="M59.9699 70.6108C64.2259 70.6108 67.6893 67.0966 67.6893 62.7772C67.6893 58.4571 64.2266 54.9429 59.9699 54.9429C55.7133 54.9429 52.2506 58.4571 52.2506 62.7765C52.2506 67.0959 55.7133 70.6108 59.9699 70.6108ZM59.9699 57.6486C62.7559 57.6486 65.0226 59.949 65.0226 62.7765C65.0226 65.604 62.7559 67.9038 59.9699 67.9038C57.1839 67.9038 54.9173 65.604 54.9173 62.7765C54.9173 59.949 57.1839 57.6486 59.9699 57.6486Z" fill="#D9042B"/>
<path d="M30.0021 62.7762C30.0021 67.0956 33.4647 70.6098 37.7214 70.6098C41.9781 70.6098 45.4407 67.0956 45.4407 62.7762C45.4407 58.4561 41.9781 54.9419 37.7214 54.9419C33.4647 54.9419 30.0021 58.4568 30.0021 62.7762ZM42.7741 62.7762C42.7741 65.6037 40.5074 67.9035 37.7214 67.9035C34.9354 67.9035 32.6687 65.6037 32.6687 62.7762C32.6687 59.9487 34.9354 57.6483 37.7214 57.6483C40.5074 57.6483 42.7741 59.9494 42.7741 62.7762Z" fill="#D9042B"/>
<path d="M74.5593 62.7762C74.5593 67.0956 78.022 70.6098 82.2787 70.6098C86.5353 70.6098 89.998 67.0956 89.998 62.7762C89.998 58.4561 86.5353 54.9419 82.2787 54.9419C78.022 54.9419 74.5593 58.4568 74.5593 62.7762ZM82.2787 57.6483C85.0647 57.6483 87.3313 59.9487 87.3313 62.7762C87.3313 65.6037 85.0647 67.9035 82.2787 67.9035C79.4927 67.9035 77.226 65.6037 77.226 62.7762C77.226 59.9487 79.4927 57.6483 82.2787 57.6483Z" fill="#D9042B"/>
<path d="M85.4387 71.6871L81.2087 71.6857H81.206C79.3107 71.6857 77.5087 72.5173 76.2613 73.9652L72.7693 78.0214C72.2893 78.5796 71.6127 78.9077 70.8907 78.9693V76.907C70.8907 74.0322 68.586 71.6932 65.7533 71.6932C65.7533 71.6932 65.162 71.6939 64.9947 71.6898C64.6633 71.6688 64.3313 71.7717 64.0653 71.9916L59.9947 75.3603C55.5033 71.6925 55.478 71.6925 55.0287 71.6925H54.196C51.356 71.6925 49.046 74.0315 49.046 76.9064V78.9619C48.3487 78.8854 47.6973 78.5627 47.2307 78.02L43.7393 73.9645C42.492 72.5152 40.6893 71.6851 38.7947 71.6851C38.7947 71.6851 38.7933 71.6851 38.792 71.6851L34.562 71.6864C32.0467 71.6871 30 73.7615 30 76.3103V88.6453C30 89.3923 30.5973 89.9985 31.3333 89.9985C32.0693 89.9985 32.6667 89.3923 32.6667 88.6453V76.3103C32.6667 75.2528 33.5167 74.3935 34.562 74.3935L38.7927 74.3921H38.794C39.9193 74.3921 40.99 74.8854 41.7313 75.7467L45.2227 79.8015C46.2613 81.0086 47.7633 81.7014 49.3433 81.7014H50.3727C50.3747 81.7014 50.3767 81.7021 50.3793 81.7021C50.382 81.7021 50.3833 81.7014 50.386 81.7014H52.6227C53.1833 81.7014 53.6393 82.1649 53.6393 82.7332C53.6393 83.3015 53.1833 83.7643 52.6227 83.7643H46.9953C46.6193 83.7643 46.2593 83.6236 45.9807 83.3692L42.064 79.7826C41.5173 79.2812 40.6747 79.3259 40.1807 79.8807C39.6873 80.4355 39.7307 81.2914 40.2773 81.7914L41.438 82.8543V88.6453C41.438 89.3923 42.0353 89.9985 42.7713 89.9985C43.5073 89.9985 44.1047 89.3923 44.1047 88.6453V85.2975L44.194 85.3794C44.6227 85.7718 45.1247 86.0539 45.662 86.238V88.6467C45.662 89.3936 46.2593 89.9999 46.9953 89.9999C47.7313 89.9999 48.3287 89.3936 48.3287 88.6467V86.4721H52.6227C52.676 86.4721 52.728 86.466 52.7807 86.464C52.8353 86.4667 52.8907 86.4721 52.9453 86.4721H66.992C67.0547 86.4721 67.1093 86.4646 67.1653 86.4613C67.236 86.4653 67.306 86.4721 67.378 86.4721H71.672V88.6467C71.672 89.3936 72.2693 89.9999 73.0053 89.9999C73.7413 89.9999 74.3387 89.3936 74.3387 88.6467V86.238C74.8753 86.0546 75.378 85.7718 75.8067 85.3794L75.896 85.2975V88.646C75.896 89.3929 76.4933 89.9992 77.2293 89.9992C77.9653 89.9992 78.5627 89.3929 78.5627 88.646V82.855L79.7233 81.7921C80.27 81.2921 80.3133 80.4362 79.82 79.8814C79.3267 79.3272 78.4833 79.2819 77.9367 79.7832L74.02 83.3692C73.742 83.6243 73.3813 83.765 73.0053 83.765H67.378C66.8173 83.765 66.3613 83.3022 66.3613 82.7339C66.3613 82.1655 66.8173 81.7021 67.378 81.7021H69.55C69.552 81.7021 69.554 81.7028 69.5567 81.7028C69.5593 81.7028 69.5607 81.7021 69.5633 81.7021H70.6573C72.2373 81.7021 73.7393 81.0099 74.7773 79.8029L78.2687 75.7473C79.01 74.8867 80.08 74.3928 81.206 74.3928H81.2073L85.438 74.3942C86.4827 74.3942 87.3333 75.2541 87.3333 76.311V88.646C87.3333 89.3929 87.9307 89.9992 88.6667 89.9992C89.4027 89.9992 90 89.3929 90 88.646V76.3103C90 73.7615 87.9533 71.6871 85.4387 71.6871ZM63.6947 82.7339C63.6947 83.0925 63.7473 83.4375 63.8407 83.7657L56.1587 83.767C56.252 83.4382 56.3053 83.0925 56.3053 82.7339C56.3053 80.6723 54.6527 78.9957 52.622 78.9957H51.7127V76.9077C51.7127 75.5247 52.8267 74.4002 54.196 74.4002H54.5613C55.696 75.3245 59.164 78.1574 59.164 78.1574C59.6547 78.5586 60.3547 78.5559 60.8427 78.152L65.3793 74.3969C65.5073 74.4002 65.6327 74.4002 65.7527 74.4002C67.1147 74.4002 68.2233 75.5247 68.2233 76.9077V78.9957H67.378C65.3473 78.995 63.6947 80.6723 63.6947 82.7339Z" fill="#D9042B"/>
<path d="M54.7587 41.2404C54.424 43.0997 55.0634 44.9806 56.4054 46.2215V47.8676C56.4054 49.2574 57.3774 50.4204 58.6674 50.6945C58.7987 51.3014 59.3307 51.7567 59.968 51.7567C60.6054 51.7567 61.1374 51.302 61.2687 50.6945C62.5587 50.4198 63.5307 49.2574 63.5307 47.8676V46.2222C64.6287 45.2093 65.2674 43.7681 65.2674 42.2411C65.2674 39.2755 62.89 36.8628 59.968 36.8628C59.6194 36.8628 59.2667 36.898 58.9187 36.9656C56.8154 37.3804 55.1434 39.0983 54.7587 41.2404ZM60.864 47.3419V47.8676C60.864 47.9685 60.7834 48.051 60.684 48.051H59.2514C59.1527 48.051 59.0714 47.9691 59.0714 47.8676V47.3419H60.864ZM57.382 41.7262C57.568 40.6889 58.4094 39.8236 59.4267 39.6233C59.6074 39.5881 59.7894 39.5699 59.968 39.5699C61.42 39.5699 62.6007 40.7681 62.6007 42.2417C62.6007 43.126 62.1694 43.9522 61.4467 44.4529C61.37 44.5056 61.304 44.5692 61.2414 44.6362H58.6954C58.632 44.5699 58.566 44.5056 58.4894 44.4529C57.6127 43.8466 57.1887 42.802 57.382 41.7262Z" fill="#D9042B"/>
<path d="M48.038 42.1083C48.038 42.8553 48.6353 43.4615 49.3713 43.4615H51.788C52.524 43.4615 53.1213 42.8553 53.1213 42.1083C53.1213 41.3614 52.524 40.7551 51.788 40.7551H49.3713C48.6346 40.7551 48.038 41.3607 48.038 42.1083Z" fill="#D9042B"/>
<path d="M70.5653 43.4615C71.3013 43.4615 71.8986 42.8553 71.8986 42.1083C71.8986 41.3614 71.3013 40.7551 70.5653 40.7551H68.1486C67.4126 40.7551 66.8153 41.3614 66.8153 42.1083C66.8153 42.8553 67.4126 43.4615 68.1486 43.4615H70.5653Z" fill="#D9042B"/>
<path d="M66.6948 37.1947L68.4034 35.4606C68.9241 34.9322 68.9241 34.0756 68.4034 33.5472C67.8834 33.0188 67.0381 33.0188 66.5181 33.5472L64.8094 35.2813C64.2888 35.8097 64.2888 36.6663 64.8094 37.1947C65.0694 37.4593 65.4108 37.5912 65.7521 37.5912C66.0934 37.5912 66.4348 37.4593 66.6948 37.1947Z" fill="#D9042B"/>
<path d="M59.968 35.1591C60.704 35.1591 61.3013 34.5528 61.3013 33.8059V31.3532C61.3013 30.6062 60.704 30 59.968 30C59.232 30 58.6346 30.6062 58.6346 31.3532V33.8059C58.6346 34.5535 59.232 35.1591 59.968 35.1591Z" fill="#D9042B"/>
<path d="M53.4181 33.5467C52.8974 33.0183 52.0534 33.0183 51.5321 33.5467C51.0114 34.0745 51.0114 34.9317 51.5321 35.4601L53.2408 37.1942C53.5014 37.4588 53.8421 37.5907 54.1841 37.5907C54.5254 37.5907 54.8661 37.4588 55.1268 37.1942C55.6474 36.6665 55.6474 35.8092 55.1268 35.2808L53.4181 33.5467Z" fill="#D9042B"/>
</svg>
