<svg width="234" height="56" viewBox="0 0 234 56" fill="none" xmlns="http://www.w3.org/2000/svg">
<rect width="234" height="56" rx="8" fill="#F54737"/>
<path d="M63.5028 24.5625C63.4498 24.0663 63.2263 23.6799 62.8324 23.4034C62.4422 23.1269 61.9347 22.9886 61.3097 22.9886C60.8703 22.9886 60.4934 23.0549 60.179 23.1875C59.8646 23.3201 59.6241 23.5 59.4574 23.7273C59.2907 23.9545 59.2055 24.214 59.2017 24.5057C59.2017 24.7481 59.2566 24.9583 59.3665 25.1364C59.4801 25.3144 59.6335 25.4659 59.8267 25.5909C60.0199 25.7121 60.2339 25.8144 60.4688 25.8977C60.7036 25.9811 60.9403 26.0511 61.179 26.108L62.2699 26.3807C62.7093 26.483 63.1316 26.6212 63.5369 26.7955C63.946 26.9697 64.3116 27.1894 64.6335 27.4545C64.9593 27.7197 65.2169 28.0398 65.4062 28.4148C65.5956 28.7898 65.6903 29.2292 65.6903 29.733C65.6903 30.4148 65.5161 31.0152 65.1676 31.5341C64.8191 32.0492 64.3153 32.4527 63.6562 32.7443C63.0009 33.0322 62.2074 33.1761 61.2756 33.1761C60.3703 33.1761 59.5843 33.036 58.9176 32.7557C58.2547 32.4754 57.7358 32.0663 57.3608 31.5284C56.9896 30.9905 56.7888 30.3352 56.7585 29.5625H58.8324C58.8627 29.9678 58.9877 30.3049 59.2074 30.5739C59.4271 30.8428 59.7131 31.0436 60.0653 31.1761C60.4214 31.3087 60.8191 31.375 61.2585 31.375C61.7169 31.375 62.1184 31.3068 62.4631 31.1705C62.8116 31.0303 63.0843 30.8371 63.2812 30.5909C63.4782 30.3409 63.5786 30.0492 63.5824 29.7159C63.5786 29.4129 63.4896 29.1629 63.3153 28.9659C63.1411 28.7652 62.8968 28.5985 62.5824 28.4659C62.2718 28.3295 61.9081 28.2083 61.4915 28.1023L60.1676 27.7614C59.2093 27.5152 58.4517 27.142 57.8949 26.642C57.3419 26.1383 57.0653 25.4697 57.0653 24.6364C57.0653 23.9508 57.2509 23.3504 57.6222 22.8352C57.9972 22.3201 58.5066 21.9205 59.1506 21.6364C59.7945 21.3485 60.5237 21.2045 61.3381 21.2045C62.1638 21.2045 62.8873 21.3485 63.5085 21.6364C64.1335 21.9205 64.6241 22.3163 64.9801 22.8239C65.3362 23.3277 65.5199 23.9072 65.5312 24.5625H63.5028ZM67.4787 33V24.2727H69.5355V33H67.4787ZM68.5128 23.0341C68.187 23.0341 67.9067 22.9261 67.6719 22.7102C67.437 22.4905 67.3196 22.2273 67.3196 21.9205C67.3196 21.6098 67.437 21.3466 67.6719 21.1307C67.9067 20.911 68.187 20.8011 68.5128 20.8011C68.8423 20.8011 69.1226 20.911 69.3537 21.1307C69.5885 21.3466 69.706 21.6098 69.706 21.9205C69.706 22.2273 69.5885 22.4905 69.3537 22.7102C69.1226 22.9261 68.8423 23.0341 68.5128 23.0341ZM75.446 36.4545C74.7074 36.4545 74.0729 36.3542 73.5426 36.1534C73.0123 35.9564 72.5862 35.6913 72.2642 35.358C71.9422 35.0246 71.7188 34.6553 71.5938 34.25L73.446 33.8011C73.5294 33.9716 73.6506 34.1402 73.8097 34.3068C73.9688 34.4773 74.1828 34.6174 74.4517 34.7273C74.7244 34.8409 75.0672 34.8977 75.4801 34.8977C76.0634 34.8977 76.5464 34.7557 76.929 34.4716C77.3116 34.1913 77.5028 33.7292 77.5028 33.0852V31.4318H77.4006C77.2945 31.6439 77.1392 31.8617 76.9347 32.0852C76.7339 32.3087 76.4669 32.4962 76.1335 32.6477C75.804 32.7992 75.3892 32.875 74.8892 32.875C74.2188 32.875 73.6108 32.7178 73.0653 32.4034C72.5237 32.0852 72.0919 31.6117 71.7699 30.983C71.4517 30.3504 71.2926 29.5587 71.2926 28.608C71.2926 27.6496 71.4517 26.8409 71.7699 26.1818C72.0919 25.5189 72.5256 25.017 73.071 24.6761C73.6165 24.3314 74.2244 24.1591 74.8949 24.1591C75.4063 24.1591 75.8267 24.2462 76.1562 24.4205C76.4896 24.5909 76.7547 24.7973 76.9517 25.0398C77.1487 25.2784 77.2983 25.5038 77.4006 25.7159H77.5142V24.2727H79.5426V33.142C79.5426 33.8883 79.3646 34.5057 79.0085 34.9943C78.6525 35.483 78.1657 35.8485 77.5483 36.0909C76.9309 36.3333 76.2301 36.4545 75.446 36.4545ZM75.4631 31.2614C75.8987 31.2614 76.2699 31.1553 76.5767 30.9432C76.8835 30.7311 77.1165 30.4261 77.2756 30.0284C77.4347 29.6307 77.5142 29.1534 77.5142 28.5966C77.5142 28.0473 77.4347 27.5663 77.2756 27.1534C77.1203 26.7405 76.8892 26.4205 76.5824 26.1932C76.2794 25.9621 75.9063 25.8466 75.4631 25.8466C75.0047 25.8466 74.6222 25.9659 74.3153 26.2045C74.0085 26.4432 73.7775 26.7708 73.6222 27.1875C73.4669 27.6004 73.3892 28.0701 73.3892 28.5966C73.3892 29.1307 73.4669 29.5985 73.6222 30C73.7813 30.3977 74.0142 30.7083 74.321 30.9318C74.6316 31.1515 75.0123 31.2614 75.4631 31.2614ZM83.7074 27.8864V33H81.6506V24.2727H83.6165V25.7557H83.7188C83.9195 25.267 84.2396 24.8788 84.679 24.5909C85.1222 24.303 85.6695 24.1591 86.321 24.1591C86.9233 24.1591 87.4479 24.2879 87.8949 24.5455C88.3456 24.803 88.6941 25.1761 88.9403 25.6648C89.1903 26.1534 89.3134 26.7462 89.3097 27.4432V33H87.2528V27.7614C87.2528 27.178 87.1013 26.7216 86.7983 26.392C86.4991 26.0625 86.0843 25.8977 85.554 25.8977C85.1941 25.8977 84.8741 25.9773 84.5938 26.1364C84.3172 26.2917 84.0994 26.517 83.9403 26.8125C83.785 27.108 83.7074 27.4659 83.7074 27.8864ZM100.932 29.3295V24.2727H102.989V33H100.994V31.4489H100.903C100.706 31.9375 100.383 32.3371 99.9318 32.6477C99.4848 32.9583 98.9337 33.1136 98.2784 33.1136C97.7064 33.1136 97.2008 32.9867 96.7614 32.733C96.3258 32.4754 95.9848 32.1023 95.7386 31.6136C95.4924 31.1212 95.3693 30.5265 95.3693 29.8295V24.2727H97.4261V29.5114C97.4261 30.0644 97.5777 30.5038 97.8807 30.8295C98.1837 31.1553 98.5814 31.3182 99.0739 31.3182C99.3769 31.3182 99.6705 31.2443 99.9545 31.0966C100.239 30.9489 100.472 30.7292 100.653 30.4375C100.839 30.142 100.932 29.7727 100.932 29.3295ZM105.104 36.2727V24.2727H107.126V25.7159H107.246C107.352 25.5038 107.501 25.2784 107.695 25.0398C107.888 24.7973 108.149 24.5909 108.479 24.4205C108.808 24.2462 109.229 24.1591 109.74 24.1591C110.414 24.1591 111.022 24.3314 111.564 24.6761C112.109 25.017 112.541 25.5227 112.859 26.1932C113.181 26.8598 113.342 27.678 113.342 28.6477C113.342 29.6061 113.185 30.4205 112.871 31.0909C112.556 31.7614 112.128 32.2727 111.587 32.625C111.045 32.9773 110.431 33.1534 109.746 33.1534C109.246 33.1534 108.831 33.0701 108.501 32.9034C108.172 32.7367 107.907 32.536 107.706 32.3011C107.509 32.0625 107.356 31.8371 107.246 31.625H107.161V36.2727H105.104ZM107.121 28.6364C107.121 29.2008 107.2 29.6951 107.359 30.1193C107.522 30.5436 107.755 30.875 108.058 31.1136C108.365 31.3485 108.736 31.4659 109.172 31.4659C109.626 31.4659 110.007 31.3447 110.314 31.1023C110.621 30.8561 110.852 30.5208 111.007 30.0966C111.166 29.6686 111.246 29.1818 111.246 28.6364C111.246 28.0947 111.168 27.6136 111.013 27.1932C110.857 26.7727 110.626 26.4432 110.32 26.2045C110.013 25.9659 109.63 25.8466 109.172 25.8466C108.732 25.8466 108.359 25.9621 108.053 26.1932C107.746 26.4242 107.513 26.7481 107.354 27.1648C107.198 27.5814 107.121 28.072 107.121 28.6364ZM123.493 24.2727V25.8636H118.334V24.2727H123.493ZM119.624 33V23.4489C119.624 22.8617 119.745 22.3731 119.987 21.983C120.233 21.5928 120.563 21.3011 120.976 21.108C121.389 20.9148 121.847 20.8182 122.351 20.8182C122.707 20.8182 123.023 20.8466 123.3 20.9034C123.576 20.9602 123.781 21.0114 123.913 21.0568L123.504 22.6477C123.417 22.6212 123.307 22.5947 123.175 22.5682C123.042 22.5379 122.894 22.5227 122.732 22.5227C122.349 22.5227 122.078 22.6155 121.919 22.8011C121.764 22.983 121.686 23.2443 121.686 23.5852V33H119.624ZM128.582 33.1705C127.73 33.1705 126.991 32.983 126.366 32.608C125.741 32.233 125.257 31.7083 124.912 31.0341C124.571 30.3598 124.401 29.572 124.401 28.6705C124.401 27.7689 124.571 26.9792 124.912 26.3011C125.257 25.6231 125.741 25.0966 126.366 24.7216C126.991 24.3466 127.73 24.1591 128.582 24.1591C129.435 24.1591 130.173 24.3466 130.798 24.7216C131.423 25.0966 131.906 25.6231 132.247 26.3011C132.592 26.9792 132.764 27.7689 132.764 28.6705C132.764 29.572 132.592 30.3598 132.247 31.0341C131.906 31.7083 131.423 32.233 130.798 32.608C130.173 32.983 129.435 33.1705 128.582 33.1705ZM128.594 31.5227C129.056 31.5227 129.442 31.3958 129.753 31.142C130.063 30.8845 130.295 30.5398 130.446 30.108C130.601 29.6761 130.679 29.1951 130.679 28.6648C130.679 28.1307 130.601 27.6477 130.446 27.2159C130.295 26.7803 130.063 26.4337 129.753 26.1761C129.442 25.9186 129.056 25.7898 128.594 25.7898C128.12 25.7898 127.726 25.9186 127.412 26.1761C127.101 26.4337 126.868 26.7803 126.713 27.2159C126.562 27.6477 126.486 28.1307 126.486 28.6648C126.486 29.1951 126.562 29.6761 126.713 30.108C126.868 30.5398 127.101 30.8845 127.412 31.142C127.726 31.3958 128.12 31.5227 128.594 31.5227ZM134.51 33V24.2727H136.504V25.7273H136.595C136.754 25.2235 137.027 24.8352 137.413 24.5625C137.804 24.286 138.249 24.1477 138.749 24.1477C138.862 24.1477 138.989 24.1534 139.129 24.1648C139.273 24.1723 139.393 24.1856 139.487 24.2045V26.0966C139.4 26.0663 139.262 26.0398 139.072 26.017C138.887 25.9905 138.707 25.9773 138.533 25.9773C138.158 25.9773 137.821 26.0587 137.521 26.2216C137.226 26.3807 136.993 26.6023 136.822 26.8864C136.652 27.1705 136.567 27.4981 136.567 27.8693V33H134.51ZM144.913 33V21.3636H152.368V23.1307H147.021V26.2898H151.857V28.0568H147.021V33H144.913ZM154.072 33V24.2727H156.067V25.7273H156.158C156.317 25.2235 156.589 24.8352 156.976 24.5625C157.366 24.286 157.811 24.1477 158.311 24.1477C158.425 24.1477 158.552 24.1534 158.692 24.1648C158.836 24.1723 158.955 24.1856 159.05 24.2045V26.0966C158.963 26.0663 158.824 26.0398 158.635 26.017C158.449 25.9905 158.269 25.9773 158.095 25.9773C157.72 25.9773 157.383 26.0587 157.084 26.2216C156.788 26.3807 156.555 26.6023 156.385 26.8864C156.214 27.1705 156.129 27.4981 156.129 27.8693V33H154.072ZM163.92 33.1705C163.045 33.1705 162.29 32.9886 161.653 32.625C161.021 32.2576 160.534 31.7386 160.193 31.0682C159.852 30.3939 159.682 29.6004 159.682 28.6875C159.682 27.7898 159.852 27.0019 160.193 26.3239C160.538 25.642 161.019 25.1117 161.636 24.733C162.254 24.3504 162.979 24.1591 163.812 24.1591C164.35 24.1591 164.858 24.2462 165.335 24.4205C165.816 24.5909 166.241 24.8561 166.608 25.2159C166.979 25.5758 167.271 26.0341 167.483 26.5909C167.695 27.1439 167.801 27.803 167.801 28.5682V29.1989H160.648V27.8125H165.83C165.826 27.4186 165.741 27.0682 165.574 26.7614C165.407 26.4508 165.174 26.2064 164.875 26.0284C164.58 25.8504 164.235 25.7614 163.841 25.7614C163.42 25.7614 163.051 25.8636 162.733 26.0682C162.415 26.2689 162.167 26.5341 161.989 26.8636C161.814 27.1894 161.725 27.5473 161.722 27.9375V29.1477C161.722 29.6553 161.814 30.0909 162 30.4545C162.186 30.8144 162.445 31.0909 162.778 31.2841C163.112 31.4735 163.502 31.5682 163.949 31.5682C164.248 31.5682 164.519 31.5265 164.761 31.4432C165.004 31.3561 165.214 31.2292 165.392 31.0625C165.57 30.8958 165.705 30.6894 165.795 30.4432L167.716 30.6591C167.595 31.1667 167.364 31.6098 167.023 31.9886C166.686 32.3636 166.254 32.6553 165.727 32.8636C165.201 33.0682 164.598 33.1705 163.92 33.1705ZM173.405 33.1705C172.53 33.1705 171.774 32.9886 171.138 32.625C170.505 32.2576 170.018 31.7386 169.678 31.0682C169.337 30.3939 169.166 29.6004 169.166 28.6875C169.166 27.7898 169.337 27.0019 169.678 26.3239C170.022 25.642 170.503 25.1117 171.121 24.733C171.738 24.3504 172.464 24.1591 173.297 24.1591C173.835 24.1591 174.342 24.2462 174.82 24.4205C175.301 24.5909 175.725 24.8561 176.092 25.2159C176.464 25.5758 176.755 26.0341 176.967 26.5909C177.179 27.1439 177.286 27.803 177.286 28.5682V29.1989H170.132V27.8125H175.314C175.31 27.4186 175.225 27.0682 175.058 26.7614C174.892 26.4508 174.659 26.2064 174.359 26.0284C174.064 25.8504 173.719 25.7614 173.325 25.7614C172.905 25.7614 172.536 25.8636 172.217 26.0682C171.899 26.2689 171.651 26.5341 171.473 26.8636C171.299 27.1894 171.21 27.5473 171.206 27.9375V29.1477C171.206 29.6553 171.299 30.0909 171.484 30.4545C171.67 30.8144 171.929 31.0909 172.263 31.2841C172.596 31.4735 172.986 31.5682 173.433 31.5682C173.732 31.5682 174.003 31.5265 174.246 31.4432C174.488 31.3561 174.698 31.2292 174.876 31.0625C175.054 30.8958 175.189 30.6894 175.28 30.4432L177.2 30.6591C177.079 31.1667 176.848 31.6098 176.507 31.9886C176.17 32.3636 175.738 32.6553 175.212 32.8636C174.685 33.0682 174.083 33.1705 173.405 33.1705Z" fill="white"/>
</svg>
