<svg width="283" height="348" viewBox="0 0 283 348" fill="none" xmlns="http://www.w3.org/2000/svg">
<g clip-path="url(#clip0_146_8687)">
<path d="M97.23 200.25H66.12L57.09 209.28H2.22998" stroke="#614B94" stroke-linecap="round" stroke-linejoin="round"/>
<path d="M97.23 192.22H50.73L42.92 184.41H2.22998" stroke="#614B94" stroke-linecap="round" stroke-linejoin="round"/>
<path d="M48.06 198.91H2.22998" stroke="#614B94" stroke-linecap="round" stroke-linejoin="round"/>
<path d="M97.2301 182.95H58.7601L46.3301 170.53H1.56006" stroke="#614B94" stroke-linecap="round" stroke-linejoin="round"/>
<path d="M2.22998 159.46H51.57L66.12 174.02H97.06" stroke="#614B94" stroke-linecap="round" stroke-linejoin="round"/>
<path d="M97.0601 164.12H71.8101" stroke="#614B94" stroke-linecap="round" stroke-linejoin="round"/>
<path d="M97.0601 155.42H61.1001L46.0801 140.4H0.890137" stroke="#614B94" stroke-linecap="round" stroke-linejoin="round"/>
<path d="M97.0602 145.72H76.4902" stroke="#614B94" stroke-linecap="round" stroke-linejoin="round"/>
<path d="M64.9498 144.13L46.7998 125.99" stroke="#614B94" stroke-linecap="round" stroke-linejoin="round"/>
<path d="M97.06 136.68H71.81L50.52 115.4H2.22998" stroke="#614B94" stroke-linecap="round" stroke-linejoin="round"/>
<path d="M97.2301 125.99H71.8101" stroke="#614B94" stroke-linecap="round" stroke-linejoin="round"/>
<path d="M91.52 78.93V50.84" stroke="#614B94" stroke-linecap="round" stroke-linejoin="round"/>
<path d="M100.55 119.08V87.97" stroke="#614B94" stroke-linecap="round" stroke-linejoin="round"/>
<path d="M108.58 119.08V72.58L116.39 64.77V50.84" stroke="#614B94" stroke-linecap="round" stroke-linejoin="round"/>
<path d="M101.89 69.91V50.84" stroke="#614B94" stroke-linecap="round" stroke-linejoin="round"/>
<path d="M117.84 119.08V80.61L130.27 68.18V51.17" stroke="#614B94" stroke-linecap="round" stroke-linejoin="round"/>
<path d="M126.78 87.97V118.91" stroke="#614B94" stroke-linecap="round" stroke-linejoin="round"/>
<path d="M146.94 50.84V69.74" stroke="#614B94" stroke-linecap="round" stroke-linejoin="round"/>
<path d="M136.68 118.91V93.66V50.84" stroke="#614B94" stroke-linecap="round" stroke-linejoin="round"/>
<path d="M145.38 118.91V82.95L160.4 67.93V51.17" stroke="#614B94" stroke-linecap="round" stroke-linejoin="round"/>
<path d="M155.08 118.91V98.34" stroke="#614B94" stroke-linecap="round" stroke-linejoin="round"/>
<path d="M156.66 86.8L174.81 68.65V50.84" stroke="#614B94" stroke-linecap="round" stroke-linejoin="round"/>
<path d="M164.11 118.91V93.66L185.4 72.37V50.84" stroke="#614B94" stroke-linecap="round" stroke-linejoin="round"/>
<path d="M174.81 119.08V93.66" stroke="#614B94" stroke-linecap="round" stroke-linejoin="round"/>
<path d="M176.66 204.86V235.97L185.69 245.01" stroke="#614B94" stroke-linecap="round" stroke-linejoin="round"/>
<path d="M168.63 204.86V251.36L160.82 259.17" stroke="#614B94" stroke-linecap="round" stroke-linejoin="round"/>
<path d="M175.32 254.04V303.21" stroke="#614B94" stroke-linecap="round" stroke-linejoin="round"/>
<path d="M159.37 204.86V243.33L146.94 255.76V303.21" stroke="#614B94" stroke-linecap="round" stroke-linejoin="round"/>
<path d="M135.88 303.21V250.52L150.43 235.97V205.03" stroke="#614B94" stroke-linecap="round" stroke-linejoin="round"/>
<path d="M140.53 205.03V230.29" stroke="#614B94" stroke-linecap="round" stroke-linejoin="round"/>
<path d="M131.83 205.03V240.99L116.81 256.01V303.21" stroke="#614B94" stroke-linecap="round" stroke-linejoin="round"/>
<path d="M122.13 205.03V225.6" stroke="#614B94" stroke-linecap="round" stroke-linejoin="round"/>
<path d="M120.54 237.14L102.4 255.29V303.21" stroke="#614B94" stroke-linecap="round" stroke-linejoin="round"/>
<path d="M113.1 205.03V230.29L91.8101 251.57V303.21" stroke="#614B94" stroke-linecap="round" stroke-linejoin="round"/>
<path d="M102.4 204.86V230.29" stroke="#614B94" stroke-linecap="round" stroke-linejoin="round"/>
<path d="M182.01 201.54H213.12L222.16 210.58H270.32" stroke="#614B94" stroke-linecap="round" stroke-linejoin="round"/>
<path d="M182.01 193.52H228.51L236.32 185.71H270.32" stroke="#614B94" stroke-linecap="round" stroke-linejoin="round"/>
<path d="M231.18 200.21H270.32" stroke="#614B94" stroke-linecap="round" stroke-linejoin="round"/>
<path d="M182.01 184.25H220.48L232.91 171.82H269.99" stroke="#614B94" stroke-linecap="round" stroke-linejoin="round"/>
<path d="M270.32 160.76H227.67L213.12 175.31H182.18" stroke="#614B94" stroke-linecap="round" stroke-linejoin="round"/>
<path d="M182.18 165.42H207.43" stroke="#614B94" stroke-linecap="round" stroke-linejoin="round"/>
<path d="M182.18 156.72H218.14L233.16 141.7H269.99" stroke="#614B94" stroke-linecap="round" stroke-linejoin="round"/>
<path d="M182.18 147.02H202.75" stroke="#614B94" stroke-linecap="round" stroke-linejoin="round"/>
<path d="M214.29 145.43L232.44 127.28" stroke="#614B94" stroke-linecap="round" stroke-linejoin="round"/>
<path d="M182.18 137.98H207.43L228.72 116.69H270.32" stroke="#614B94" stroke-linecap="round" stroke-linejoin="round"/>
<path d="M182.01 127.28H207.43" stroke="#614B94" stroke-linecap="round" stroke-linejoin="round"/>
<path d="M168.88 136.48V188.19C167.23 189.84 166.31 190.76 164.66 192.41H112.95L108.73 188.19V136.48L112.95 132.26H164.66C166.31 133.91 167.23 134.83 168.88 136.48Z" stroke="white" stroke-width="3" stroke-linecap="round" stroke-linejoin="round"/>
<path d="M191.23 117.28V207.41C188.36 210.28 186.74 211.9 183.87 214.77H93.7399L86.3799 207.41V117.28C89.2499 114.41 90.8699 112.79 93.7399 109.92H183.87C186.74 112.79 188.36 114.41 191.23 117.28Z" stroke="white" stroke-width="5" stroke-linecap="round" stroke-linejoin="round"/>
<g style="mix-blend-mode:color-dodge">
<path style="mix-blend-mode:color-dodge" d="M178.92 130.26V194.43C175.78 197.57 174.03 199.32 170.89 202.46H106.72L98.6899 194.43V130.26C101.83 127.12 103.58 125.37 106.72 122.23H170.89L178.92 130.26Z" fill="url(#paint0_radial_146_8687)"/>
</g>
<path d="M3.12 170.53C3.12 171.39 2.42 172.09 1.56 172.09C0.7 172.09 0 171.39 0 170.53C0 169.67 0.7 168.97 1.56 168.97C2.42 168.97 3.12 169.67 3.12 170.53Z" fill="#614B94"/>
<path d="M3.12 159.46C3.12 160.32 2.42 161.02 1.56 161.02C0.7 161.02 0 160.32 0 159.46C0 158.6 0.7 157.9 1.56 157.9C2.42 157.9 3.12 158.6 3.12 159.46Z" fill="#614B94"/>
<path d="M271.55 160.76C271.55 161.62 270.85 162.32 269.99 162.32C269.13 162.32 268.43 161.62 268.43 160.76C268.43 159.9 269.13 159.2 269.99 159.2C270.85 159.2 271.55 159.9 271.55 160.76Z" fill="#614B94"/>
<path d="M271.55 141.7C271.55 142.56 270.85 143.26 269.99 143.26C269.13 143.26 268.43 142.56 268.43 141.7C268.43 140.84 269.13 140.14 269.99 140.14C270.85 140.14 271.55 140.84 271.55 141.7Z" fill="#614B94"/>
<path d="M271.55 116.69C271.55 117.55 270.85 118.25 269.99 118.25C269.13 118.25 268.43 117.55 268.43 116.69C268.43 115.83 269.13 115.13 269.99 115.13C270.85 115.13 271.55 115.83 271.55 116.69Z" fill="#614B94"/>
<path d="M186.96 49.86C186.96 50.72 186.26 51.42 185.4 51.42C184.54 51.42 183.84 50.72 183.84 49.86C183.84 49 184.54 48.3 185.4 48.3C186.26 48.3 186.96 49 186.96 49.86Z" fill="#614B94"/>
<path d="M176.32 49.86C176.32 50.72 175.62 51.42 174.76 51.42C173.9 51.42 173.2 50.72 173.2 49.86C173.2 49 173.9 48.3 174.76 48.3C175.62 48.3 176.32 49 176.32 49.86Z" fill="#614B94"/>
<path d="M161.96 49.86C161.96 50.72 161.26 51.42 160.4 51.42C159.54 51.42 158.84 50.72 158.84 49.86C158.84 49 159.54 48.3 160.4 48.3C161.26 48.3 161.96 49 161.96 49.86Z" fill="#614B94"/>
<path d="M148.5 49.86C148.5 50.72 147.8 51.42 146.94 51.42C146.08 51.42 145.38 50.72 145.38 49.86C145.38 49 146.08 48.3 146.94 48.3C147.8 48.3 148.5 49 148.5 49.86Z" fill="#614B94"/>
<path d="M138.24 49.86C138.24 50.72 137.54 51.42 136.68 51.42C135.82 51.42 135.12 50.72 135.12 49.86C135.12 49 135.82 48.3 136.68 48.3C137.54 48.3 138.24 49 138.24 49.86Z" fill="#614B94"/>
<path d="M131.83 49.86C131.83 50.72 131.13 51.42 130.27 51.42C129.41 51.42 128.71 50.72 128.71 49.86C128.71 49 129.41 48.3 130.27 48.3C131.13 48.3 131.83 49 131.83 49.86Z" fill="#614B94"/>
<path d="M117.95 49.86C117.95 50.72 117.25 51.42 116.39 51.42C115.53 51.42 114.83 50.72 114.83 49.86C114.83 49 115.53 48.3 116.39 48.3C117.25 48.3 117.95 49 117.95 49.86Z" fill="#614B94"/>
<path d="M103.45 49.86C103.45 50.72 102.75 51.42 101.89 51.42C101.03 51.42 100.33 50.72 100.33 49.86C100.33 49 101.03 48.3 101.89 48.3C102.75 48.3 103.45 49 103.45 49.86Z" fill="#614B94"/>
<path d="M93.08 49.86C93.08 50.72 92.38 51.42 91.52 51.42C90.66 51.42 89.96 50.72 89.96 49.86C89.96 49 90.66 48.3 91.52 48.3C92.38 48.3 93.08 49 93.08 49.86Z" fill="#614B94"/>
<path d="M271.55 171.82C271.55 172.68 270.85 173.38 269.99 173.38C269.13 173.38 268.43 172.68 268.43 171.82C268.43 170.96 269.13 170.26 269.99 170.26C270.85 170.26 271.55 170.96 271.55 171.82Z" fill="#614B94"/>
<path d="M271.55 185.71C271.55 186.57 270.85 187.27 269.99 187.27C269.13 187.27 268.43 186.57 268.43 185.71C268.43 184.85 269.13 184.15 269.99 184.15C270.85 184.15 271.55 184.85 271.55 185.71Z" fill="#614B94"/>
<path d="M271.55 200.21C271.55 201.07 270.85 201.77 269.99 201.77C269.13 201.77 268.43 201.07 268.43 200.21C268.43 199.35 269.13 198.65 269.99 198.65C270.85 198.65 271.55 199.35 271.55 200.21Z" fill="#614B94"/>
<path d="M271.55 210.58C271.55 211.44 270.85 212.14 269.99 212.14C269.13 212.14 268.43 211.44 268.43 210.58C268.43 209.72 269.13 209.02 269.99 209.02C270.85 209.02 271.55 209.72 271.55 210.58Z" fill="#614B94"/>
<path d="M3.12 184.41C3.12 185.27 2.42 185.97 1.56 185.97C0.7 185.97 0 185.27 0 184.41C0 183.55 0.7 182.85 1.56 182.85C2.42 182.85 3.12 183.55 3.12 184.41Z" fill="#614B94"/>
<path d="M3.12 198.91C3.12 199.77 2.42 200.47 1.56 200.47C0.7 200.47 0 199.77 0 198.91C0 198.05 0.7 197.35 1.56 197.35C2.42 197.35 3.12 198.05 3.12 198.91Z" fill="#614B94"/>
<path d="M3.12 209.28C3.12 210.14 2.42 210.84 1.56 210.84C0.7 210.84 0 210.14 0 209.28C0 208.42 0.7 207.72 1.56 207.72C2.42 207.72 3.12 208.42 3.12 209.28Z" fill="#614B94"/>
<path d="M3.12 140.4C3.12 141.26 2.42 141.96 1.56 141.96C0.7 141.96 0 141.26 0 140.4C0 139.54 0.7 138.84 1.56 138.84C2.42 138.84 3.12 139.54 3.12 140.4Z" fill="#614B94"/>
<path d="M3.12 115.4C3.12 116.26 2.42 116.96 1.56 116.96C0.7 116.96 0 116.26 0 115.4C0 114.54 0.7 113.84 1.56 113.84C2.42 113.84 3.12 114.54 3.12 115.4Z" fill="#614B94"/>
<path d="M129.053 172.43H124.769L131.296 153.521H136.448L142.967 172.43H138.683L133.946 157.842H133.798L129.053 172.43ZM128.785 164.997H138.904V168.118H128.785V164.997ZM145.245 172.43V158.248H149.178V172.43H145.245ZM147.221 156.42C146.636 156.42 146.134 156.226 145.716 155.838C145.303 155.444 145.097 154.974 145.097 154.426C145.097 153.884 145.303 153.419 145.716 153.032C146.134 152.638 146.636 152.441 147.221 152.441C147.806 152.441 148.304 152.638 148.716 153.032C149.135 153.419 149.344 153.884 149.344 154.426C149.344 154.974 149.135 155.444 148.716 155.838C148.304 156.226 147.806 156.42 147.221 156.42Z" fill="white"/>
<path style="mix-blend-mode:color-dodge" d="M108.58 83.09C113.882 83.09 118.18 78.7919 118.18 73.49C118.18 68.1881 113.882 63.89 108.58 63.89C103.278 63.89 98.98 68.1881 98.98 73.49C98.98 78.7919 103.278 83.09 108.58 83.09Z" fill="url(#paint1_radial_146_8687)"/>
<path style="mix-blend-mode:color-dodge" d="M92.08 261.39C97.3819 261.39 101.68 257.092 101.68 251.79C101.68 246.488 97.3819 242.19 92.08 242.19C86.778 242.19 82.48 246.488 82.48 251.79C82.48 257.092 86.778 261.39 92.08 261.39Z" fill="url(#paint2_radial_146_8687)"/>
<path style="mix-blend-mode:color-dodge" d="M71.81 135.59C77.1119 135.59 81.41 131.292 81.41 125.99C81.41 120.688 77.1119 116.39 71.81 116.39C66.508 116.39 62.21 120.688 62.21 125.99C62.21 131.292 66.508 135.59 71.81 135.59Z" fill="url(#paint3_radial_146_8687)"/>
<path style="mix-blend-mode:color-dodge" d="M174.76 108.41C182.906 108.41 189.51 101.806 189.51 93.66C189.51 85.5138 182.906 78.91 174.76 78.91C166.614 78.91 160.01 85.5138 160.01 93.66C160.01 101.806 166.614 108.41 174.76 108.41Z" fill="url(#paint4_radial_146_8687)"/>
<path style="mix-blend-mode:color-dodge" d="M231.876 160.102C233.736 152.171 228.815 144.234 220.884 142.373C212.953 140.513 205.015 145.435 203.155 153.366C201.295 161.297 206.216 169.234 214.147 171.094C222.078 172.954 230.016 168.033 231.876 160.102Z" fill="url(#paint5_radial_146_8687)"/>
<path style="mix-blend-mode:color-dodge" d="M168.63 249.91C176.776 249.91 183.38 243.306 183.38 235.16C183.38 227.014 176.776 220.41 168.63 220.41C160.484 220.41 153.88 227.014 153.88 235.16C153.88 243.306 160.484 249.91 168.63 249.91Z" fill="url(#paint6_radial_146_8687)"/>
<path style="mix-blend-mode:color-dodge" d="M45.8101 185.28C53.9563 185.28 60.5601 178.676 60.5601 170.53C60.5601 162.384 53.9563 155.78 45.8101 155.78C37.6639 155.78 31.0601 162.384 31.0601 170.53C31.0601 178.676 37.6639 185.28 45.8101 185.28Z" fill="url(#paint7_radial_146_8687)"/>
<path d="M251.82 334.15C251.82 341.44 201.52 347.36 139.46 347.36C77.4001 347.36 27.1001 341.45 27.1001 334.15V321.9C27.1001 321.77 27.1201 321.64 27.1501 321.52C28.9201 328.63 78.5201 334.33 139.46 334.33C200.4 334.33 250.03 328.63 251.77 321.51C251.8 321.64 251.82 321.77 251.82 321.9C251.82 322.03 251.8 322.16 251.77 322.29C251.91 322.86 251.8 323.54 251.8 324.12C251.8 324.78 251.82 334.03 251.82 334.16V334.15Z" fill="url(#paint8_linear_146_8687)"/>
<path d="M251.82 321.12C251.82 321.17 251.82 321.22 251.81 321.27C251.81 321.32 251.81 321.36 251.79 321.41C251.79 321.44 251.78 321.47 251.77 321.51C250.03 328.62 200.41 334.33 139.46 334.33C78.5101 334.33 28.9201 328.63 27.1501 321.52C27.1501 321.49 27.1301 321.45 27.1301 321.42C27.1201 321.37 27.1101 321.33 27.1101 321.28C27.1101 321.23 27.1001 321.18 27.1001 321.13C27.1001 313.83 77.4001 307.92 139.46 307.92C201.52 307.92 251.82 313.83 251.82 321.13V321.12Z" fill="#AD27DC"/>
<path d="M27.1499 321.51C28.9199 328.62 78.5199 334.32 139.46 334.32C200.4 334.32 250.03 328.62 251.77 321.5" stroke="#BE54EA" stroke-miterlimit="10" stroke-linecap="round"/>
<path d="M251.82 314.43C251.82 321.72 201.52 327.64 139.46 327.64C77.4001 327.64 27.1001 321.73 27.1001 314.43V302.18C27.1001 302.05 27.1201 301.92 27.1501 301.8C28.9201 308.91 78.5201 314.61 139.46 314.61C200.4 314.61 250.03 308.91 251.77 301.8C251.8 301.93 251.82 302.06 251.82 302.19C251.82 302.32 251.8 302.45 251.77 302.58C251.91 303.15 251.8 303.83 251.8 304.41C251.8 305.07 251.82 314.32 251.82 314.45V314.43Z" fill="url(#paint9_linear_146_8687)"/>
<path d="M251.82 301.4C251.82 301.45 251.82 301.5 251.81 301.55C251.81 301.6 251.81 301.64 251.79 301.69C251.79 301.72 251.78 301.75 251.77 301.79C250.03 308.9 200.41 314.6 139.46 314.6C78.5101 314.6 28.9201 308.9 27.1501 301.79C27.1501 301.76 27.1301 301.72 27.1301 301.69C27.1201 301.64 27.1101 301.6 27.1101 301.55C27.1101 301.5 27.1001 301.45 27.1001 301.4C27.1001 294.1 77.4001 288.19 139.46 288.19C201.52 288.19 251.82 294.1 251.82 301.4Z" fill="#AD27DC"/>
<path d="M27.1499 301.79C28.9199 308.9 78.5199 314.6 139.46 314.6C200.4 314.6 250.03 308.9 251.77 301.79" stroke="#BE54EA" stroke-miterlimit="10" stroke-linecap="round"/>
<path d="M139.46 308.21C201.515 308.21 251.82 302.296 251.82 295C251.82 287.704 201.515 281.79 139.46 281.79C77.4054 281.79 27.1001 287.704 27.1001 295C27.1001 302.296 77.4054 308.21 139.46 308.21Z" fill="#1F3399"/>
<path d="M251.82 268.59C251.82 268.64 251.82 268.69 251.81 268.74C251.81 268.79 251.81 268.83 251.79 268.88C251.79 268.91 251.78 268.94 251.77 268.98C250.03 276.09 200.41 281.8 139.46 281.8C78.5101 281.8 28.9201 276.1 27.1501 268.99C27.1501 268.96 27.1301 268.92 27.1301 268.89C27.1201 268.84 27.1101 268.8 27.1101 268.75C27.1101 268.7 27.1001 268.65 27.1001 268.6C27.1001 261.3 77.4001 255.39 139.46 255.39C201.52 255.39 251.82 261.3 251.82 268.6V268.59Z" fill="#AD27DC"/>
<path d="M187.63 268.59C187.63 268.59 187.63 268.63 187.63 268.65C187.63 268.67 187.63 268.69 187.63 268.71C186.87 271.8 165.61 274.25 139.48 274.25C113.35 274.25 92.0998 271.81 91.3398 268.76C91.3298 268.7 91.3198 268.68 91.3198 268.66C91.3198 268.64 91.3198 268.62 91.3198 268.6C91.3198 265.47 112.88 262.94 139.49 262.94C166.1 262.94 187.66 265.47 187.66 268.6L187.63 268.59Z" fill="white"/>
<path style="mix-blend-mode:color-dodge" d="M247.09 0H33V283H247.09V0Z" fill="url(#paint10_linear_146_8687)"/>
<path d="M251.77 286.07C251.65 286.54 251.8 287.32 251.8 287.82C251.8 288.54 251.8 289.27 251.8 289.99C251.8 291.4 251.81 292.81 251.81 294.23C251.81 294.36 251.79 294.49 251.76 294.62C251.79 294.75 251.81 294.88 251.81 295.01C251.81 302.3 201.51 308.22 139.45 308.22C77.3898 308.22 27.0898 302.31 27.0898 295.01C27.0898 294.88 27.1098 294.75 27.1398 294.62C27.1098 294.49 27.0898 294.36 27.0898 294.23C27.0898 291.74 27.1198 289.22 27.1098 286.72C27.1098 284.79 27.1098 282.86 27.0998 280.94C27.0998 277.09 27.0898 273.23 27.0898 269.38C27.0898 269.25 27.1098 269.12 27.1398 269C28.9098 276.11 78.5098 281.81 139.45 281.81C200.39 281.81 250.02 276.11 251.76 268.99C251.79 269.12 251.81 269.25 251.81 269.38C251.81 269.51 251.79 269.64 251.76 269.77C251.9 270.34 251.79 271.02 251.79 271.6C251.79 272.26 251.79 272.92 251.79 273.58C251.79 274.94 251.79 276.3 251.79 277.65C251.79 280.33 251.8 283.01 251.8 285.69C251.8 285.82 251.78 285.95 251.75 286.08L251.77 286.07Z" fill="url(#paint11_linear_146_8687)"/>
<path d="M27.1499 268.98C28.9199 276.09 78.5199 281.79 139.46 281.79C200.4 281.79 250.03 276.09 251.77 268.97" stroke="#BE54EA" stroke-miterlimit="10" stroke-linecap="round"/>
<path style="mix-blend-mode:color-dodge" d="M52.7402 231.37C55.9269 231.37 58.5102 228.787 58.5102 225.6C58.5102 222.413 55.9269 219.83 52.7402 219.83C49.5535 219.83 46.9702 222.413 46.9702 225.6C46.9702 228.787 49.5535 231.37 52.7402 231.37Z" fill="url(#paint12_radial_146_8687)"/>
<path style="mix-blend-mode:color-dodge" d="M236.95 247.96C240.137 247.96 242.72 245.377 242.72 242.19C242.72 239.003 240.137 236.42 236.95 236.42C233.763 236.42 231.18 239.003 231.18 242.19C231.18 245.377 233.763 247.96 236.95 247.96Z" fill="url(#paint13_radial_146_8687)"/>
<path style="mix-blend-mode:color-dodge" d="M220.48 70.66C223.667 70.66 226.25 68.0767 226.25 64.89C226.25 61.7033 223.667 59.12 220.48 59.12C217.293 59.12 214.71 61.7033 214.71 64.89C214.71 68.0767 217.293 70.66 220.48 70.66Z" fill="url(#paint14_radial_146_8687)"/>
<path style="mix-blend-mode:color-dodge" d="M27.1499 80.36C30.3366 80.36 32.9199 77.7767 32.9199 74.59C32.9199 71.4033 30.3366 68.82 27.1499 68.82C23.9632 68.82 21.3799 71.4033 21.3799 74.59C21.3799 77.7767 23.9632 80.36 27.1499 80.36Z" fill="url(#paint15_radial_146_8687)"/>
<path style="mix-blend-mode:color-dodge" d="M13.9302 226.86C17.1168 226.86 19.7002 224.277 19.7002 221.09C19.7002 217.903 17.1168 215.32 13.9302 215.32C10.7435 215.32 8.16016 217.903 8.16016 221.09C8.16016 224.277 10.7435 226.86 13.9302 226.86Z" fill="url(#paint16_radial_146_8687)"/>
<path style="mix-blend-mode:color-dodge" d="M271.55 271.68C274.736 271.68 277.32 269.097 277.32 265.91C277.32 262.723 274.736 260.14 271.55 260.14C268.363 260.14 265.78 262.723 265.78 265.91C265.78 269.097 268.363 271.68 271.55 271.68Z" fill="url(#paint17_radial_146_8687)"/>
<path style="mix-blend-mode:color-dodge" d="M86.1401 236.51C86.1401 238.04 84.9001 239.28 83.3701 239.28C81.8401 239.28 80.6001 238.04 80.6001 236.51C80.6001 234.98 81.8401 233.74 83.3701 233.74C84.9001 233.74 86.1401 234.98 86.1401 236.51Z" fill="url(#paint18_radial_146_8687)"/>
<path style="mix-blend-mode:color-dodge" d="M207.43 230.29C207.43 231.82 206.19 233.06 204.66 233.06C203.13 233.06 201.89 231.82 201.89 230.29C201.89 228.76 203.13 227.52 204.66 227.52C206.19 227.52 207.43 228.76 207.43 230.29Z" fill="url(#paint19_radial_146_8687)"/>
<path style="mix-blend-mode:color-dodge" d="M207.43 100.67C207.43 102.2 206.19 103.44 204.66 103.44C203.13 103.44 201.89 102.2 201.89 100.67C201.89 99.14 203.13 97.9 204.66 97.9C206.19 97.9 207.43 99.14 207.43 100.67Z" fill="url(#paint20_radial_146_8687)"/>
<path style="mix-blend-mode:color-dodge" d="M27.1001 258.15C28.6299 258.15 29.8701 256.91 29.8701 255.38C29.8701 253.85 28.6299 252.61 27.1001 252.61C25.5702 252.61 24.3301 253.85 24.3301 255.38C24.3301 256.91 25.5702 258.15 27.1001 258.15Z" fill="url(#paint21_radial_146_8687)"/>
<path style="mix-blend-mode:color-dodge" d="M282.32 224.94C282.32 226.47 281.08 227.71 279.55 227.71C278.02 227.71 276.78 226.47 276.78 224.94C276.78 223.41 278.02 222.17 279.55 222.17C281.08 222.17 282.32 223.41 282.32 224.94Z" fill="url(#paint22_radial_146_8687)"/>
<path style="mix-blend-mode:color-dodge" d="M238.01 100.67C238.01 102.2 236.77 103.44 235.24 103.44C233.71 103.44 232.47 102.2 232.47 100.67C232.47 99.14 233.71 97.9 235.24 97.9C236.77 97.9 238.01 99.14 238.01 100.67Z" fill="url(#paint23_radial_146_8687)"/>
<path style="mix-blend-mode:color-dodge" d="M71.81 93.51C73.3399 93.51 74.58 92.2698 74.58 90.74C74.58 89.2102 73.3399 87.97 71.81 87.97C70.2802 87.97 69.04 89.2102 69.04 90.74C69.04 92.2698 70.2802 93.51 71.81 93.51Z" fill="url(#paint24_radial_146_8687)"/>
<path style="mix-blend-mode:color-dodge" d="M67.7202 66.66C67.7202 68.19 66.4802 69.43 64.9502 69.43C63.4202 69.43 62.1802 68.19 62.1802 66.66C62.1802 65.13 63.4202 63.89 64.9502 63.89C66.4802 63.89 67.7202 65.13 67.7202 66.66Z" fill="url(#paint25_radial_146_8687)"/>
</g>
<defs>
<radialGradient id="paint0_radial_146_8687" cx="0" cy="0" r="1" gradientUnits="userSpaceOnUse" gradientTransform="translate(138.81 162.34) rotate(-90) scale(40.11 40.11)">
<stop stop-color="#4D4D4D"/>
<stop offset="1"/>
</radialGradient>
<radialGradient id="paint1_radial_146_8687" cx="0" cy="0" r="1" gradientUnits="userSpaceOnUse" gradientTransform="translate(108.58 73.49) scale(9.6)">
<stop stop-color="white"/>
<stop offset="1"/>
</radialGradient>
<radialGradient id="paint2_radial_146_8687" cx="0" cy="0" r="1" gradientUnits="userSpaceOnUse" gradientTransform="translate(92.08 251.79) scale(9.6 9.60001)">
<stop stop-color="white"/>
<stop offset="1"/>
</radialGradient>
<radialGradient id="paint3_radial_146_8687" cx="0" cy="0" r="1" gradientUnits="userSpaceOnUse" gradientTransform="translate(71.81 125.99) scale(0.5)">
<stop stop-color="white"/>
<stop offset="1"/>
</radialGradient>
<radialGradient id="paint4_radial_146_8687" cx="0" cy="0" r="1" gradientUnits="userSpaceOnUse" gradientTransform="translate(174.76 93.66) scale(14.75)">
<stop stop-color="white"/>
<stop offset="1"/>
</radialGradient>
<radialGradient id="paint5_radial_146_8687" cx="0" cy="0" r="1" gradientUnits="userSpaceOnUse" gradientTransform="translate(217.52 156.717) scale(14.75)">
<stop stop-color="white"/>
<stop offset="1"/>
</radialGradient>
<radialGradient id="paint6_radial_146_8687" cx="0" cy="0" r="1" gradientUnits="userSpaceOnUse" gradientTransform="translate(168.63 235.16) scale(14.75)">
<stop stop-color="white"/>
<stop offset="1"/>
</radialGradient>
<radialGradient id="paint7_radial_146_8687" cx="0" cy="0" r="1" gradientUnits="userSpaceOnUse" gradientTransform="translate(45.8101 170.53) scale(14.75)">
<stop stop-color="white"/>
<stop offset="1"/>
</radialGradient>
<linearGradient id="paint8_linear_146_8687" x1="139.47" y1="330.42" x2="139.47" y2="346.14" gradientUnits="userSpaceOnUse">
<stop stop-color="#5922A9"/>
<stop offset="1" stop-color="#37107B"/>
</linearGradient>
<linearGradient id="paint9_linear_146_8687" x1="9.80167e-05" y1="310.69" x2="1.0001" y2="326.42" gradientUnits="userSpaceOnUse">
<stop stop-color="#5922A9"/>
<stop offset="1" stop-color="#37107B"/>
</linearGradient>
<linearGradient id="paint10_linear_146_8687" x1="140.04" y1="97.55" x2="140.04" y2="269.76" gradientUnits="userSpaceOnUse">
<stop/>
<stop offset="1" stop-color="#CCCCCC"/>
</linearGradient>
<linearGradient id="paint11_linear_146_8687" x1="-0.000156843" y1="282.5" x2="0.999844" y2="306.37" gradientUnits="userSpaceOnUse">
<stop stop-color="#5922A9"/>
<stop offset="1" stop-color="#37107B"/>
</linearGradient>
<radialGradient id="paint12_radial_146_8687" cx="0" cy="0" r="1" gradientUnits="userSpaceOnUse" gradientTransform="translate(52.7402 225.6) scale(5.77 5.77)">
<stop stop-color="white"/>
<stop offset="1"/>
</radialGradient>
<radialGradient id="paint13_radial_146_8687" cx="0" cy="0" r="1" gradientUnits="userSpaceOnUse" gradientTransform="translate(236.95 242.19) scale(5.77)">
<stop stop-color="white"/>
<stop offset="1"/>
</radialGradient>
<radialGradient id="paint14_radial_146_8687" cx="0" cy="0" r="1" gradientUnits="userSpaceOnUse" gradientTransform="translate(220.48 64.89) scale(5.77 5.77)">
<stop stop-color="white"/>
<stop offset="1"/>
</radialGradient>
<radialGradient id="paint15_radial_146_8687" cx="0" cy="0" r="1" gradientUnits="userSpaceOnUse" gradientTransform="translate(27.1499 74.59) scale(5.77)">
<stop stop-color="white"/>
<stop offset="1"/>
</radialGradient>
<radialGradient id="paint16_radial_146_8687" cx="0" cy="0" r="1" gradientUnits="userSpaceOnUse" gradientTransform="translate(13.9302 221.09) scale(5.77 5.77)">
<stop stop-color="white"/>
<stop offset="1"/>
</radialGradient>
<radialGradient id="paint17_radial_146_8687" cx="0" cy="0" r="1" gradientUnits="userSpaceOnUse" gradientTransform="translate(271.55 265.91) scale(5.77 5.76999)">
<stop stop-color="white"/>
<stop offset="1"/>
</radialGradient>
<radialGradient id="paint18_radial_146_8687" cx="0" cy="0" r="1" gradientUnits="userSpaceOnUse" gradientTransform="translate(83.3701 236.51) scale(2.77 2.77)">
<stop stop-color="white"/>
<stop offset="1"/>
</radialGradient>
<radialGradient id="paint19_radial_146_8687" cx="0" cy="0" r="1" gradientUnits="userSpaceOnUse" gradientTransform="translate(204.67 230.29) scale(2.77)">
<stop stop-color="white"/>
<stop offset="1"/>
</radialGradient>
<radialGradient id="paint20_radial_146_8687" cx="0" cy="0" r="1" gradientUnits="userSpaceOnUse" gradientTransform="translate(204.67 100.67) scale(2.77 2.77)">
<stop stop-color="white"/>
<stop offset="1"/>
</radialGradient>
<radialGradient id="paint21_radial_146_8687" cx="0" cy="0" r="1" gradientUnits="userSpaceOnUse" gradientTransform="translate(27.1001 255.38) scale(2.77 2.77)">
<stop stop-color="white"/>
<stop offset="1"/>
</radialGradient>
<radialGradient id="paint22_radial_146_8687" cx="0" cy="0" r="1" gradientUnits="userSpaceOnUse" gradientTransform="translate(279.55 224.94) scale(2.77)">
<stop stop-color="white"/>
<stop offset="1"/>
</radialGradient>
<radialGradient id="paint23_radial_146_8687" cx="0" cy="0" r="1" gradientUnits="userSpaceOnUse" gradientTransform="translate(235.24 100.67) scale(2.77 2.77)">
<stop stop-color="white"/>
<stop offset="1"/>
</radialGradient>
<radialGradient id="paint24_radial_146_8687" cx="0" cy="0" r="1" gradientUnits="userSpaceOnUse" gradientTransform="translate(71.81 90.74) scale(2.77)">
<stop stop-color="white"/>
<stop offset="1"/>
</radialGradient>
<radialGradient id="paint25_radial_146_8687" cx="0" cy="0" r="1" gradientUnits="userSpaceOnUse" gradientTransform="translate(64.9502 66.66) scale(2.77)">
<stop stop-color="white"/>
<stop offset="1"/>
</radialGradient>
<clipPath id="clip0_146_8687">
<rect width="282.32" height="347.35" fill="white"/>
</clipPath>
</defs>
</svg>
