<svg width="256" height="56" viewBox="0 0 256 56" fill="none" xmlns="http://www.w3.org/2000/svg">
<rect width="256" height="56" rx="8" fill="#F54737"/>
<path d="M53.75 28C53.75 29.6744 53.4202 31.3323 52.7795 32.8792C52.1387 34.4261 51.1996 35.8317 50.0156 37.0156C48.8317 38.1996 47.4261 39.1387 45.8792 39.7795C44.3323 40.4202 42.6744 40.75 41 40.75C39.3256 40.75 37.6677 40.4202 36.1208 39.7795C34.5739 39.1387 33.1683 38.1996 31.9844 37.0156C30.8004 35.8317 29.8613 34.4261 29.2205 32.8792C28.5798 31.3323 28.25 29.6744 28.25 28C28.25 24.6185 29.5933 21.3755 31.9844 18.9844C34.3755 16.5933 37.6185 15.25 41 15.25C44.3815 15.25 47.6245 16.5933 50.0156 18.9844C52.4067 21.3755 53.75 24.6185 53.75 28Z" stroke="white" stroke-width="2" stroke-linecap="round" stroke-linejoin="round"/>
<path d="M46.5392 27.5353C46.6221 27.5813 46.6912 27.6486 46.7394 27.7303C46.7875 27.8121 46.8129 27.9052 46.8129 28C46.8129 28.0948 46.7875 28.1879 46.7394 28.2697C46.6912 28.3514 46.6221 28.4187 46.5392 28.4647L38.6016 32.8747C38.5207 32.9196 38.4295 32.9426 38.337 32.9415C38.2445 32.9403 38.1539 32.915 38.0742 32.868C37.9945 32.8211 37.9284 32.7542 37.8825 32.6738C37.8366 32.5935 37.8125 32.5026 37.8125 32.4101V23.5899C37.8125 23.1847 38.2474 22.9297 38.6016 23.1267L46.5392 27.5353Z" stroke="white" stroke-width="2" stroke-linecap="round" stroke-linejoin="round"/>
<path d="M72.6307 33.5L69.3011 21.8636H71.9886L73.9148 29.9489H74.0114L76.1364 21.8636H78.4375L80.5568 29.9659H80.6591L82.5852 21.8636H85.2727L81.9432 33.5H79.5455L77.3295 25.892H77.2386L75.0284 33.5H72.6307ZM88.0952 33.6648C87.5384 33.6648 87.0421 33.5682 86.6065 33.375C86.1709 33.178 85.8262 32.8883 85.5724 32.5057C85.3224 32.1193 85.1974 31.6383 85.1974 31.0625C85.1974 30.5777 85.2865 30.1705 85.4645 29.8409C85.6425 29.5114 85.8849 29.2462 86.1918 29.0455C86.4986 28.8447 86.8471 28.6932 87.2372 28.5909C87.6312 28.4886 88.044 28.4167 88.4759 28.375C88.9834 28.322 89.3925 28.2727 89.7031 28.2273C90.0137 28.178 90.2391 28.1061 90.3793 28.0114C90.5194 27.9167 90.5895 27.7765 90.5895 27.5909V27.5568C90.5895 27.197 90.4759 26.9186 90.2486 26.7216C90.0251 26.5246 89.7069 26.4261 89.294 26.4261C88.8584 26.4261 88.5118 26.5227 88.2543 26.7159C87.9967 26.9053 87.8262 27.1439 87.7429 27.4318L85.5043 27.25C85.6179 26.7197 85.8414 26.2614 86.1747 25.875C86.508 25.4848 86.938 25.1856 87.4645 24.9773C87.9948 24.7652 88.6084 24.6591 89.3054 24.6591C89.7902 24.6591 90.2543 24.7159 90.6974 24.8295C91.1444 24.9432 91.5402 25.1193 91.8849 25.358C92.2334 25.5966 92.508 25.9034 92.7088 26.2784C92.9096 26.6496 93.0099 27.0947 93.0099 27.6136V33.5H90.7145V32.2898H90.6463C90.5062 32.5625 90.3187 32.803 90.0838 33.0114C89.849 33.2159 89.5668 33.3769 89.2372 33.4943C88.9077 33.608 88.527 33.6648 88.0952 33.6648ZM88.7884 31.9943C89.1444 31.9943 89.4588 31.9242 89.7315 31.7841C90.0043 31.6402 90.2183 31.447 90.3736 31.2045C90.5289 30.9621 90.6065 30.6875 90.6065 30.3807V29.4545C90.5308 29.5038 90.4266 29.5492 90.294 29.5909C90.1652 29.6288 90.0194 29.6648 89.8565 29.6989C89.6937 29.7292 89.5308 29.7576 89.3679 29.7841C89.205 29.8068 89.0573 29.8277 88.9247 29.8466C88.6406 29.8883 88.3925 29.9545 88.1804 30.0455C87.9683 30.1364 87.8035 30.2595 87.6861 30.4148C87.5687 30.5663 87.5099 30.7557 87.5099 30.983C87.5099 31.3125 87.6293 31.5644 87.8679 31.7386C88.1103 31.9091 88.4171 31.9943 88.7884 31.9943ZM99.5298 24.7727V26.5909H94.2741V24.7727H99.5298ZM95.4673 22.6818H97.8878V30.8182C97.8878 31.0417 97.9219 31.2159 97.9901 31.3409C98.0582 31.4621 98.1529 31.5473 98.2741 31.5966C98.3991 31.6458 98.5431 31.6705 98.706 31.6705C98.8196 31.6705 98.9332 31.661 99.0469 31.642C99.1605 31.6193 99.2476 31.6023 99.3082 31.5909L99.6889 33.392C99.5677 33.4299 99.3973 33.4735 99.1776 33.5227C98.9579 33.5758 98.6908 33.608 98.3764 33.6193C97.7931 33.642 97.2817 33.5644 96.8423 33.3864C96.4067 33.2083 96.0677 32.9318 95.8253 32.5568C95.5829 32.1818 95.4635 31.7083 95.4673 31.1364V22.6818ZM104.956 33.6705C104.062 33.6705 103.293 33.4811 102.649 33.1023C102.009 32.7197 101.517 32.1894 101.172 31.5114C100.831 30.8333 100.661 30.053 100.661 29.1705C100.661 28.2765 100.833 27.4924 101.178 26.8182C101.526 26.1402 102.02 25.6117 102.661 25.233C103.301 24.8504 104.062 24.6591 104.945 24.6591C105.706 24.6591 106.373 24.7973 106.945 25.0739C107.517 25.3504 107.969 25.7386 108.303 26.2386C108.636 26.7386 108.82 27.3258 108.854 28H106.57C106.505 27.5644 106.335 27.214 106.058 26.9489C105.786 26.6799 105.428 26.5455 104.984 26.5455C104.609 26.5455 104.282 26.6477 104.001 26.8523C103.725 27.053 103.509 27.3466 103.354 27.733C103.198 28.1193 103.121 28.5871 103.121 29.1364C103.121 29.6932 103.196 30.1667 103.348 30.5568C103.503 30.947 103.721 31.2443 104.001 31.4489C104.282 31.6534 104.609 31.7557 104.984 31.7557C105.261 31.7557 105.509 31.6989 105.729 31.5852C105.952 31.4716 106.136 31.3068 106.28 31.0909C106.428 30.8712 106.524 30.608 106.57 30.3011H108.854C108.816 30.9678 108.634 31.5549 108.308 32.0625C107.986 32.5663 107.541 32.9602 106.973 33.2443C106.405 33.5284 105.732 33.6705 104.956 33.6705ZM112.824 28.4545V33.5H110.403V21.8636H112.756V26.3125H112.858C113.055 25.7973 113.373 25.3939 113.812 25.1023C114.252 24.8068 114.803 24.6591 115.466 24.6591C116.072 24.6591 116.6 24.7917 117.051 25.0568C117.506 25.3182 117.858 25.6951 118.108 26.1875C118.362 26.6761 118.487 27.2614 118.483 27.9432V33.5H116.062V28.375C116.066 27.8371 115.93 27.4186 115.653 27.1193C115.381 26.8201 114.998 26.6705 114.506 26.6705C114.176 26.6705 113.884 26.7405 113.631 26.8807C113.381 27.0208 113.184 27.2254 113.04 27.4943C112.9 27.7595 112.828 28.0795 112.824 28.4545ZM126.58 33.6648C126.023 33.6648 125.527 33.5682 125.091 33.375C124.655 33.178 124.311 32.8883 124.057 32.5057C123.807 32.1193 123.682 31.6383 123.682 31.0625C123.682 30.5777 123.771 30.1705 123.949 29.8409C124.127 29.5114 124.369 29.2462 124.676 29.0455C124.983 28.8447 125.331 28.6932 125.722 28.5909C126.116 28.4886 126.528 28.4167 126.96 28.375C127.468 28.322 127.877 28.2727 128.188 28.2273C128.498 28.178 128.723 28.1061 128.864 28.0114C129.004 27.9167 129.074 27.7765 129.074 27.5909V27.5568C129.074 27.197 128.96 26.9186 128.733 26.7216C128.509 26.5246 128.191 26.4261 127.778 26.4261C127.343 26.4261 126.996 26.5227 126.739 26.7159C126.481 26.9053 126.311 27.1439 126.227 27.4318L123.989 27.25C124.102 26.7197 124.326 26.2614 124.659 25.875C124.992 25.4848 125.422 25.1856 125.949 24.9773C126.479 24.7652 127.093 24.6591 127.79 24.6591C128.275 24.6591 128.739 24.7159 129.182 24.8295C129.629 24.9432 130.025 25.1193 130.369 25.358C130.718 25.5966 130.992 25.9034 131.193 26.2784C131.394 26.6496 131.494 27.0947 131.494 27.6136V33.5H129.199V32.2898H129.131C128.991 32.5625 128.803 32.803 128.568 33.0114C128.333 33.2159 128.051 33.3769 127.722 33.4943C127.392 33.608 127.011 33.6648 126.58 33.6648ZM127.273 31.9943C127.629 31.9943 127.943 31.9242 128.216 31.7841C128.489 31.6402 128.703 31.447 128.858 31.2045C129.013 30.9621 129.091 30.6875 129.091 30.3807V29.4545C129.015 29.5038 128.911 29.5492 128.778 29.5909C128.65 29.6288 128.504 29.6648 128.341 29.6989C128.178 29.7292 128.015 29.7576 127.852 29.7841C127.689 29.8068 127.542 29.8277 127.409 29.8466C127.125 29.8883 126.877 29.9545 126.665 30.0455C126.453 30.1364 126.288 30.2595 126.17 30.4148C126.053 30.5663 125.994 30.7557 125.994 30.983C125.994 31.3125 126.114 31.5644 126.352 31.7386C126.595 31.9091 126.902 31.9943 127.273 31.9943ZM141.246 33.5H137.121V21.8636H141.28C142.45 21.8636 143.458 22.0966 144.303 22.5625C145.147 23.0246 145.797 23.6894 146.251 24.5568C146.71 25.4242 146.939 26.4621 146.939 27.6705C146.939 28.8826 146.71 29.9242 146.251 30.7955C145.797 31.6667 145.143 32.3352 144.291 32.8011C143.443 33.267 142.428 33.5 141.246 33.5ZM139.581 31.392H141.143C141.871 31.392 142.482 31.2633 142.979 31.0057C143.479 30.7443 143.854 30.3409 144.104 29.7955C144.357 29.2462 144.484 28.5379 144.484 27.6705C144.484 26.8106 144.357 26.108 144.104 25.5625C143.854 25.017 143.481 24.6155 142.984 24.358C142.488 24.1004 141.876 23.9716 141.149 23.9716H139.581V31.392ZM152.693 33.6705C151.795 33.6705 151.023 33.4886 150.375 33.125C149.731 32.7576 149.235 32.2386 148.886 31.5682C148.538 30.8939 148.364 30.0966 148.364 29.1761C148.364 28.2784 148.538 27.4905 148.886 26.8125C149.235 26.1345 149.725 25.6061 150.358 25.2273C150.994 24.8485 151.741 24.6591 152.597 24.6591C153.172 24.6591 153.708 24.7519 154.205 24.9375C154.705 25.1193 155.14 25.3939 155.511 25.7614C155.886 26.1288 156.178 26.5909 156.386 27.1477C156.595 27.7008 156.699 28.3485 156.699 29.0909V29.7557H149.33V28.2557H154.42C154.42 27.9072 154.345 27.5985 154.193 27.3295C154.042 27.0606 153.831 26.8504 153.562 26.6989C153.297 26.5436 152.989 26.4659 152.636 26.4659C152.269 26.4659 151.943 26.5511 151.659 26.7216C151.379 26.8883 151.159 27.1136 151 27.3977C150.841 27.678 150.759 27.9905 150.756 28.3352V29.7614C150.756 30.1932 150.835 30.5663 150.994 30.8807C151.157 31.1951 151.386 31.4375 151.682 31.608C151.977 31.7784 152.328 31.8636 152.733 31.8636C153.002 31.8636 153.248 31.8258 153.472 31.75C153.695 31.6742 153.886 31.5606 154.045 31.4091C154.205 31.2576 154.326 31.072 154.409 30.8523L156.648 31C156.534 31.5379 156.301 32.0076 155.949 32.4091C155.6 32.8068 155.15 33.1174 154.597 33.3409C154.047 33.5606 153.413 33.6705 152.693 33.6705ZM158.278 33.5V24.7727H160.585V26.3125H160.688C160.869 25.8011 161.172 25.3977 161.597 25.1023C162.021 24.8068 162.528 24.6591 163.119 24.6591C163.718 24.6591 164.227 24.8087 164.648 25.108C165.068 25.4034 165.348 25.8049 165.489 26.3125H165.58C165.758 25.8125 166.08 25.4129 166.545 25.1136C167.015 24.8106 167.57 24.6591 168.21 24.6591C169.025 24.6591 169.686 24.9186 170.193 25.4375C170.705 25.9527 170.96 26.6837 170.96 27.6307V33.5H168.545V28.108C168.545 27.6231 168.417 27.2595 168.159 27.017C167.902 26.7746 167.58 26.6534 167.193 26.6534C166.754 26.6534 166.411 26.7936 166.165 27.0739C165.919 27.3504 165.795 27.7159 165.795 28.1705V33.5H163.449V28.0568C163.449 27.6288 163.326 27.2879 163.08 27.0341C162.837 26.7803 162.517 26.6534 162.119 26.6534C161.85 26.6534 161.608 26.7216 161.392 26.858C161.18 26.9905 161.011 27.178 160.886 27.4205C160.761 27.6591 160.699 27.9394 160.699 28.2614V33.5H158.278ZM176.815 33.6705C175.933 33.6705 175.17 33.483 174.526 33.108C173.885 32.7292 173.391 32.2027 173.043 31.5284C172.694 30.8504 172.52 30.0644 172.52 29.1705C172.52 28.2689 172.694 27.4811 173.043 26.8068C173.391 26.1288 173.885 25.6023 174.526 25.2273C175.17 24.8485 175.933 24.6591 176.815 24.6591C177.698 24.6591 178.459 24.8485 179.099 25.2273C179.743 25.6023 180.24 26.1288 180.588 26.8068C180.937 27.4811 181.111 28.2689 181.111 29.1705C181.111 30.0644 180.937 30.8504 180.588 31.5284C180.24 32.2027 179.743 32.7292 179.099 33.108C178.459 33.483 177.698 33.6705 176.815 33.6705ZM176.827 31.7955C177.228 31.7955 177.563 31.6818 177.832 31.4545C178.101 31.2235 178.304 30.9091 178.44 30.5114C178.58 30.1136 178.651 29.661 178.651 29.1534C178.651 28.6458 178.58 28.1932 178.44 27.7955C178.304 27.3977 178.101 27.0833 177.832 26.8523C177.563 26.6212 177.228 26.5057 176.827 26.5057C176.421 26.5057 176.08 26.6212 175.804 26.8523C175.531 27.0833 175.325 27.3977 175.185 27.7955C175.048 28.1932 174.98 28.6458 174.98 29.1534C174.98 29.661 175.048 30.1136 175.185 30.5114C175.325 30.9091 175.531 31.2235 175.804 31.4545C176.08 31.6818 176.421 31.7955 176.827 31.7955ZM188.536 21.8636L191.348 30.7045H191.456L194.274 21.8636H197.001L192.99 33.5H189.82L185.803 21.8636H188.536ZM198.357 33.5V24.7727H200.777V33.5H198.357ZM199.572 23.6477C199.213 23.6477 198.904 23.5284 198.646 23.2898C198.393 23.0473 198.266 22.7576 198.266 22.4205C198.266 22.0871 198.393 21.8011 198.646 21.5625C198.904 21.3201 199.213 21.1989 199.572 21.1989C199.932 21.1989 200.239 21.3201 200.493 21.5625C200.75 21.8011 200.879 22.0871 200.879 22.4205C200.879 22.7576 200.75 23.0473 200.493 23.2898C200.239 23.5284 199.932 23.6477 199.572 23.6477ZM205.932 33.642C205.269 33.642 204.669 33.4716 204.131 33.1307C203.597 32.786 203.172 32.2803 202.858 31.6136C202.547 30.9432 202.392 30.1212 202.392 29.1477C202.392 28.1477 202.553 27.3163 202.875 26.6534C203.197 25.9867 203.625 25.4886 204.159 25.1591C204.697 24.8258 205.286 24.6591 205.926 24.6591C206.415 24.6591 206.822 24.7424 207.148 24.9091C207.477 25.072 207.742 25.2765 207.943 25.5227C208.148 25.7652 208.303 26.0038 208.409 26.2386H208.483V21.8636H210.898V33.5H208.511V32.1023H208.409C208.295 32.3447 208.134 32.5852 207.926 32.8239C207.722 33.0587 207.455 33.2538 207.125 33.4091C206.799 33.5644 206.402 33.642 205.932 33.642ZM206.699 31.7159C207.089 31.7159 207.419 31.6098 207.688 31.3977C207.96 31.1818 208.169 30.8807 208.312 30.4943C208.46 30.108 208.534 29.6553 208.534 29.1364C208.534 28.6174 208.462 28.1667 208.318 27.7841C208.174 27.4015 207.966 27.1061 207.693 26.8977C207.42 26.6894 207.089 26.5852 206.699 26.5852C206.301 26.5852 205.966 26.6932 205.693 26.9091C205.42 27.125 205.214 27.4242 205.074 27.8068C204.934 28.1894 204.864 28.6326 204.864 29.1364C204.864 29.6439 204.934 30.0928 205.074 30.483C205.218 30.8693 205.424 31.1723 205.693 31.392C205.966 31.608 206.301 31.7159 206.699 31.7159ZM216.865 33.6705C215.967 33.6705 215.195 33.4886 214.547 33.125C213.903 32.7576 213.407 32.2386 213.058 31.5682C212.71 30.8939 212.536 30.0966 212.536 29.1761C212.536 28.2784 212.71 27.4905 213.058 26.8125C213.407 26.1345 213.897 25.6061 214.53 25.2273C215.166 24.8485 215.912 24.6591 216.768 24.6591C217.344 24.6591 217.88 24.7519 218.376 24.9375C218.876 25.1193 219.312 25.3939 219.683 25.7614C220.058 26.1288 220.35 26.5909 220.558 27.1477C220.767 27.7008 220.871 28.3485 220.871 29.0909V29.7557H213.501V28.2557H218.592C218.592 27.9072 218.517 27.5985 218.365 27.3295C218.214 27.0606 218.003 26.8504 217.734 26.6989C217.469 26.5436 217.161 26.4659 216.808 26.4659C216.441 26.4659 216.115 26.5511 215.831 26.7216C215.551 26.8883 215.331 27.1136 215.172 27.3977C215.013 27.678 214.931 27.9905 214.928 28.3352V29.7614C214.928 30.1932 215.007 30.5663 215.166 30.8807C215.329 31.1951 215.558 31.4375 215.854 31.608C216.149 31.7784 216.5 31.8636 216.905 31.8636C217.174 31.8636 217.42 31.8258 217.643 31.75C217.867 31.6742 218.058 31.5606 218.217 31.4091C218.376 31.2576 218.498 31.072 218.581 30.8523L220.82 31C220.706 31.5379 220.473 32.0076 220.121 32.4091C219.772 32.8068 219.321 33.1174 218.768 33.3409C218.219 33.5606 217.585 33.6705 216.865 33.6705ZM226.393 33.6705C225.511 33.6705 224.748 33.483 224.104 33.108C223.464 32.7292 222.969 32.2027 222.621 31.5284C222.272 30.8504 222.098 30.0644 222.098 29.1705C222.098 28.2689 222.272 27.4811 222.621 26.8068C222.969 26.1288 223.464 25.6023 224.104 25.2273C224.748 24.8485 225.511 24.6591 226.393 24.6591C227.276 24.6591 228.037 24.8485 228.678 25.2273C229.321 25.6023 229.818 26.1288 230.166 26.8068C230.515 27.4811 230.689 28.2689 230.689 29.1705C230.689 30.0644 230.515 30.8504 230.166 31.5284C229.818 32.2027 229.321 32.7292 228.678 33.108C228.037 33.483 227.276 33.6705 226.393 33.6705ZM226.405 31.7955C226.806 31.7955 227.142 31.6818 227.411 31.4545C227.679 31.2235 227.882 30.9091 228.018 30.5114C228.159 30.1136 228.229 29.661 228.229 29.1534C228.229 28.6458 228.159 28.1932 228.018 27.7955C227.882 27.3977 227.679 27.0833 227.411 26.8523C227.142 26.6212 226.806 26.5057 226.405 26.5057C226 26.5057 225.659 26.6212 225.382 26.8523C225.109 27.0833 224.903 27.3977 224.763 27.7955C224.626 28.1932 224.558 28.6458 224.558 29.1534C224.558 29.661 224.626 30.1136 224.763 30.5114C224.903 30.9091 225.109 31.2235 225.382 31.4545C225.659 31.6818 226 31.7955 226.405 31.7955Z" fill="white"/>
</svg>
