<svg width="24" height="24" viewBox="0 0 24 24" fill="none" xmlns="http://www.w3.org/2000/svg">
<path d="M21.8053 10.0416H21.0013V9.9996H12.0001V13.9992H17.6509C17.1786 15.3321 16.2505 16.4553 15.0305 17.1703C13.8105 17.8854 12.3771 18.1464 10.9834 17.9073C9.58963 17.6681 8.32522 16.9442 7.4134 15.8633C6.50159 14.7824 6.00102 13.4141 6.0001 12C6.0001 10.4087 6.63224 8.88258 7.75746 7.75736C8.88268 6.63214 10.4088 6 12.0001 6C13.5301 6 14.9209 6.576 15.9805 7.5192L18.8089 4.6908C16.9635 2.96162 14.5291 1.9997 12.0001 2.0004C9.93794 2.00009 7.92611 2.63726 6.24012 3.82466C4.55412 5.01205 3.27641 6.69161 2.58195 8.63331C1.8875 10.575 1.81026 12.6839 2.36082 14.6712C2.91137 16.6585 4.06281 18.4271 5.65743 19.7346C7.25204 21.0421 9.21188 21.8248 11.2685 21.9753C13.3252 22.1259 15.3781 21.6369 17.1461 20.5755C18.9141 19.5141 20.3108 17.9321 21.1449 16.0462C21.9789 14.1602 22.2096 12.0625 21.8053 10.0404V10.0416Z" fill="#FFC107"/>
<path d="M3.15356 7.3452L6.43916 9.756C6.88587 8.64672 7.65399 7.6963 8.64486 7.02681C9.63573 6.35732 10.8041 5.99932 12 5.9988C13.53 5.9988 14.9208 6.5772 15.9804 7.5192L18.8088 4.6908C16.9633 2.96162 14.5289 1.9997 12 2.0004C10.1785 2.00043 8.39161 2.49824 6.83248 3.44002C5.27334 4.3818 4.00122 5.73295 3.15356 7.3452Z" fill="#FF3D00"/>
<path d="M11.9999 21.9996C14.4801 22 16.871 21.0743 18.7043 19.404L15.6095 16.7844C14.5718 17.5738 13.3038 18.0008 11.9999 18C10.765 17.9991 9.56043 17.617 8.55077 16.9059C7.54111 16.1947 6.77559 15.1893 6.35875 14.0268L3.09595 16.5396C3.93207 18.1824 5.20633 19.562 6.77777 20.5256C8.34921 21.4892 10.1566 21.9993 11.9999 21.9996Z" fill="#4CAF50"/>
<path d="M21.8052 10.0416H21V10.0008H12V14.0004H17.652C17.2575 15.1085 16.5471 16.0768 15.6084 16.7856L18.7044 19.404C18.486 19.6032 21.9996 17.0004 21.9996 12C21.9996 11.3292 21.9312 10.6752 21.8052 10.0416Z" fill="#1976D2"/>
</svg>
