<svg width="120" height="120" viewBox="0 0 120 120" fill="none" xmlns="http://www.w3.org/2000/svg">
<circle cx="60" cy="60" r="60" fill="#FEFAE6"/>
<path fill-rule="evenodd" clip-rule="evenodd" d="M58.7606 69.9919C58.9425 69.9919 59.121 69.9606 59.2896 69.9019C59.6188 70.1986 60.0496 70.3706 60.5042 70.3706C60.9582 70.3706 61.389 70.1986 61.7175 69.9019C61.8868 69.9606 62.0647 69.9919 62.2472 69.9919C63.1399 69.9919 63.8667 69.2626 63.8667 68.3659C63.8667 68.3493 63.8641 68.2773 63.8627 68.2606C63.8368 67.9479 63.5601 67.7439 63.2574 67.7513C62.9448 67.7646 62.6985 68.0506 62.6985 68.3659C62.6985 68.7226 62.2266 68.9453 61.9538 68.7099C61.8217 68.5966 61.6459 68.5486 61.4726 68.5786C61.3001 68.6086 61.1514 68.7153 61.0651 68.8693C60.8341 69.2806 60.171 69.2779 59.9421 68.8693C59.8558 68.7159 59.7064 68.6086 59.5339 68.5786C59.3626 68.5486 59.1847 68.5966 59.0527 68.7099C58.9949 68.7606 58.8967 68.8206 58.7599 68.8206C58.511 68.8206 58.3079 68.6159 58.3073 68.3586C58.3338 68.0359 58.0955 67.7519 57.7736 67.7246C57.4537 67.6919 57.1696 67.9379 57.1438 68.2613C57.1424 68.2779 57.1398 68.3499 57.1398 68.3666C57.1411 69.2633 57.8679 69.9919 58.7606 69.9919Z" fill="#F2CB05"/>
<path fill-rule="evenodd" clip-rule="evenodd" d="M65.1231 55.6254C65.2539 55.6254 65.386 55.5814 65.4948 55.4914C67.196 54.0788 71.6888 53.9641 73.9269 55.2741C74.2023 55.4368 74.5621 55.3421 74.7247 55.0634C74.8866 54.7834 74.7931 54.4241 74.5143 54.2614C71.8454 52.6988 66.8249 52.8668 64.7521 54.5881C64.5032 54.7954 64.468 55.1634 64.6738 55.4134C64.7886 55.5534 64.9559 55.6254 65.1231 55.6254Z" fill="#F2CB05"/>
<path fill-rule="evenodd" clip-rule="evenodd" d="M73.7312 60.5273C73.8566 60.5273 73.9847 60.5 74.1049 60.4426C74.5416 60.2353 74.7281 59.7106 74.5217 59.272C73.7259 57.5846 71.8216 56.4946 69.6718 56.4946C67.522 56.4946 65.6177 57.5846 64.8212 59.272C64.6141 59.7106 64.8013 60.2353 65.2381 60.4426C65.6748 60.652 66.1971 60.4633 66.4042 60.0246C66.7301 59.3333 67.4045 58.7953 68.2355 58.5013C68.1618 58.682 68.1193 58.8813 68.1193 59.09C68.1193 59.9506 68.8142 60.6486 69.6718 60.6486C70.5287 60.6486 71.2236 59.9506 71.2236 59.09C71.2236 58.8813 71.1818 58.6826 71.1068 58.5013C71.9384 58.7953 72.6135 59.3333 72.9387 60.0246C73.0894 60.3426 73.4033 60.5273 73.7312 60.5273Z" fill="#F2CB05"/>
<path fill-rule="evenodd" clip-rule="evenodd" d="M54.9435 60.0246C55.0935 60.3426 55.4075 60.5273 55.736 60.5273C55.8615 60.5273 55.9896 60.5 56.1097 60.4426C56.5464 60.2353 56.7329 59.7106 56.5265 59.272C55.73 57.5846 53.8258 56.4946 51.6746 56.4946C49.5248 56.4946 47.6212 57.5846 46.8247 59.272C46.6176 59.7106 46.8048 60.2353 47.2409 60.4426C47.677 60.652 48.1993 60.4633 48.4071 60.0246C48.733 59.3333 49.408 58.7953 50.2403 58.5C50.166 58.682 50.1235 58.8813 50.1235 59.09C50.1235 59.9506 50.8184 60.6486 51.674 60.6486C52.5315 60.6486 53.2258 59.9506 53.2258 59.09C53.2258 58.8813 53.1833 58.6826 53.1096 58.5013C53.9426 58.7953 54.6176 59.3333 54.9435 60.0246Z" fill="#F2CB05"/>
<path fill-rule="evenodd" clip-rule="evenodd" d="M63.9444 72.9687C63.6517 73.4087 62.5685 73.896 60.8049 73.9933C58.7507 74.1067 56.7389 73.6327 56.1196 72.892C55.8083 72.5193 55.2568 72.47 54.8857 72.7827C54.5154 73.0953 54.4676 73.65 54.7776 74.022C55.8654 75.3213 58.2436 75.768 60.2082 75.768C60.4465 75.768 60.6781 75.76 60.9012 75.75C61.9313 75.6913 64.4322 75.4027 65.3999 73.9453C65.6688 73.5407 65.5599 72.9947 65.1583 72.7253C64.7555 72.456 64.2119 72.564 63.9444 72.9687Z" fill="#F2CB05"/>
<path fill-rule="evenodd" clip-rule="evenodd" d="M47.4997 55.4894C49.092 54.1654 53.2835 54.0508 56.0984 55.8954C56.1966 55.9594 56.3068 55.9908 56.4163 55.9894C56.6068 55.9894 56.794 55.8968 56.9062 55.7241C57.0821 55.4534 57.0057 55.0901 56.7356 54.9128C53.699 52.9234 48.942 52.7681 46.755 54.5874C46.5068 54.7948 46.4716 55.1641 46.6774 55.4128C46.8825 55.6628 47.2508 55.6968 47.4997 55.4894Z" fill="#F2CB05"/>
<path fill-rule="evenodd" clip-rule="evenodd" d="M62.6515 77.1228C61.3671 77.1108 59.4788 77.1108 58.1951 77.1228C57.8726 77.1268 57.6137 77.3908 57.617 77.7154C57.6204 78.0368 57.8805 78.2961 58.2011 78.2961C58.2024 78.2961 58.2051 78.2961 58.2064 78.2961C59.4835 78.2828 61.3625 78.2828 62.6395 78.2961C62.6415 78.2961 62.6442 78.2961 62.6455 78.2961C62.9647 78.2961 63.2262 78.0368 63.2296 77.7154C63.2329 77.3908 62.9734 77.1261 62.6515 77.1228Z" fill="#F2CB05"/>
<path fill-rule="evenodd" clip-rule="evenodd" d="M84.84 58.0887C81.0435 48.788 80.8437 40.4 73.4318 34.2647C70.6607 31.9687 65.6276 30.0267 60.0463 30.0007L59.9998 30L59.9533 30.0007C54.3727 30.0267 49.3396 31.9687 46.5678 34.2647C39.1553 40.4 38.9555 48.788 35.1589 58.0887C30.5646 74.3773 32.1642 88.7147 51.2598 90C48.4588 85.126 47.1513 81.8007 47.211 76.862C50.4454 83.0627 53.4348 86.4593 59.8631 86.6393C59.871 86.6393 59.8797 86.6393 59.889 86.6393C59.8983 86.6393 59.9069 86.6393 59.9149 86.6393C66.3763 86.4587 69.3631 83.0313 72.6161 76.772C72.6665 76.6753 72.7276 76.574 72.7793 76.4767C72.9108 81.6273 71.6132 85.0027 68.7412 90C87.8355 88.7147 89.4364 74.3773 84.84 58.0887ZM70.96 75.9047C67.9102 81.7733 65.4736 84.5987 59.8883 84.764C54.305 84.5987 51.8691 81.7733 48.8186 75.9047C48.2146 74.7407 47.4884 73.5287 46.7869 72.3527C44.9377 69.26 43.0255 66.0607 43.0255 63.3953V55.8727C46.1371 46.9233 47.6199 39.8173 59.952 42.9047C72.0545 40.154 73.7079 46.4827 76.7505 55.2493V63.3967C76.7505 66.062 74.8382 69.2613 72.9891 72.356C72.2888 73.5287 71.564 74.7433 70.96 75.9047Z" fill="#F2CB05"/>
</svg>
