<svg width="41" height="41" viewBox="0 0 41 41" fill="none" xmlns="http://www.w3.org/2000/svg">
<circle opacity="0.5" cx="20.5" cy="20.5" r="20.5" fill="#E9E6EC"/>
<path d="M23.9168 13.6667H17.0835C15.1965 13.6667 13.6668 15.1964 13.6668 17.0834V23.9167C13.6668 25.8037 15.1965 27.3334 17.0835 27.3334H23.9168C25.8038 27.3334 27.3335 25.8037 27.3335 23.9167V17.0834C27.3335 15.1964 25.8038 13.6667 23.9168 13.6667Z" stroke="#4D3466" stroke-width="1.5" stroke-linecap="round" stroke-linejoin="round"/>
<path d="M23.2332 20.0695C23.3175 20.6382 23.2203 21.219 22.9556 21.7293C22.6908 22.2396 22.2718 22.6534 21.7583 22.9119C21.2447 23.1704 20.6628 23.2604 20.0951 23.169C19.5275 23.0777 19.0032 22.8097 18.5966 22.4032C18.1901 21.9966 17.9221 21.4723 17.8308 20.9046C17.7394 20.337 17.8294 19.7551 18.0879 19.2415C18.3464 18.728 18.7602 18.309 19.2705 18.0442C19.7808 17.7794 20.3616 17.6823 20.9303 17.7666C21.5104 17.8526 22.0475 18.123 22.4621 18.5376C22.8768 18.9523 23.1471 19.4894 23.2332 20.0695Z" stroke="#4D3466" stroke-width="1.5" stroke-linecap="round" stroke-linejoin="round"/>
<path d="M24.2583 16.7415H24.2648" stroke="#4D3466" stroke-width="1.5" stroke-linecap="round" stroke-linejoin="round"/>
</svg>
