<svg width="120" height="120" viewBox="0 0 120 120" fill="none" xmlns="http://www.w3.org/2000/svg">
<circle cx="60" cy="60" r="60" fill="#E9E6EC"/>
<path d="M70 70L77.5 50L85 70C82.825 71.625 80.2 72.5 77.5 72.5C74.8 72.5 72.175 71.625 70 70Z" stroke="#4D3466" stroke-width="3" stroke-linecap="round" stroke-linejoin="round"/>
<path d="M35 70L42.5 50L50 70C47.825 71.625 45.2 72.5 42.5 72.5C39.8 72.5 37.175 71.625 35 70Z" stroke="#4D3466" stroke-width="3" stroke-linecap="round" stroke-linejoin="round"/>
<path d="M47.5 82.5H72.5" stroke="#4D3466" stroke-width="3" stroke-linecap="round" stroke-linejoin="round"/>
<path d="M60 37.5V82.5" stroke="#4D3466" stroke-width="3" stroke-linecap="round" stroke-linejoin="round"/>
<path d="M37.5 47.5H42.5C47.5 47.5 55 45 60 42.5C65 45 72.5 47.5 77.5 47.5H82.5" stroke="#4D3466" stroke-width="3" stroke-linecap="round" stroke-linejoin="round"/>
</svg>
