<svg width="218" height="56" viewBox="0 0 218 56" fill="none" xmlns="http://www.w3.org/2000/svg">
<rect width="218" height="56" rx="8" fill="#F54737"/>
<path d="M62.0433 21.3636H64.1342V29.5455C64.1304 30.2955 63.9714 30.9413 63.657 31.483C63.3426 32.0208 62.9032 32.4356 62.3388 32.7273C61.7782 33.0152 61.1248 33.1591 60.3786 33.1591C59.6967 33.1591 59.0831 33.0379 58.5376 32.7955C57.996 32.5492 57.5661 32.1856 57.2479 31.7045C56.9297 31.2235 56.7706 30.625 56.7706 29.9091H58.8672C58.871 30.2235 58.9392 30.4943 59.0717 30.7216C59.2081 30.9489 59.3956 31.1231 59.6342 31.2443C59.8729 31.3655 60.1475 31.4261 60.4581 31.4261C60.7952 31.4261 61.0812 31.3561 61.3161 31.2159C61.5509 31.072 61.7289 30.8598 61.8501 30.5795C61.9751 30.2992 62.0395 29.9545 62.0433 29.5455V21.3636ZM70.1371 33.1705C69.2848 33.1705 68.5462 32.983 67.9212 32.608C67.2962 32.233 66.8113 31.7083 66.4666 31.0341C66.1257 30.3598 65.9553 29.572 65.9553 28.6705C65.9553 27.7689 66.1257 26.9792 66.4666 26.3011C66.8113 25.6231 67.2962 25.0966 67.9212 24.7216C68.5462 24.3466 69.2848 24.1591 70.1371 24.1591C70.9893 24.1591 71.728 24.3466 72.353 24.7216C72.978 25.0966 73.4609 25.6231 73.8018 26.3011C74.1465 26.9792 74.3189 27.7689 74.3189 28.6705C74.3189 29.572 74.1465 30.3598 73.8018 31.0341C73.4609 31.7083 72.978 32.233 72.353 32.608C71.728 32.983 70.9893 33.1705 70.1371 33.1705ZM70.1484 31.5227C70.6106 31.5227 70.9969 31.3958 71.3075 31.142C71.6181 30.8845 71.8492 30.5398 72.0007 30.108C72.156 29.6761 72.2337 29.1951 72.2337 28.6648C72.2337 28.1307 72.156 27.6477 72.0007 27.2159C71.8492 26.7803 71.6181 26.4337 71.3075 26.1761C70.9969 25.9186 70.6106 25.7898 70.1484 25.7898C69.675 25.7898 69.281 25.9186 68.9666 26.1761C68.656 26.4337 68.4231 26.7803 68.2678 27.2159C68.1162 27.6477 68.0405 28.1307 68.0405 28.6648C68.0405 29.1951 68.1162 29.6761 68.2678 30.108C68.4231 30.5398 68.656 30.8845 68.9666 31.142C69.281 31.3958 69.675 31.5227 70.1484 31.5227ZM76.0646 33V24.2727H78.1214V33H76.0646ZM77.0987 23.0341C76.773 23.0341 76.4927 22.9261 76.2578 22.7102C76.023 22.4905 75.9055 22.2273 75.9055 21.9205C75.9055 21.6098 76.023 21.3466 76.2578 21.1307C76.4927 20.911 76.773 20.8011 77.0987 20.8011C77.4283 20.8011 77.7086 20.911 77.9396 21.1307C78.1745 21.3466 78.2919 21.6098 78.2919 21.9205C78.2919 22.2273 78.1745 22.4905 77.9396 22.7102C77.7086 22.9261 77.4283 23.0341 77.0987 23.0341ZM82.2933 27.8864V33H80.2365V24.2727H82.2024V25.7557H82.3047C82.5054 25.267 82.8255 24.8788 83.2649 24.5909C83.7081 24.303 84.2554 24.1591 84.907 24.1591C85.5092 24.1591 86.0339 24.2879 86.4808 24.5455C86.9316 24.803 87.2801 25.1761 87.5263 25.6648C87.7763 26.1534 87.8994 26.7462 87.8956 27.4432V33H85.8388V27.7614C85.8388 27.178 85.6873 26.7216 85.3842 26.392C85.085 26.0625 84.6702 25.8977 84.1399 25.8977C83.7801 25.8977 83.46 25.9773 83.1797 26.1364C82.9032 26.2917 82.6854 26.517 82.5263 26.8125C82.371 27.108 82.2933 27.4659 82.2933 27.8864ZM97.7621 33.1705C96.9098 33.1705 96.1712 32.983 95.5462 32.608C94.9212 32.233 94.4363 31.7083 94.0916 31.0341C93.7507 30.3598 93.5803 29.572 93.5803 28.6705C93.5803 27.7689 93.7507 26.9792 94.0916 26.3011C94.4363 25.6231 94.9212 25.0966 95.5462 24.7216C96.1712 24.3466 96.9098 24.1591 97.7621 24.1591C98.6143 24.1591 99.353 24.3466 99.978 24.7216C100.603 25.0966 101.086 25.6231 101.427 26.3011C101.772 26.9792 101.944 27.7689 101.944 28.6705C101.944 29.572 101.772 30.3598 101.427 31.0341C101.086 31.7083 100.603 32.233 99.978 32.608C99.353 32.983 98.6143 33.1705 97.7621 33.1705ZM97.7734 31.5227C98.2356 31.5227 98.6219 31.3958 98.9325 31.142C99.2431 30.8845 99.4742 30.5398 99.6257 30.108C99.781 29.6761 99.8587 29.1951 99.8587 28.6648C99.8587 28.1307 99.781 27.6477 99.6257 27.2159C99.4742 26.7803 99.2431 26.4337 98.9325 26.1761C98.6219 25.9186 98.2356 25.7898 97.7734 25.7898C97.3 25.7898 96.906 25.9186 96.5916 26.1761C96.281 26.4337 96.0481 26.7803 95.8928 27.2159C95.7412 27.6477 95.6655 28.1307 95.6655 28.6648C95.6655 29.1951 95.7412 29.6761 95.8928 30.108C96.0481 30.5398 96.281 30.8845 96.5916 31.142C96.906 31.3958 97.3 31.5227 97.7734 31.5227ZM109.252 29.3295V24.2727H111.309V33H109.315V31.4489H109.224C109.027 31.9375 108.703 32.3371 108.252 32.6477C107.805 32.9583 107.254 33.1136 106.599 33.1136C106.027 33.1136 105.521 32.9867 105.082 32.733C104.646 32.4754 104.305 32.1023 104.059 31.6136C103.813 31.1212 103.69 30.5265 103.69 29.8295V24.2727H105.746V29.5114C105.746 30.0644 105.898 30.5038 106.201 30.8295C106.504 31.1553 106.902 31.3182 107.394 31.3182C107.697 31.3182 107.991 31.2443 108.275 31.0966C108.559 30.9489 108.792 30.7292 108.974 30.4375C109.159 30.142 109.252 29.7727 109.252 29.3295ZM113.424 33V24.2727H115.418V25.7273H115.509C115.668 25.2235 115.941 24.8352 116.327 24.5625C116.718 24.286 117.163 24.1477 117.663 24.1477C117.776 24.1477 117.903 24.1534 118.043 24.1648C118.187 24.1723 118.307 24.1856 118.401 24.2045V26.0966C118.314 26.0663 118.176 26.0398 117.987 26.017C117.801 25.9905 117.621 25.9773 117.447 25.9773C117.072 25.9773 116.735 26.0587 116.435 26.2216C116.14 26.3807 115.907 26.6023 115.737 26.8864C115.566 27.1705 115.481 27.4981 115.481 27.8693V33H113.424ZM128.094 24.2727V25.8636H123.077V24.2727H128.094ZM124.316 22.1818H126.373V30.375C126.373 30.6515 126.415 30.8636 126.498 31.0114C126.585 31.1553 126.699 31.2538 126.839 31.3068C126.979 31.3598 127.134 31.3864 127.305 31.3864C127.433 31.3864 127.551 31.3769 127.657 31.358C127.767 31.339 127.85 31.322 127.907 31.3068L128.254 32.9148C128.144 32.9527 127.987 32.9943 127.782 33.0398C127.581 33.0852 127.335 33.1117 127.043 33.1193C126.528 33.1345 126.064 33.0568 125.651 32.8864C125.238 32.7121 124.911 32.4432 124.668 32.0795C124.43 31.7159 124.312 31.2614 124.316 30.7159V22.1818ZM133.585 33.1705C132.71 33.1705 131.954 32.9886 131.317 32.625C130.685 32.2576 130.198 31.7386 129.857 31.0682C129.516 30.3939 129.346 29.6004 129.346 28.6875C129.346 27.7898 129.516 27.0019 129.857 26.3239C130.202 25.642 130.683 25.1117 131.3 24.733C131.918 24.3504 132.643 24.1591 133.477 24.1591C134.014 24.1591 134.522 24.2462 134.999 24.4205C135.48 24.5909 135.905 24.8561 136.272 25.2159C136.643 25.5758 136.935 26.0341 137.147 26.5909C137.359 27.1439 137.465 27.803 137.465 28.5682V29.1989H130.312V27.8125H135.494C135.49 27.4186 135.405 27.0682 135.238 26.7614C135.071 26.4508 134.838 26.2064 134.539 26.0284C134.244 25.8504 133.899 25.7614 133.505 25.7614C133.085 25.7614 132.715 25.8636 132.397 26.0682C132.079 26.2689 131.831 26.5341 131.653 26.8636C131.478 27.1894 131.389 27.5473 131.386 27.9375V29.1477C131.386 29.6553 131.478 30.0909 131.664 30.4545C131.85 30.8144 132.109 31.0909 132.442 31.2841C132.776 31.4735 133.166 31.5682 133.613 31.5682C133.912 31.5682 134.183 31.5265 134.425 31.4432C134.668 31.3561 134.878 31.2292 135.056 31.0625C135.234 30.8958 135.369 30.6894 135.46 30.4432L137.38 30.6591C137.259 31.1667 137.028 31.6098 136.687 31.9886C136.35 32.3636 135.918 32.6553 135.391 32.8636C134.865 33.0682 134.263 33.1705 133.585 33.1705ZM141.717 33.1761C141.164 33.1761 140.665 33.0777 140.222 32.8807C139.783 32.6799 139.434 32.3845 139.177 31.9943C138.923 31.6042 138.796 31.1231 138.796 30.5511C138.796 30.0587 138.887 29.6515 139.069 29.3295C139.251 29.0076 139.499 28.75 139.813 28.5568C140.128 28.3636 140.482 28.2178 140.876 28.1193C141.273 28.017 141.684 27.9432 142.109 27.8977C142.62 27.8447 143.035 27.7973 143.353 27.7557C143.671 27.7102 143.902 27.642 144.046 27.5511C144.194 27.4564 144.268 27.3106 144.268 27.1136V27.0795C144.268 26.6515 144.141 26.3201 143.887 26.0852C143.633 25.8504 143.268 25.733 142.79 25.733C142.287 25.733 141.887 25.8428 141.592 26.0625C141.3 26.2822 141.103 26.5417 141.001 26.8409L139.08 26.5682C139.232 26.0379 139.482 25.5947 139.83 25.2386C140.179 24.8788 140.605 24.6098 141.109 24.4318C141.612 24.25 142.169 24.1591 142.779 24.1591C143.2 24.1591 143.618 24.2083 144.035 24.3068C144.451 24.4053 144.832 24.5682 145.177 24.7955C145.522 25.0189 145.798 25.3239 146.006 25.7102C146.219 26.0966 146.325 26.5795 146.325 27.1591V33H144.347V31.8011H144.279C144.154 32.0436 143.978 32.2708 143.751 32.483C143.527 32.6913 143.245 32.8598 142.904 32.9886C142.567 33.1136 142.171 33.1761 141.717 33.1761ZM142.251 31.6648C142.664 31.6648 143.022 31.5833 143.325 31.4205C143.628 31.2538 143.861 31.0341 144.023 30.7614C144.19 30.4886 144.273 30.1913 144.273 29.8693V28.8409C144.209 28.8939 144.099 28.9432 143.944 28.9886C143.792 29.0341 143.622 29.0739 143.433 29.108C143.243 29.142 143.056 29.1723 142.87 29.1989C142.684 29.2254 142.523 29.2481 142.387 29.267C142.08 29.3087 141.806 29.3769 141.563 29.4716C141.321 29.5663 141.129 29.6989 140.989 29.8693C140.849 30.036 140.779 30.2519 140.779 30.517C140.779 30.8958 140.917 31.1818 141.194 31.375C141.47 31.5682 141.823 31.6648 142.251 31.6648ZM148.393 33V24.2727H150.359V25.7557H150.461C150.643 25.2557 150.944 24.8655 151.364 24.5852C151.785 24.3011 152.287 24.1591 152.87 24.1591C153.461 24.1591 153.959 24.303 154.364 24.5909C154.773 24.875 155.061 25.2633 155.228 25.7557H155.319C155.512 25.2708 155.838 24.8845 156.296 24.5966C156.758 24.3049 157.306 24.1591 157.938 24.1591C158.741 24.1591 159.397 24.4129 159.904 24.9205C160.412 25.428 160.665 26.1686 160.665 27.142V33H158.603V27.4602C158.603 26.9186 158.459 26.5227 158.171 26.2727C157.883 26.0189 157.531 25.892 157.114 25.892C156.618 25.892 156.23 26.0473 155.95 26.358C155.673 26.6648 155.535 27.0644 155.535 27.5568V33H153.518V27.375C153.518 26.9242 153.381 26.5644 153.109 26.2955C152.84 26.0265 152.487 25.892 152.052 25.892C151.756 25.892 151.487 25.9678 151.245 26.1193C151.003 26.267 150.809 26.4773 150.665 26.75C150.522 27.0189 150.45 27.3333 150.45 27.6932V33H148.393Z" fill="white"/>
</svg>
