<svg width="41" height="41" viewBox="0 0 41 41" fill="none" xmlns="http://www.w3.org/2000/svg">
<circle opacity="0.5" cx="20.5" cy="20.5" r="20.5" fill="#E9E6EC"/>
<path d="M23.7998 18.1995C24.9137 18.1995 25.982 18.642 26.7696 19.4296C27.5573 20.2173 27.9998 21.2856 27.9998 22.3995V27.2995H25.1998V22.3995C25.1998 22.0282 25.0523 21.6721 24.7897 21.4095C24.5272 21.147 24.1711 20.9995 23.7998 20.9995C23.4285 20.9995 23.0724 21.147 22.8098 21.4095C22.5473 21.6721 22.3998 22.0282 22.3998 22.3995V27.2995H19.5998V22.3995C19.5998 21.2856 20.0423 20.2173 20.8299 19.4296C21.6176 18.642 22.6859 18.1995 23.7998 18.1995Z" fill="#4D3466"/>
<path d="M16.8 18.9001H14V27.3001H16.8V18.9001Z" fill="#4D3466"/>
<path d="M15.4 16.8C16.1732 16.8 16.8 16.1732 16.8 15.4C16.8 14.6268 16.1732 14 15.4 14C14.6268 14 14 14.6268 14 15.4C14 16.1732 14.6268 16.8 15.4 16.8Z" fill="#4D3466"/>
</svg>
