<svg width="36" height="36" viewBox="0 0 36 36" fill="none" xmlns="http://www.w3.org/2000/svg">
<path d="M31.5 27.75C31.5 29.8215 29.8215 31.5 27.75 31.5H8.25C6.17925 31.5 4.5 29.8215 4.5 27.75V8.25C4.5 6.1785 6.17925 4.5 8.25 4.5H27.75C29.8215 4.5 31.5 6.1785 31.5 8.25V27.75Z" fill="#0078D4"/>
<path opacity="0.05" d="M22.5 27.75V20.1757C22.5 18.909 21.8858 18.1522 20.856 18.1522C20.2448 18.1522 19.7955 18.4965 19.5217 19.1752C19.509 19.2232 19.491 19.419 19.4985 20.0107L19.5 27.75H14.25V13.5H19.5V14.2958C20.2665 13.767 21.2063 13.5 22.3035 13.5C25.7138 13.5 27.7493 15.8197 27.7493 19.7055L27.75 27.75H22.5ZM8.25 27.75V13.5H10.8427C9.3405 13.5 8.25 12.396 8.25 10.8742C8.25 9.354 9.3585 8.25 10.8855 8.25C12.3945 8.25 13.4693 9.32325 13.5 10.8593C13.5 12.3923 12.3907 13.5 10.8637 13.5H13.5V27.75H8.25Z" fill="black"/>
<path opacity="0.07" d="M22.875 27.375V20.1757C22.875 18.696 22.1018 17.7772 20.856 17.7772C19.8848 17.7772 19.4048 18.4612 19.1737 19.035C19.1123 19.1842 19.1205 19.7767 19.1235 20.0295L19.125 27.375H14.625V13.875H19.125V15.1035C19.7212 14.4863 20.6813 13.875 22.3035 13.875C25.4783 13.875 27.3743 16.0545 27.3743 19.7055L27.375 27.375H22.875ZM8.625 27.375V13.875H13.125V27.375H8.625ZM10.8427 13.125C9.558 13.125 8.625 12.1785 8.625 10.8742C8.625 9.57075 9.576 8.625 10.8855 8.625C12.1785 8.625 13.0988 9.54675 13.125 10.8668C13.125 12.1785 12.174 13.125 10.8637 13.125H10.8427Z" fill="black"/>
<path d="M9 14.25H12.75V27H9V14.25ZM10.8637 12.75H10.8427C9.72375 12.75 9 11.916 9 10.8742C9 9.81 9.74625 9 10.8855 9C12.0262 9 12.729 9.81 12.75 10.8742C12.75 11.9152 12.0262 12.75 10.8637 12.75ZM27 27H23.25V20.1757C23.25 18.5272 22.3313 17.4022 20.856 17.4022C19.7303 17.4022 19.1213 18.1613 18.8258 18.8948C18.7177 19.1573 18.75 19.8833 18.75 20.25V27H15V14.25H18.75V16.212C19.2907 15.375 20.1375 14.25 22.3035 14.25C24.987 14.25 26.9993 15.9375 26.9993 19.7055L27 27Z" fill="white"/>
</svg>
