<svg width="377" height="451" viewBox="0 0 377 451" fill="none" xmlns="http://www.w3.org/2000/svg">
<g style="mix-blend-mode:color-burn" opacity="0.6">
<path d="M189.776 3.05176e-05C189.067 3.05176e-05 188.493 0.572571 188.489 1.28003C188.305 32.3807 188.32 63.4842 188.222 94.5863C188.218 95.8677 188.237 97.1518 188.287 98.4332C188.331 99.5825 188.683 111.119 190.066 111.133C191.364 111.145 191.986 99.7545 192.065 98.5736C192.177 96.8683 192.212 95.1574 192.212 93.448L192.852 24.7914C192.852 16.9557 192.787 9.11581 192.747 1.27869C192.744 0.571228 192.171 3.05176e-05 191.463 3.05176e-05H189.776ZM118.821 27.6102C118.911 30.6066 120.509 50.8298 123.094 50.8422C125.427 50.8532 127.156 30.7332 127.128 28.2419C127.099 25.8305 125.573 24.3551 123.127 24.2216C123.015 24.2161 122.903 24.2119 122.796 24.2119C120.521 24.2119 119.198 25.5333 118.821 27.6102ZM179.749 40.1298C176.979 40.1725 175.074 41.9439 175.122 45.7097C175.237 48.0853 176.876 61.3784 179.768 61.5531C182.753 61.7348 184.578 48.5078 184.676 45.5004C184.78 42.2797 182.986 40.1284 179.854 40.1284C179.819 40.1284 179.784 40.1284 179.749 40.1298ZM239.338 47.1865C238.633 47.1865 238.059 47.7549 238.054 48.4596C237.992 55.9747 237.875 71.108 237.882 71.163C237.992 71.9655 238.684 78.8459 240.374 78.8459C241.702 78.8459 242.586 72.9537 242.623 71.3929C242.661 69.682 242.676 69.1232 242.686 67.4124C242.722 61.1058 242.795 54.7951 242.877 48.4857C242.886 47.7701 242.31 47.1865 241.595 47.1865H239.338ZM110.807 50.9274C110.807 50.9274 110.786 72.3082 110.75 99.884C110.749 100.931 111.606 104.504 112.652 104.504C113.702 104.504 114.554 100.935 114.55 99.8853C114.437 72.3866 114.308 50.8422 114.308 50.8422C114.308 50.8422 113.968 50.4265 112.627 50.4265C110.701 50.4265 110.807 50.9274 110.807 50.9274ZM197.689 53.4738C195.808 53.5027 194.517 54.7056 194.549 57.2615C194.627 58.8747 195.739 65.1923 197.701 65.3134C199.729 65.4359 200.967 59.161 201.033 57.1185C201.103 54.9341 199.887 53.4724 197.762 53.4724C197.739 53.4724 197.714 53.4724 197.689 53.4738ZM163.699 79.2892C163.751 81.0496 164.69 86.2715 166.209 86.2784C167.578 86.2853 168.594 81.1239 168.577 79.6622C168.561 78.2445 167.665 77.3788 166.228 77.3003C166.161 77.2961 166.095 77.2948 166.03 77.2948C164.696 77.2948 163.919 78.0697 163.699 79.2892ZM171.888 83.2876C171.612 101.895 172.381 120.567 171.064 139.094C169.824 156.547 172.678 172.032 184.553 185.327C185.901 186.835 186.655 188.857 187.772 190.59C189.353 193.042 190.073 195.947 190.018 198.865C189.594 220.818 189.341 242.777 189.022 264.733C188.82 278.632 188.676 292.532 188.319 306.426C188.251 308.991 188.697 312.101 184.943 313.992C177.842 307.097 174.388 297.214 168.397 289.378C163.234 282.622 161.955 275.359 162.159 267.228C162.446 255.686 162.089 244.129 162.252 232.579C162.306 228.849 161.099 226.115 158.446 223.557C151.517 216.88 144.888 209.891 137.926 203.252C135.098 200.554 133.518 196.81 133.545 192.902C133.697 170.73 133.584 148.557 133.496 126.385C133.489 124.419 134.215 121.471 130.998 121.479C128.065 121.485 128.964 124.256 128.958 125.971C128.879 149.285 128.913 172.601 128.812 195.915C128.797 199.6 130.083 202.441 132.611 205.049C139.602 212.265 146.355 219.714 153.421 226.854C155.499 228.955 156.686 231.784 156.632 234.739C156.43 245.852 157.189 257.023 156.324 268.072C155.41 279.749 160.104 289.028 165.672 298.571C169.633 305.356 173.845 312.204 176.595 321.247C160.315 315.455 152.082 299.03 140.423 288.361C137.134 285.351 133.675 284.256 128.985 284.333C117.372 284.524 105.197 287.464 94.119 283.361C83.5403 275.311 51.339 252.504 46.2044 254.252V254.253C58.1524 269.795 77.324 278.113 94.218 288.229C101.55 291.487 109.483 290.239 116.898 289.53C128.843 288.388 137.539 292.115 144.904 301.474C150.331 308.371 157.126 314.188 162.667 321.708C160.741 322.344 155.636 321.772 155.135 321.452C154.773 321.221 154.061 320.971 153.705 320.731C146.927 316.164 138.087 316.906 129.852 317.052C109.787 317.403 89.7124 317.326 69.6436 317.484C67.0495 317.505 64.9935 316.971 62.698 315.38C43.9365 302.366 25.0195 289.579 6.07224 276.838C1.80608 273.97 -2.8936 275.861 2.25608 279.374C21.3795 292.424 40.4754 305.512 59.5121 318.689C63.0104 321.11 66.6517 322.061 70.8863 322.04C82.8012 321.978 94.7162 321.996 106.631 322.011C115.428 322.022 124.224 322.035 133.021 322.015C138.243 322.004 143.177 323.22 147.969 325.06C153.08 327.024 148.989 327.638 146.597 329.233C146.457 329.328 145.621 329.742 145.46 329.818C139.371 332.678 132.578 332.249 125.931 332.22C104.574 332.128 83.2182 332.206 61.8627 332.356C61.4044 332.36 60.8801 332.304 60.3365 332.25C58.2447 332.037 55.8625 331.822 55.8859 334.938C55.9051 337.713 58.0575 337.465 59.9608 337.217C60.514 337.146 61.0452 337.073 61.4966 337.074C78.3493 337.146 95.202 337.14 112.055 337.135C119.335 337.132 126.615 337.129 133.896 337.133C138.91 337.135 143.558 335.878 147.891 333.388C148.243 333.158 148.939 332.69 149.289 332.458C151.393 332.242 153.322 331.856 155.329 331.415C157.681 330.9 159.933 330.43 161.399 330.695C172.878 332.776 183.78 339.634 183.85 352.559C183.948 370.91 183.417 389.286 184.249 407.604C184.849 420.791 172.076 435.813 164.611 442.411C163.318 443.555 145.482 449.011 147.445 451H228.522C225.539 446.699 205.664 434.602 200.926 431.798C199.112 429.483 199.225 426.601 199.226 423.856C199.237 400.206 199.318 376.554 199.287 352.904C199.283 349.741 200.066 347.13 202.305 344.825C210.456 336.433 226.929 332.71 237.589 336.777C242.763 338.752 247.881 341.038 253.572 341.033C276.865 341.009 300.157 340.974 323.451 340.852C323.849 340.851 324.269 340.881 324.695 340.913C326.537 341.044 328.498 341.175 329.474 338.689C328.644 336.292 326.633 336.489 324.778 336.685C324.254 336.74 323.739 336.796 323.27 336.792C318.051 336.755 312.83 336.776 307.61 336.796C300.007 336.825 292.405 336.855 284.807 336.703C281.055 336.628 277.292 336.719 273.525 336.81C261.77 337.091 250.006 337.371 238.681 332.645C235.888 331.479 233.398 330.285 238.004 328.041C241.582 327.528 245.199 327.116 248.8 327.095C268.664 326.974 288.529 326.959 308.393 326.99C312.135 326.995 315.448 326.285 318.595 324.021C333.499 313.296 348.534 302.751 363.464 292.062C364.833 291.082 367.861 290.397 366.381 287.995C364.537 285.007 362.637 287.907 361.149 288.937C346.94 298.792 332.756 308.684 318.686 318.737C314.223 321.924 309.65 323.105 303.632 322.368C285.967 320.201 268.161 320.097 250.525 322.482C245.114 323.214 239.74 322.736 234.125 324.739C233.815 324.849 233.148 324.866 232.823 324.921C231.878 325.133 224.475 327.331 222.365 324.577C228.141 313.345 239.775 306.476 248.321 297.324C250.027 295.501 252.234 295.959 254.345 295.962C263.542 295.976 272.736 296.013 281.932 295.985C282.247 295.985 282.588 296.009 282.934 296.033C284.547 296.145 286.292 296.255 286.389 293.839C286.493 291.277 284.478 291.307 282.781 291.337C282.558 291.341 282.343 291.345 282.137 291.343C278.8 291.312 275.46 291.338 272.123 291.363C266.047 291.411 259.972 291.457 253.913 291.169C248.291 290.904 244.105 292.825 240.119 296.464C229.383 306.265 218.507 315.915 207.633 325.564C205.967 327.04 204.882 327.696 201.363 329.709C201.318 329.735 200.385 330.209 200.157 329.923C195.9 324.584 204.296 317.475 206.586 311.631C216.576 286.147 226.611 260.703 222.636 232.384C221.841 226.715 224.267 221.992 227.525 217.571C231.072 212.753 234.425 207.788 238.052 203.031C240.77 199.468 241.882 195.637 241.908 191.138C242.094 158.399 242.371 125.662 242.642 92.925C242.649 92.0138 241.913 91.2719 241.002 91.2719H239.369C238.505 91.2719 237.801 91.9656 237.788 92.83C237.444 117.606 237.024 142.385 237.867 167.122C238.551 187.206 235.208 204.669 220.38 218.926C217.746 221.458 217.04 224.642 217.07 228.266C217.147 237.889 216.995 247.516 216.861 257.141C216.66 271.47 209.355 283.04 202.115 294.609C201.758 295.179 200.276 296.661 199.32 294.767C198.811 293.76 199.346 292.002 199.316 290.367C198.79 261.282 198.164 232.2 197.794 203.113C197.706 196.244 196.415 190.219 191.832 184.742C187.182 179.186 183.41 172.901 179.061 167.08C177.092 164.442 176.058 161.222 176.075 157.929C176.189 133.008 176.157 108.084 176.095 83.1623C176.09 81.223 177.155 77.9871 174.228 77.8591C174.145 77.855 174.064 77.8536 173.987 77.8536C170.563 77.8536 171.917 81.3263 171.888 83.2876ZM179.152 88.2728C179.204 90.0332 180.143 97.0527 181.662 97.0596C183.033 97.0665 184.047 90.1075 184.03 88.6444C184.014 87.2295 183.118 86.3624 181.681 86.284C181.614 86.2798 181.549 86.2784 181.485 86.2784C180.15 86.2784 179.375 87.0547 179.152 88.2728ZM257.702 92.022C255.95 94.2477 256.68 96.9096 256.665 99.3458C256.473 129.279 256.307 159.214 256.309 189.149C256.309 194.521 255.165 198.989 251.375 203.121C245.894 209.096 241.039 215.644 235.907 221.94C234.265 223.951 232.659 226.04 232.633 228.745C232.555 236.841 232.604 244.938 232.604 253.037C239.301 253.037 245.471 253.074 251.645 253.017C253.815 252.998 255.696 252.341 257.426 250.757C269.094 240.082 280.846 229.499 292.61 218.926C295.098 216.689 296.533 214.329 296.524 210.672C296.427 177.956 296.603 145.243 296.502 112.529C296.495 109.999 298.43 105.289 294.425 105.248C291.077 105.213 292.749 109.799 292.731 112.241C292.511 144.1 292.383 175.959 292.452 207.818C292.463 212.539 290.896 215.778 287.324 218.787C278.337 226.358 269.04 233.707 261.006 242.221C253.879 249.775 245.92 249.696 237.261 248.466C235.018 236.311 236.396 225.519 245.865 216.602C250.179 212.538 253.467 207.385 257.252 202.751C259.352 200.181 260.55 197.345 260.556 193.96C260.594 161.458 260.682 128.957 260.725 96.4568C260.729 94.4899 261.242 92.0179 257.94 92.0179C257.863 92.0179 257.783 92.0193 257.702 92.022ZM230.841 92.5685C228.96 92.5974 227.668 93.8004 227.701 96.3563C227.778 97.968 228.89 106.274 230.854 106.394C232.881 106.517 234.118 98.2557 234.185 96.2132C234.256 94.0288 233.039 92.5671 230.913 92.5671C230.889 92.5671 230.865 92.5671 230.841 92.5685ZM111.836 109.045C111.232 109.045 110.742 109.528 110.741 110.134C110.703 139.383 110.648 170.717 110.585 193.954C110.574 197.9 111.858 200.866 114.664 203.574C121.121 209.806 126.891 216.861 133.873 222.411C141.735 228.661 142.617 236.202 140.751 246.02H121.264C110.542 236.97 98.2806 230.106 87.0138 221.827C85.8247 220.953 84.3921 219.753 83.1577 221.472C81.4925 223.79 83.6118 224.954 85.1022 226.002C94.836 232.831 104.322 240.027 114.645 245.981C116.311 247.619 117.807 249.576 120.449 249.585C128.711 249.611 136.973 249.594 145.62 249.594C145.62 242.955 145.629 236.993 145.613 231.032C145.609 229.499 145.179 228.2 144.007 227.023C136.037 219.033 128.321 210.778 120.14 203.013C116.266 199.338 114.641 195.56 114.665 190.151C114.763 168.02 114.685 138.329 114.577 110.132C114.575 109.528 114.085 109.045 113.482 109.045H111.836ZM219.884 114.547C219.841 123.293 219.796 132.039 219.766 140.784C219.76 142.336 220.802 148.849 222.24 148.849C224.032 148.849 224.648 142.48 224.666 140.645C224.709 136.379 224.68 132.112 224.68 127.845H224.71C224.71 123.365 224.724 118.886 224.702 114.406C224.695 112.851 224.518 111.297 222.493 111.146C222.372 111.136 222.255 111.132 222.145 111.132C219.967 111.132 219.894 112.844 219.884 114.547ZM189.649 116.274C188.931 116.274 188.35 116.856 188.352 117.575C188.364 125.986 188.313 134.395 188.079 142.799C187.761 154.215 188.232 165.014 196.585 173.844C197.856 175.183 197.58 179.009 200.662 177.446C204.153 175.674 201.369 173.165 200.103 171.705C192.839 163.313 192.176 153.516 192.3 142.95C192.399 134.494 192.465 126.039 192.524 117.584C192.528 116.862 191.943 116.274 191.222 116.274H189.649ZM90.2877 129.248C90.1253 132.543 92.0258 142.405 95.3424 142.49C98.1154 142.56 100.132 133.466 100.383 130.375C100.654 127.05 98.798 125.262 95.3534 124.843C92.8364 125.176 90.4487 125.965 90.2877 129.248ZM143.551 130.799C143.584 133.742 145.632 139.901 148.616 140.062C151.638 140.226 153.198 134.226 153.682 131.572C153.571 127.918 151.623 125.977 148.468 125.962C148.459 125.962 148.448 125.962 148.437 125.962C145.609 125.962 143.516 127.774 143.551 130.799ZM70.0537 143.499C69.272 143.799 68.8371 144.678 68.8055 145.514C68.7491 147.051 69.3036 148.553 69.2555 150.152C69.2004 151.973 68.961 153.783 68.9596 155.605C68.9569 158.892 68.9541 162.18 68.9527 165.468C68.9486 172.193 68.9431 178.918 68.939 185.643C68.9335 193.533 68.8578 201.422 68.7711 209.312C68.7381 212.348 68.7023 215.386 68.6678 218.422C68.6568 219.407 68.6458 220.393 68.6348 221.378C68.6018 224.574 67.7114 228.655 69.0009 231.659C69.9229 233.804 71.9156 235.262 73.8189 236.614C83.4357 243.442 93.0524 250.27 102.668 257.098C103.948 258.007 105.307 258.945 106.869 259.093C108.431 259.237 110.216 258.254 110.358 256.691C103.056 251.206 95.7442 245.714 88.0197 240.845C83.0352 237.702 76.5245 234.411 74.2799 228.613C73.2368 225.916 72.9368 222.996 72.7772 220.109C72.1785 209.297 72.7358 198.382 72.3464 187.568C72.0023 178.062 71.9322 168.546 72.3547 159.044C72.5198 155.311 72.462 151.473 72.8996 147.779C73.0207 146.75 73.0648 145.657 72.6051 144.729C72.2322 143.979 71.4271 143.395 70.6207 143.395C70.4294 143.394 70.2381 143.427 70.0537 143.499ZM150.218 166.75C149.002 167.706 148.69 168.88 149.594 170.038C154.277 176.043 168.606 191.208 173.479 197.059C174.793 198.638 176.731 199.221 178.169 196.624C178.171 196.096 178.435 195.273 178.134 194.879C173.249 188.494 158.695 172.973 153.657 166.706C153.256 166.208 152.729 165.982 152.159 165.98C151.526 165.98 150.842 166.259 150.218 166.75ZM212.305 177.589C211.916 180.434 214 187.839 216.611 187.843C219.766 187.85 220.576 180.587 220.936 178.413C221.194 175.311 219.808 173.87 217.32 173.677C217.148 173.663 216.98 173.658 216.815 173.658C214.357 173.658 212.647 175.107 212.305 177.589ZM279.804 181.54C278.999 185.177 278.666 188.918 278.819 192.638C278.994 196.884 279.338 202.391 277.938 205.214C276.39 208.337 271.184 211.846 267.6 214.567C264.693 216.776 261.833 219.106 259.455 221.895C257.486 224.2 254.045 226.978 254.133 230.284C254.139 230.491 254.161 230.708 254.24 230.898C254.267 230.962 254.302 231.025 254.345 231.085C254.773 231.657 255.676 231.418 256.307 231.083C259.909 229.174 262.648 226.011 265.639 223.243C269.674 219.509 274.287 216.403 278.039 212.385C282.353 207.763 284.804 202.094 284.25 195.723C283.888 191.572 283.812 187.703 283.933 183.502C283.962 182.485 283.978 181.412 283.495 180.518C283.045 179.686 282.484 179.351 281.933 179.351C280.987 179.349 280.07 180.347 279.804 181.54ZM155.581 195.958C152.817 196.37 150.026 197.785 152.069 200.945C154.343 204.464 157.298 207.776 160.617 210.314C163.188 212.281 165.09 209.848 166.179 207.893C166.15 205.666 157.394 195.954 155.641 195.954C155.621 195.954 155.6 195.955 155.581 195.958ZM89.3065 201.082C89.2376 203.958 90.7859 206.174 93.8052 206.292C96.9897 206.416 98.8875 204.503 99.3581 201.36C99.0361 198.27 97.3406 196.503 94.3791 196.47C94.3502 196.47 94.3213 196.47 94.2924 196.47C91.4203 196.469 89.3794 198.047 89.3065 201.082ZM316.696 206.884C316.561 210.03 318.72 211.986 321.956 211.895C324.935 211.811 326.46 209.917 326.626 206.874C326.443 203.901 324.832 202.299 321.786 202.285C321.775 202.285 321.764 202.285 321.753 202.285C318.721 202.285 316.811 204.179 316.696 206.884ZM36.8161 218.297C36.8753 221.169 38.3258 223.338 41.3878 223.439C44.6149 223.545 46.6008 221.79 46.6503 218.396C46.6971 215.181 44.7113 213.921 41.7979 213.687C38.9203 213.918 36.7501 215.068 36.8161 218.297ZM105.153 220.363C105.159 223.135 106.655 224.967 109.458 224.79C112.018 224.629 113.913 223.051 113.926 220.243C113.939 217.465 112.261 216.015 109.428 215.693C106.978 216.242 105.145 217.523 105.153 220.363ZM298.219 254.874C298.219 262.67 322.521 238.246 333.29 229.221C334.611 228.114 334.805 226.757 332.836 224.814C320.771 234.107 308.989 243.849 298.219 254.874ZM368.305 237.808C368.005 240.595 369.876 242.327 372.387 242.622C375.244 242.959 376.388 240.747 377 238.207C376.729 236.004 375.987 233.943 373.326 233.899C373.283 233.899 373.239 233.899 373.196 233.899C370.707 233.899 368.6 235.068 368.305 237.808ZM338.274 241.796C324.739 252.578 311.232 263.402 297.868 274.398C293.325 278.136 288.546 279.162 281.961 277.952C277.078 277.056 272.125 277.451 267.26 278.434C265.488 278.791 261.84 277.774 262.052 281.06C262.181 283.066 263.977 283.02 265.485 283.027C269.76 283.046 274.034 283.033 280.242 283.033C281.738 282.776 283.483 282.932 285.366 283.089C289.31 283.416 293.863 283.744 298.025 280.263C312.282 268.338 326.793 256.716 341.163 244.926C342.532 243.802 345.071 242.666 343.373 240.437C342.707 239.563 342.104 239.236 341.552 239.236C340.26 239.236 339.236 241.029 338.274 241.796ZM57.3584 241.763C55.5253 244.24 58.3947 245.446 60.0048 246.598C69.5349 253.408 79.6264 259.54 88.5399 267.07C96.8589 274.098 105.804 275.496 115.876 274.013C126.203 274.021 136.53 274.028 146.857 274.035C147.545 274.309 147.823 274.053 147.753 273.341C148.791 269.404 145.951 269.777 143.666 269.806C134.343 269.921 125.021 270.126 115.7 270.298C104.11 271.525 94.9488 266.502 86.2224 259.534C78.7484 253.566 70.717 248.289 62.8452 242.831C61.7581 242.078 60.4328 240.706 59.124 240.706C58.524 240.706 57.9281 240.993 57.3584 241.763ZM277.824 253.123C275.24 255.603 272.718 258.161 270.321 260.823C269.296 261.961 269.994 263.201 270.895 264.206C271.626 265.019 272.584 265.856 273.624 265.24C277.287 263.07 280.367 260.25 282.421 256.765C282.681 254.959 281.675 254.136 280.709 253.319C280.201 252.888 279.608 252.626 279.039 252.626C278.604 252.626 278.185 252.778 277.824 253.123ZM35.0271 265.475C47.7334 274.32 61.2778 281.824 74.5235 289.804C75.0107 290.098 75.6437 289.946 75.9437 289.461C76.069 289.259 76.1942 289.058 76.3194 288.855C76.6291 288.354 76.4722 287.699 75.9713 287.392C62.815 279.334 49.6601 271.272 36.5038 263.214C36.256 263.061 36.0097 262.995 35.7771 262.995C34.6197 262.995 33.8326 264.645 35.0271 265.475ZM339.792 274.007C326.853 282.508 314.846 292.285 302.507 301.606C302.053 301.952 301.96 302.595 302.297 303.054C302.437 303.244 302.579 303.437 302.719 303.627C303.067 304.1 303.733 304.201 304.206 303.85C316.584 294.64 328.963 285.431 341.342 276.222C342.496 275.363 341.687 273.766 340.55 273.766C340.307 273.766 340.05 273.839 339.792 274.007ZM33.0867 278.103C32.2431 279.398 32.3257 280.611 33.5505 281.418C39.9153 285.602 46.2801 289.789 52.773 293.766C54.5248 294.84 56.5478 294.77 57.0749 291.846C56.907 291.347 56.8919 290.482 56.4818 290.207C49.8046 285.728 43.1122 281.273 36.329 276.957C35.9946 276.743 35.6478 276.646 35.3037 276.646C34.478 276.646 33.6688 277.21 33.0867 278.103Z" fill="#F48400"/>
</g>
</svg>
