<svg width="252" height="55" viewBox="0 0 252 55" fill="none" xmlns="http://www.w3.org/2000/svg">
<path d="M64.0898 20.31H70.3698V28.28H64.0898V20.31Z" fill="#120123"/>
<path d="M54 20.31H60.28V28.28H54V20.31Z" fill="#120123"/>
<path d="M82.4785 23.0513C83.7887 23.0513 84.8594 23.4219 85.6904 24.1631C86.5215 24.9043 86.937 26.091 86.937 27.7231V36H82.5459V29.0596C82.5459 28.2135 82.4224 27.5771 82.1753 27.1504C81.9357 26.7161 81.5464 26.499 81.0073 26.499C80.1763 26.499 79.6185 26.8397 79.334 27.521C79.0495 28.1948 78.9072 29.1644 78.9072 30.4297V36H74.5161V23.2759H77.8291L78.4243 24.9604H78.5928C78.8623 24.5562 79.1842 24.2118 79.5586 23.9272C79.9329 23.6427 80.3634 23.4256 80.8501 23.2759C81.3368 23.1261 81.8796 23.0513 82.4785 23.0513ZM97.5592 36.2246C96.2715 36.2246 95.1522 35.9963 94.2013 35.5396C93.2505 35.0754 92.513 34.3641 91.9889 33.4058C91.4723 32.4399 91.214 31.2046 91.214 29.6997C91.214 28.1574 91.5023 26.8958 92.0788 25.915C92.6628 24.9342 93.4601 24.2118 94.4709 23.7476C95.4816 23.2834 96.6271 23.0513 97.9074 23.0513C98.686 23.0513 99.4235 23.1374 100.12 23.3096C100.824 23.4818 101.475 23.7176 102.074 24.0171L100.782 27.2627C100.258 27.0306 99.7679 26.8472 99.3112 26.7124C98.862 26.5701 98.394 26.499 97.9074 26.499C97.4657 26.499 97.0763 26.6151 96.7394 26.8472C96.4025 27.0793 96.1405 27.4312 95.9533 27.9028C95.7661 28.367 95.6725 28.9585 95.6725 29.6772C95.6725 30.411 95.7661 31.0024 95.9533 31.4517C96.1479 31.9009 96.4137 32.2266 96.7506 32.4287C97.095 32.6309 97.4881 32.7319 97.9298 32.7319C98.5662 32.7319 99.1989 32.6346 99.8278 32.4399C100.464 32.2378 101.067 31.9608 101.636 31.6089V35.1016C101.112 35.446 100.52 35.7192 99.8615 35.9214C99.2026 36.1235 98.4352 36.2246 97.5592 36.2246ZM118.154 29.6099C118.154 30.673 118.008 31.6164 117.716 32.4399C117.424 33.2635 117.001 33.9561 116.447 34.5176C115.893 35.0791 115.223 35.5059 114.437 35.7979C113.651 36.0824 112.763 36.2246 111.775 36.2246C110.854 36.2246 110.008 36.0824 109.237 35.7979C108.473 35.5059 107.807 35.0791 107.238 34.5176C106.669 33.9561 106.227 33.2635 105.913 32.4399C105.606 31.6164 105.452 30.673 105.452 29.6099C105.452 28.2023 105.707 27.0119 106.216 26.0386C106.733 25.0653 107.466 24.3241 108.417 23.8149C109.376 23.3058 110.517 23.0513 111.843 23.0513C113.063 23.0513 114.149 23.3058 115.099 23.8149C116.05 24.3241 116.795 25.0653 117.334 26.0386C117.881 27.0119 118.154 28.2023 118.154 29.6099ZM109.911 29.6099C109.911 30.3361 109.975 30.95 110.102 31.4517C110.229 31.9458 110.431 32.3239 110.708 32.5859C110.993 32.8405 111.363 32.9678 111.82 32.9678C112.277 32.9678 112.64 32.8405 112.909 32.5859C113.179 32.3239 113.374 31.9458 113.493 31.4517C113.621 30.95 113.684 30.3361 113.684 29.6099C113.684 28.8836 113.621 28.2772 113.493 27.7905C113.374 27.3039 113.175 26.937 112.898 26.6899C112.629 26.4429 112.262 26.3193 111.798 26.3193C111.131 26.3193 110.648 26.5964 110.349 27.1504C110.057 27.7044 109.911 28.5243 109.911 29.6099ZM130.472 23.0513C131.782 23.0513 132.853 23.4219 133.684 24.1631C134.515 24.9043 134.931 26.091 134.931 27.7231V36H130.54V29.0596C130.54 28.2135 130.416 27.5771 130.169 27.1504C129.929 26.7161 129.54 26.499 129.001 26.499C128.17 26.499 127.612 26.8397 127.328 27.521C127.043 28.1948 126.901 29.1644 126.901 30.4297V36H122.51V23.2759H125.823L126.418 24.9604H126.586C126.856 24.5562 127.178 24.2118 127.552 23.9272C127.927 23.6427 128.357 23.4256 128.844 23.2759C129.33 23.1261 129.873 23.0513 130.472 23.0513ZM149.214 32.0918C149.214 32.9004 149.034 33.6154 148.675 34.2368C148.316 34.8582 147.739 35.3449 146.945 35.6968C146.159 36.0487 145.122 36.2246 143.835 36.2246C142.929 36.2246 142.116 36.1759 141.398 36.0786C140.686 35.9813 139.964 35.7941 139.23 35.5171V32.002C140.031 32.3688 140.847 32.6346 141.678 32.7993C142.509 32.9565 143.165 33.0352 143.644 33.0352C144.138 33.0352 144.497 32.9827 144.722 32.8779C144.954 32.7656 145.07 32.6009 145.07 32.3838C145.07 32.1966 144.991 32.0394 144.834 31.9121C144.684 31.7773 144.411 31.6239 144.014 31.4517C143.625 31.2795 143.075 31.0474 142.363 30.7554C141.66 30.4634 141.072 30.1452 140.6 29.8008C140.136 29.4564 139.788 29.0446 139.556 28.5654C139.324 28.0863 139.208 27.4985 139.208 26.8022C139.208 25.5594 139.687 24.6235 140.645 23.9946C141.603 23.3657 142.873 23.0513 144.452 23.0513C145.291 23.0513 146.081 23.1449 146.822 23.332C147.563 23.5117 148.331 23.7775 149.124 24.1294L147.923 26.9595C147.294 26.675 146.657 26.4466 146.013 26.2744C145.369 26.1022 144.857 26.0161 144.475 26.0161C144.13 26.0161 143.865 26.061 143.677 26.1509C143.49 26.2407 143.397 26.3717 143.397 26.5439C143.397 26.7012 143.46 26.8397 143.588 26.9595C143.722 27.0793 143.973 27.2178 144.34 27.375C144.707 27.5322 145.242 27.7531 145.946 28.0376C146.687 28.3371 147.297 28.659 147.777 29.0034C148.263 29.3403 148.623 29.7521 148.855 30.2388C149.094 30.7254 149.214 31.3431 149.214 32.0918ZM159.735 32.7544C160.132 32.7544 160.495 32.7132 160.825 32.6309C161.154 32.5485 161.498 32.4437 161.858 32.3164V35.5171C161.379 35.7267 160.869 35.8952 160.33 36.0225C159.799 36.1572 159.117 36.2246 158.286 36.2246C157.463 36.2246 156.737 36.0973 156.108 35.8428C155.479 35.5807 154.988 35.1315 154.637 34.4951C154.292 33.8512 154.12 32.9565 154.12 31.811V26.5664H152.581V24.7808L154.535 23.3994L155.67 20.7266H158.545V23.2759H161.667V26.5664H158.545V31.519C158.545 31.9308 158.65 32.2415 158.859 32.4512C159.069 32.6533 159.361 32.7544 159.735 32.7544ZM173.603 23.0513C173.843 23.0513 174.093 23.07 174.355 23.1074C174.617 23.1374 174.812 23.1636 174.939 23.186L174.546 27.3301C174.404 27.2926 174.221 27.2627 173.996 27.2402C173.771 27.2103 173.457 27.1953 173.053 27.1953C172.776 27.1953 172.48 27.2215 172.165 27.2739C171.851 27.3263 171.552 27.4386 171.267 27.6108C170.99 27.7756 170.762 28.0301 170.582 28.3745C170.402 28.7114 170.312 29.1681 170.312 29.7446V36H165.921V23.2759H169.189L169.874 25.3086H170.088C170.32 24.8893 170.616 24.5112 170.975 24.1743C171.342 23.8299 171.75 23.5566 172.199 23.3545C172.656 23.1523 173.124 23.0513 173.603 23.0513ZM184.776 23.0513C186.385 23.0513 187.643 23.4518 188.549 24.2529C189.455 25.0465 189.908 26.1808 189.908 27.6558V36H186.864L186.022 34.3154H185.932C185.573 34.7646 185.202 35.1315 184.82 35.416C184.446 35.693 184.016 35.8952 183.529 36.0225C183.042 36.1572 182.447 36.2246 181.743 36.2246C181.01 36.2246 180.351 36.0749 179.767 35.7754C179.183 35.4759 178.722 35.0229 178.385 34.4165C178.048 33.8101 177.88 33.0426 177.88 32.1143C177.88 30.7516 178.352 29.7409 179.295 29.082C180.238 28.4232 181.605 28.0526 183.394 27.9702L185.517 27.9028V27.7231C185.517 27.1541 185.374 26.7498 185.09 26.5103C184.813 26.2707 184.439 26.1509 183.967 26.1509C183.465 26.1509 182.904 26.2407 182.282 26.4204C181.668 26.5926 181.051 26.8172 180.429 27.0942L179.16 24.1968C179.894 23.8224 180.725 23.5379 181.653 23.3433C182.582 23.1486 183.623 23.0513 184.776 23.0513ZM185.539 30.3174L184.528 30.3623C183.72 30.3923 183.151 30.5345 182.821 30.7891C182.499 31.0361 182.338 31.3918 182.338 31.856C182.338 32.2902 182.455 32.6121 182.687 32.8218C182.919 33.0239 183.226 33.125 183.608 33.125C184.139 33.125 184.592 32.9565 184.966 32.6196C185.348 32.2827 185.539 31.8447 185.539 31.3057V30.3174ZM199.149 23.2759V36H194.758V23.2759H199.149ZM196.97 18.1548C197.599 18.1548 198.145 18.2858 198.61 18.5479C199.081 18.8099 199.317 19.3302 199.317 20.1089C199.317 20.8651 199.081 21.3779 198.61 21.6475C198.145 21.9095 197.599 22.0405 196.97 22.0405C196.326 22.0405 195.776 21.9095 195.319 21.6475C194.87 21.3779 194.645 20.8651 194.645 20.1089C194.645 19.3302 194.87 18.8099 195.319 18.5479C195.776 18.2858 196.326 18.1548 196.97 18.1548ZM212.017 23.0513C213.327 23.0513 214.398 23.4219 215.229 24.1631C216.06 24.9043 216.476 26.091 216.476 27.7231V36H212.084V29.0596C212.084 28.2135 211.961 27.5771 211.714 27.1504C211.474 26.7161 211.085 26.499 210.546 26.499C209.715 26.499 209.157 26.8397 208.872 27.521C208.588 28.1948 208.446 29.1644 208.446 30.4297V36H204.055V23.2759H207.368L207.963 24.9604H208.131C208.401 24.5562 208.723 24.2118 209.097 23.9272C209.471 23.6427 209.902 23.4256 210.389 23.2759C210.875 23.1261 211.418 23.0513 212.017 23.0513ZM231.309 36H221.561V19.5811H231.309V23.1411H225.997V25.7241H230.916V29.2842H225.997V32.3838H231.309V36ZM249.961 27.4424C249.961 29.3516 249.606 30.9388 248.894 32.2041C248.183 33.4694 247.18 34.4202 245.885 35.0566C244.597 35.6855 243.081 36 241.336 36H236.024V19.5811H241.707C243.474 19.5811 244.971 19.8843 246.199 20.4907C247.427 21.0972 248.359 21.9844 248.995 23.1523C249.639 24.3203 249.961 25.7503 249.961 27.4424ZM245.357 27.5996C245.357 26.6038 245.222 25.7803 244.952 25.1289C244.69 24.4701 244.294 23.9797 243.762 23.6577C243.23 23.3283 242.56 23.1636 241.752 23.1636H240.46V32.3613H241.449C242.796 32.3613 243.784 31.972 244.413 31.1934C245.042 30.4072 245.357 29.2093 245.357 27.5996Z" fill="#120123"/>
<path d="M70.37 28.28C70.37 32.8 66.71 36.47 62.18 36.47C57.65 36.47 54 32.8 54 28.28H70.37Z" fill="#120123"/>
<path d="M22.873 0.838745C22.7879 0.838745 22.7189 0.907505 22.7184 0.992466C22.6963 4.72739 22.6981 8.46265 22.6864 12.1978C22.6859 12.3516 22.6882 12.5058 22.6942 12.6597C22.6994 12.7978 22.7418 14.1832 22.9079 14.1849C23.0637 14.1864 23.1385 12.8184 23.1479 12.6766C23.1614 12.4718 23.1656 12.2663 23.1656 12.0611L23.2424 3.81598C23.2424 2.87498 23.2347 1.93348 23.2299 0.992302C23.2295 0.907345 23.1606 0.838745 23.0756 0.838745H22.873ZM14.3507 4.1545C14.3615 4.51433 14.5534 6.94297 14.864 6.94445C15.1441 6.94578 15.3517 4.52954 15.3484 4.23036C15.345 3.94077 15.1616 3.76358 14.8679 3.74755C14.8544 3.74689 14.841 3.74639 14.8281 3.74639C14.5549 3.74639 14.396 3.90507 14.3507 4.1545ZM21.6687 5.65799C21.336 5.66311 21.1072 5.87584 21.113 6.32808C21.1267 6.61338 21.3236 8.20976 21.671 8.23075C22.0295 8.25257 22.2487 6.66411 22.2604 6.30295C22.273 5.91617 22.0575 5.65781 21.6812 5.65781C21.6771 5.65781 21.6728 5.65782 21.6687 5.65799ZM28.8258 6.50544C28.7412 6.50544 28.6722 6.5737 28.6716 6.65833C28.6641 7.56083 28.6501 9.3782 28.6509 9.38482C28.6641 9.48118 28.7473 10.3075 28.9503 10.3075C29.1098 10.3075 29.2159 9.59986 29.2204 9.41242C29.225 9.20696 29.2268 9.13985 29.228 8.93439C29.2323 8.17702 29.241 7.41917 29.2509 6.66147C29.2519 6.57552 29.1828 6.50544 29.0969 6.50544H28.8258ZM13.3881 6.9547C13.3881 6.9547 13.3856 9.52234 13.3813 12.834C13.3811 12.9597 13.4841 13.3888 13.6097 13.3888C13.7358 13.3888 13.8382 12.9602 13.8377 12.8341C13.8241 9.53176 13.8086 6.94445 13.8086 6.94445C13.8086 6.94445 13.7677 6.89454 13.6068 6.89454C13.3753 6.89454 13.3881 6.9547 13.3881 6.9547ZM23.8234 7.26049C23.5975 7.26396 23.4424 7.40842 23.4462 7.71537C23.4557 7.90909 23.5892 8.66778 23.8249 8.68233C24.0684 8.69704 24.2171 7.94348 24.2251 7.69818C24.2335 7.43587 24.0874 7.26032 23.8322 7.26032C23.8294 7.26032 23.8264 7.26033 23.8234 7.26049ZM19.7409 10.3607C19.7472 10.5721 19.8599 11.1992 20.0424 11.2C20.2068 11.2009 20.3288 10.581 20.3268 10.4055C20.3249 10.2352 20.2173 10.1313 20.0447 10.1218C20.0366 10.1214 20.0287 10.1212 20.0209 10.1212C19.8607 10.1212 19.7673 10.2142 19.7409 10.3607ZM20.7245 10.8409C20.6913 13.0755 20.7837 15.3178 20.6255 17.5428C20.4766 19.6387 20.8194 21.4984 22.2457 23.0949C22.4075 23.2761 22.4981 23.5189 22.6323 23.727C22.8223 24.0214 22.9087 24.3703 22.9021 24.7207C22.8512 27.3571 22.8208 29.9942 22.7824 32.6309C22.7581 34.3 22.7409 35.9693 22.698 37.6379C22.6899 37.9459 22.7434 38.3194 22.2925 38.5465C21.4396 37.7184 21.0247 36.5316 20.3052 35.5906C19.685 34.7792 19.5315 33.907 19.5559 32.9306C19.5905 31.5445 19.5475 30.1565 19.5672 28.7696C19.5736 28.3216 19.4286 27.9932 19.11 27.6861C18.2777 26.8842 17.4815 26.0449 16.6453 25.2475C16.3056 24.9235 16.1159 24.4739 16.1192 24.0047C16.1374 21.342 16.1238 18.6792 16.1132 16.0165C16.1124 15.7804 16.1997 15.4264 15.8132 15.4274C15.461 15.428 15.5689 15.7608 15.5683 15.9667C15.5587 18.7666 15.5628 21.5666 15.5507 24.3665C15.5489 24.809 15.7033 25.1502 16.007 25.4634C16.8466 26.33 17.6577 27.2246 18.5065 28.0819C18.7561 28.3343 18.8986 28.674 18.8921 29.0289C18.8678 30.3635 18.9591 31.705 18.8551 33.0319C18.7453 34.4343 19.3091 35.5485 19.9779 36.6946C20.4536 37.5093 20.9596 38.3318 21.2898 39.4178C19.3344 38.7223 18.3457 36.7497 16.9453 35.4685C16.5503 35.107 16.1347 34.9754 15.5714 34.9847C14.1767 35.0077 12.7143 35.3607 11.3837 34.868C10.1131 33.9012 6.24549 31.1623 5.62879 31.3722V31.3724C7.06385 33.2389 9.36652 34.2377 11.3956 35.4526C12.2763 35.8439 13.2291 35.6939 14.1197 35.6088C15.5544 35.4716 16.5989 35.9192 17.4835 37.0432C18.1352 37.8715 18.9515 38.57 19.6169 39.4732C19.3857 39.5495 18.7724 39.4808 18.7123 39.4424C18.6688 39.4147 18.5833 39.3846 18.5405 39.3558C17.7265 38.8074 16.6646 38.8965 15.6755 38.914C13.2656 38.9561 10.8545 38.9469 8.44403 38.9659C8.13246 38.9684 7.88551 38.9042 7.60981 38.7132C5.35639 37.1503 3.08429 35.6148 0.808553 34.0847C0.29615 33.7402 -0.268323 33.9673 0.350198 34.3891C2.64709 35.9564 4.94068 37.5282 7.22716 39.1105C7.64733 39.4013 8.08469 39.5155 8.59329 39.513C10.0244 39.5056 11.4555 39.5077 12.8866 39.5095C13.9431 39.5109 14.9997 39.5123 16.0562 39.51C16.6835 39.5087 17.2761 39.6547 17.8516 39.8757C18.4655 40.1115 17.9741 40.1853 17.6868 40.3768C17.6699 40.3882 17.5696 40.438 17.5503 40.4471C16.8189 40.7905 16.003 40.739 15.2046 40.7355C12.6395 40.7244 10.0745 40.7339 7.50948 40.7519C7.45443 40.7524 7.39146 40.7456 7.32617 40.7391C7.07492 40.7135 6.7888 40.6877 6.79161 41.062C6.79393 41.3952 7.05244 41.3654 7.28104 41.3357C7.34749 41.3271 7.41129 41.3183 7.46551 41.3185C9.48967 41.3271 11.5138 41.3264 13.538 41.3258C14.4124 41.3254 15.2868 41.3251 16.1613 41.3256C16.7635 41.3258 17.3218 41.1749 17.8422 40.8758C17.8845 40.8482 17.9681 40.792 18.0101 40.7641C18.2628 40.7381 18.4946 40.6919 18.7356 40.6388C19.0181 40.577 19.2886 40.5206 19.4647 40.5524C20.8434 40.8023 22.1528 41.6259 22.1613 43.178C22.173 45.3818 22.1092 47.5887 22.2092 49.7885C22.2813 51.3722 20.747 53.1762 19.8505 53.9686C19.6951 54.1059 17.5529 54.7612 17.7886 55H27.5268C27.1684 54.4835 24.7813 53.0307 24.2122 52.694C23.9943 52.416 24.0079 52.0699 24.0081 51.7403C24.0094 48.9001 24.0191 46.0597 24.0153 43.2195C24.0148 42.8397 24.1089 42.5261 24.3778 42.2492C25.3568 41.2415 27.3354 40.7943 28.6157 41.2828C29.2372 41.52 29.8519 41.7945 30.5354 41.7939C33.3331 41.7911 36.1307 41.7868 38.9286 41.7722C38.9764 41.772 39.0268 41.7757 39.078 41.7795C39.2992 41.7952 39.5347 41.8109 39.6519 41.5124C39.5522 41.2246 39.3107 41.2482 39.0879 41.2717C39.025 41.2783 38.9631 41.2851 38.9068 41.2846C38.28 41.2801 37.6529 41.2826 37.0259 41.2851C36.1127 41.2886 35.1996 41.2922 34.287 41.2739C33.8365 41.2649 33.3844 41.2758 32.932 41.2867C31.5201 41.3205 30.1072 41.3542 28.747 40.7866C28.4114 40.6466 28.1124 40.5031 28.6656 40.2337C29.0954 40.172 29.5298 40.1226 29.9624 40.1201C32.3482 40.1056 34.7342 40.1038 37.12 40.1074C37.5694 40.1081 37.9673 40.0228 38.3453 39.7509C40.1354 38.4629 41.9412 37.1966 43.7344 35.913C43.8989 35.7953 44.2626 35.7129 44.0849 35.4245C43.8634 35.0657 43.6351 35.4139 43.4564 35.5376C41.7498 36.7211 40.0461 37.909 38.3562 39.1163C37.8201 39.4991 37.2709 39.6409 36.5481 39.5523C34.4264 39.2922 32.2877 39.2796 30.1695 39.5661C29.5195 39.654 28.8741 39.5966 28.1997 39.8371C28.1625 39.8504 28.0823 39.8523 28.0433 39.859C27.9298 39.8844 27.0407 40.1484 26.7873 39.8176C27.481 38.4689 28.8784 37.6439 29.9048 36.5449C30.1096 36.3259 30.3748 36.3809 30.6283 36.3812C31.733 36.3829 32.8373 36.3873 33.9417 36.384C33.9796 36.384 34.0206 36.3868 34.0621 36.3898C34.2558 36.4032 34.4654 36.4164 34.4771 36.1263C34.4895 35.8186 34.2475 35.8222 34.0437 35.8258C34.017 35.8263 33.9912 35.8268 33.9664 35.8265C33.5655 35.8229 33.1644 35.826 32.7636 35.829C32.0338 35.8348 31.3042 35.8402 30.5764 35.8057C29.9012 35.7738 29.3984 36.0045 28.9197 36.4416C27.6301 37.6186 26.3238 38.7775 25.0178 39.9362C24.8177 40.1135 24.6874 40.1922 24.2648 40.434C24.2593 40.4371 24.1472 40.494 24.1198 40.4596C23.6085 39.8185 24.617 38.9647 24.892 38.2629C26.0919 35.2025 27.2972 32.1469 26.8198 28.7461C26.7243 28.0652 27.0157 27.4981 27.4069 26.9672C27.8331 26.3885 28.2357 25.7923 28.6714 25.2211C28.9979 24.7931 29.1314 24.3331 29.1346 23.7928C29.1569 19.8612 29.1901 15.9297 29.2227 11.9982C29.2235 11.8888 29.1351 11.7997 29.0256 11.7997H28.8296C28.7258 11.7997 28.6412 11.883 28.6397 11.9868C28.5984 14.9622 28.548 17.938 28.6491 20.9086C28.7313 23.3206 28.3298 25.4178 26.5488 27.1299C26.2324 27.434 26.1476 27.8163 26.1512 28.2515C26.1605 29.4072 26.1423 30.5633 26.1261 31.7192C26.102 33.44 25.2246 34.8295 24.355 36.2188C24.3122 36.2872 24.1342 36.4652 24.0193 36.2378C23.9581 36.1168 24.0224 35.9057 24.0188 35.7093C23.9557 32.2165 23.8805 28.7239 23.836 25.2308C23.8254 24.406 23.6704 23.6824 23.1199 23.0247C22.5614 22.3574 22.1084 21.6027 21.586 20.9037C21.3495 20.5868 21.2254 20.2002 21.2274 19.8046C21.2411 16.8119 21.2373 13.8188 21.2298 10.8258C21.2292 10.5929 21.3571 10.2043 21.0055 10.189C20.9956 10.1885 20.9859 10.1883 20.9766 10.1883C20.5654 10.1883 20.728 10.6053 20.7245 10.8409ZM21.5969 11.4396C21.6032 11.651 21.716 12.4939 21.8984 12.4948C22.0631 12.4956 22.1849 11.6599 22.1829 11.4842C22.1809 11.3143 22.0733 11.2101 21.9008 11.2007C21.8927 11.2002 21.8849 11.2 21.8771 11.2C21.7168 11.2 21.6237 11.2933 21.5969 11.4396ZM31.0315 11.8898C30.821 12.1571 30.9088 12.4768 30.907 12.7693C30.8839 16.3641 30.864 19.959 30.8642 23.5539C30.8642 24.1991 30.7268 24.7356 30.2716 25.2318C29.6133 25.9493 29.0301 26.7358 28.4137 27.4918C28.2165 27.7333 28.0236 27.9842 28.0205 28.309C28.0111 29.2813 28.017 30.2537 28.017 31.2263C28.8213 31.2263 29.5625 31.2307 30.304 31.224C30.5647 31.2217 30.7906 31.1428 30.9984 30.9526C32.3997 29.6706 33.8113 28.3996 35.2242 27.1299C35.5231 26.8613 35.6955 26.5778 35.6943 26.1386C35.6828 22.2098 35.7039 18.2811 35.6917 14.3525C35.6909 14.0487 35.9233 13.4831 35.4423 13.4781C35.0401 13.474 35.2409 14.0247 35.2388 14.3179C35.2123 18.1439 35.197 21.97 35.2052 25.796C35.2066 26.3629 35.0185 26.7518 34.5894 27.1132C33.51 28.0224 32.3933 28.9049 31.4283 29.9274C30.5723 30.8345 29.6164 30.8251 28.5764 30.6773C28.307 29.2177 28.4724 27.9216 29.6098 26.8508C30.128 26.3627 30.5229 25.7439 30.9774 25.1874C31.2296 24.8788 31.3736 24.5382 31.3743 24.1316C31.3789 20.2284 31.3895 16.3254 31.3946 12.4224C31.3951 12.1862 31.4568 11.8893 31.0601 11.8893C31.0508 11.8893 31.0412 11.8895 31.0315 11.8898ZM27.8053 11.9554C27.5793 11.9589 27.4241 12.1034 27.4281 12.4103C27.4374 12.6039 27.5709 13.6014 27.8068 13.6158C28.0503 13.6305 28.1989 12.6384 28.207 12.3931C28.2154 12.1308 28.0693 11.9553 27.8139 11.9553C27.8111 11.9553 27.8081 11.9553 27.8053 11.9554ZM13.5117 13.9341C13.4391 13.9341 13.3803 13.9921 13.3801 14.0649C13.3757 17.5775 13.3691 21.3404 13.3615 24.131C13.3601 24.6049 13.5144 24.9611 13.8514 25.2862C14.6269 26.0346 15.32 26.8819 16.1585 27.5484C17.1028 28.299 17.2088 29.2046 16.9847 30.3836H14.6441C13.3563 29.2968 11.8836 28.4725 10.5303 27.4783C10.3875 27.3733 10.2155 27.2292 10.0672 27.4356C9.8672 27.714 10.1217 27.8538 10.3008 27.9796C11.4699 28.7998 12.6092 29.6639 13.8491 30.379C14.0492 30.5757 14.2289 30.8107 14.5463 30.8117C15.5385 30.8149 16.5309 30.8129 17.5694 30.8129C17.5694 30.0155 17.5706 29.2996 17.5686 28.5838C17.5681 28.3996 17.5166 28.2436 17.3757 28.1023C16.4185 27.1428 15.4917 26.1513 14.5091 25.2189C14.0438 24.7776 13.8486 24.3239 13.8515 23.6743C13.8633 21.0166 13.8539 17.4509 13.841 14.0647C13.8406 13.9922 13.7818 13.9341 13.7094 13.9341H13.5117ZM26.4892 14.5948C26.4841 15.6452 26.4787 16.6955 26.475 17.7458C26.4744 17.932 26.5995 18.7142 26.7722 18.7142C26.9874 18.7142 27.0615 17.9494 27.0636 17.7291C27.0688 17.2167 27.0653 16.7043 27.0653 16.1919H27.0689C27.0689 15.6538 27.0706 15.116 27.0679 14.5779C27.0671 14.3912 27.0458 14.2046 26.8026 14.1864C26.7881 14.1852 26.774 14.1847 26.7608 14.1847C26.4992 14.1847 26.4904 14.3903 26.4892 14.5948ZM22.8578 14.8022C22.7715 14.8022 22.7018 14.8722 22.7019 14.9584C22.7034 15.9685 22.6973 16.9785 22.6692 17.9877C22.631 19.3587 22.6875 20.6556 23.6909 21.7159C23.8434 21.8767 23.8104 22.3362 24.1805 22.1485C24.5998 21.9357 24.2654 21.6344 24.1133 21.459C23.2409 20.4512 23.1613 19.2747 23.1761 18.0058C23.188 16.9904 23.196 15.975 23.2031 14.9596C23.2036 14.8728 23.1333 14.8022 23.0467 14.8022H22.8578ZM10.9236 16.3603C10.9041 16.756 11.1323 17.9403 11.5307 17.9506C11.8637 17.959 12.1059 16.8669 12.1362 16.4957C12.1687 16.0963 11.9457 15.8816 11.532 15.8313C11.2297 15.8713 10.9429 15.9661 10.9236 16.3603ZM17.321 16.5466C17.325 16.9 17.5709 17.6396 17.9293 17.659C18.2923 17.6786 18.4797 16.9581 18.5377 16.6395C18.5245 16.2006 18.2905 15.9675 17.9116 15.9657C17.9104 15.9657 17.9091 15.9657 17.9078 15.9657C17.5681 15.9657 17.3167 16.1833 17.321 16.5466ZM8.49329 18.0717C8.39941 18.1077 8.34717 18.2134 8.34337 18.3137C8.33659 18.4983 8.4032 18.6787 8.39742 18.8707C8.39081 19.0894 8.36205 19.3068 8.36188 19.5256C8.36155 19.9203 8.36122 20.3152 8.36105 20.7101C8.36056 21.5177 8.3599 22.3253 8.35941 23.1329C8.35874 24.0804 8.34965 25.0278 8.33924 25.9753C8.33527 26.3399 8.33097 26.7047 8.32684 27.0694C8.32552 27.1877 8.3242 27.3061 8.32287 27.4244C8.31891 27.8082 8.21196 28.2983 8.36684 28.659C8.47759 28.9167 8.71693 29.0917 8.94553 29.254C10.1006 30.074 11.2556 30.894 12.4105 31.7141C12.5643 31.8231 12.7276 31.9359 12.9152 31.9536C13.1028 31.9709 13.3172 31.8529 13.3342 31.6651C12.4571 31.0064 11.579 30.3469 10.6512 29.7621C10.0525 29.3848 9.27049 28.9896 9.0009 28.2932C8.87561 27.9694 8.83958 27.6186 8.8204 27.272C8.7485 25.9735 8.81544 24.6627 8.76866 23.364C8.72734 22.2225 8.71891 21.0797 8.76966 19.9385C8.78949 19.4902 8.78255 19.0294 8.83511 18.5858C8.84966 18.4621 8.85495 18.3309 8.79974 18.2195C8.75495 18.1294 8.65825 18.0593 8.56139 18.0593C8.53841 18.0592 8.51544 18.0631 8.49329 18.0717ZM18.1217 20.864C17.9757 20.9789 17.9382 21.1199 18.0468 21.2589C18.6093 21.98 20.3303 23.8012 20.9156 24.5039C21.0735 24.6935 21.3062 24.7635 21.4789 24.4516C21.4791 24.3882 21.5108 24.2893 21.4746 24.2421C20.888 23.4753 19.1399 21.6113 18.5348 20.8587C18.4867 20.7989 18.4233 20.7717 18.3549 20.7716C18.2789 20.7716 18.1967 20.805 18.1217 20.864ZM25.579 22.1657C25.5322 22.5073 25.7825 23.3966 26.0962 23.3971C26.475 23.3979 26.5724 22.5257 26.6155 22.2647C26.6466 21.8921 26.4802 21.719 26.1813 21.6959C26.1606 21.6942 26.1405 21.6936 26.1206 21.6936C25.8254 21.6936 25.62 21.8676 25.579 22.1657ZM33.6862 22.6402C33.5895 23.0769 33.5495 23.5262 33.5679 23.973C33.5888 24.4829 33.6302 25.1442 33.4621 25.4832C33.2761 25.8583 32.6508 26.2796 32.2204 26.6064C31.8711 26.8717 31.5277 27.1515 31.242 27.4864C31.0055 27.7633 30.5923 28.0968 30.6029 28.4938C30.6035 28.5188 30.6062 28.5448 30.6158 28.5676C30.6189 28.5753 30.6232 28.5829 30.6283 28.59C30.6797 28.6588 30.7882 28.63 30.864 28.5899C31.2966 28.3606 31.6255 27.9808 31.9849 27.6484C32.4695 27.1999 33.0236 26.8269 33.4741 26.3444C33.9923 25.7893 34.2867 25.1085 34.2201 24.3434C34.1766 23.8449 34.1675 23.3802 34.1821 22.8758C34.1856 22.7536 34.1875 22.6248 34.1295 22.5174C34.0755 22.4176 34.008 22.3772 33.9419 22.3772C33.8282 22.3771 33.7181 22.4969 33.6862 22.6402ZM18.7658 24.3716C18.4339 24.4211 18.0987 24.591 18.344 24.9705C18.6172 25.3931 18.9721 25.7908 19.3708 26.0956C19.6796 26.3318 19.908 26.0398 20.0387 25.8049C20.0353 25.5374 18.9837 24.3711 18.7731 24.3711C18.7706 24.3711 18.7681 24.3713 18.7658 24.3716ZM10.8057 24.987C10.7975 25.3323 10.9834 25.5984 11.3461 25.6126C11.7285 25.6275 11.9565 25.3978 12.013 25.0204C11.9743 24.6493 11.7707 24.4371 11.415 24.4331C11.4115 24.4331 11.408 24.4331 11.4046 24.4331C11.0596 24.433 10.8145 24.6225 10.8057 24.987ZM38.1172 25.6837C38.101 26.0616 38.3603 26.2965 38.7489 26.2855C39.1068 26.2755 39.2899 26.048 39.3099 25.6826C39.2879 25.3255 39.0944 25.1331 38.7286 25.1315C38.7273 25.1315 38.7259 25.1315 38.7246 25.1315C38.3605 25.1315 38.1311 25.3589 38.1172 25.6837ZM4.50117 27.0543C4.50827 27.3993 4.68249 27.6598 5.05026 27.6719C5.43787 27.6846 5.67639 27.4738 5.68234 27.0662C5.68796 26.6801 5.44944 26.5289 5.09952 26.5008C4.7539 26.5285 4.49323 26.6665 4.50117 27.0543ZM12.7091 27.3024C12.7097 27.6353 12.8894 27.8553 13.2261 27.8342C13.5335 27.8148 13.7611 27.6252 13.7628 27.288C13.7643 26.9545 13.5628 26.7803 13.2224 26.7416C12.9282 26.8075 12.7081 26.9614 12.7091 27.3024ZM35.898 31.4469C35.898 32.3832 38.8169 29.4501 40.1103 28.3662C40.2689 28.2333 40.2923 28.0704 40.0557 27.837C38.6066 28.953 37.1916 30.123 35.898 31.4469ZM44.3159 29.3975C44.2799 29.7322 44.5045 29.9401 44.8062 29.9755C45.1493 30.016 45.2867 29.7504 45.3603 29.4454C45.3277 29.1808 45.2386 28.9334 44.9189 28.9281C44.9138 28.9281 44.9085 28.9281 44.9034 28.9281C44.6044 28.9281 44.3513 29.0684 44.3159 29.3975ZM40.709 29.8763C39.0833 31.1712 37.461 32.4711 35.8558 33.7916C35.3102 34.2405 34.7361 34.3637 33.9452 34.2184C33.3588 34.1108 32.7639 34.1582 32.1796 34.2762C31.9667 34.3192 31.5285 34.1971 31.5539 34.5916C31.5695 34.8326 31.7852 34.827 31.9664 34.8278C32.4797 34.8301 32.9931 34.8286 33.7388 34.8286C33.9184 34.7977 34.128 34.8164 34.3542 34.8353C34.8279 34.8746 35.3748 34.9139 35.8747 34.4959C37.5871 33.0638 39.3299 31.6681 41.0559 30.2522C41.2204 30.1173 41.5253 29.9808 41.3214 29.7132C41.2414 29.6082 41.169 29.5689 41.1027 29.5689C40.9475 29.5689 40.8245 29.7843 40.709 29.8763ZM6.96848 29.8724C6.74831 30.1699 7.09294 30.3147 7.28633 30.453C8.43098 31.2709 9.64306 32.0073 10.7137 32.9116C11.7128 33.7556 12.7872 33.9235 13.997 33.7453C15.2374 33.7463 16.4777 33.7471 17.7181 33.748C17.8007 33.7809 17.8341 33.7501 17.8257 33.6647C17.9503 33.1919 17.6093 33.2367 17.3347 33.2402C16.2151 33.2539 15.0954 33.2785 13.9758 33.2992C12.5838 33.4466 11.4834 32.8433 10.4353 32.0066C9.5376 31.2899 8.57296 30.6562 7.62749 30.0006C7.49691 29.9102 7.33773 29.7454 7.18054 29.7454C7.10848 29.7454 7.03691 29.78 6.96848 29.8724ZM33.4484 31.2367C33.1379 31.5345 32.8351 31.8417 32.5472 32.1613C32.424 32.298 32.5078 32.447 32.6161 32.5676C32.7039 32.6653 32.8189 32.7658 32.9439 32.6918C33.3839 32.4313 33.7538 32.0926 34.0004 31.6741C34.0317 31.4572 33.9108 31.3583 33.7948 31.2602C33.7338 31.2084 33.6626 31.177 33.5943 31.177C33.5421 31.177 33.4917 31.1952 33.4484 31.2367ZM4.28629 32.72C5.81243 33.7822 7.43922 34.6834 9.03016 35.6417C9.08867 35.6771 9.16471 35.6587 9.20074 35.6005C9.21578 35.5763 9.23082 35.5521 9.24586 35.5278C9.28305 35.4677 9.26421 35.389 9.20404 35.3521C7.62386 34.3843 6.04384 33.4162 4.46365 32.4484C4.4339 32.4301 4.40431 32.4222 4.37637 32.4222C4.23736 32.4222 4.14282 32.6203 4.28629 32.72ZM40.8913 33.7447C39.3372 34.7655 37.895 35.9397 36.413 37.0591C36.3585 37.1006 36.3472 37.1778 36.3877 37.233C36.4046 37.2558 36.4216 37.2789 36.4385 37.3017C36.4803 37.3586 36.5603 37.3707 36.617 37.3285C38.1038 36.2225 39.5906 35.1166 41.0774 34.0106C41.2161 33.9075 41.1189 33.7157 40.9823 33.7157C40.9531 33.7157 40.9222 33.7245 40.8913 33.7447ZM4.05323 34.2366C3.9519 34.3921 3.96182 34.5377 4.10893 34.6346C4.87341 35.1371 5.63788 35.6399 6.41772 36.1176C6.62814 36.2465 6.87112 36.2381 6.93443 35.887C6.91426 35.827 6.91244 35.7232 6.86319 35.6901C6.06119 35.1523 5.25738 34.6172 4.44265 34.0989C4.40249 34.0733 4.36083 34.0615 4.31951 34.0615C4.22034 34.0615 4.12315 34.1293 4.05323 34.2366Z" fill="url(#paint0_radial_734_481)"/>
<defs>
<radialGradient id="paint0_radial_734_481" cx="0" cy="0" r="1" gradientUnits="userSpaceOnUse" gradientTransform="translate(22.825 36.178) scale(24.9594 24.9594)">
<stop stop-color="#F2CB05"/>
<stop offset="0.33393" stop-color="#F2CB05"/>
<stop offset="0.811796" stop-color="#F28705"/>
<stop offset="0.978645" stop-color="#D9042B"/>
<stop offset="1" stop-color="#D9042B"/>
</radialGradient>
</defs>
</svg>
