<svg width="120" height="120" viewBox="0 0 120 120" fill="none" xmlns="http://www.w3.org/2000/svg">
<circle cx="60" cy="60" r="60" fill="#FFF4E0"/>
<path d="M85.6284 46.0041C85.3927 46.0062 85.1624 45.9337 84.9704 45.797C84.7785 45.6603 84.6347 45.4663 84.5597 45.2428C84.2913 44.3872 83.9461 43.5576 83.5284 42.7641C83.4202 42.5525 83.3829 42.3117 83.4219 42.0772C83.4609 41.8428 83.5741 41.6271 83.745 41.4619C84.1246 41.0812 84.3378 40.5656 84.3378 40.028C84.3378 39.4904 84.1246 38.9747 83.745 38.5941L81.4012 36.2503C81.0206 35.8699 80.5045 35.6562 79.9664 35.6562C79.4283 35.6562 78.9122 35.8699 78.5316 36.2503C78.3647 36.4183 78.1492 36.5295 77.9155 36.5678C77.6819 36.6062 77.4421 36.5699 77.2303 36.4641C76.4373 36.0467 75.6083 35.7016 74.7534 35.4328C74.5299 35.3579 74.3358 35.2141 74.1989 35.0221C74.062 34.8302 73.9893 34.5998 73.9912 34.3641C73.9885 33.8286 73.7744 33.3159 73.3955 32.9375C73.0166 32.5591 72.5036 32.3457 71.9681 32.3438H68.6569C68.388 32.3451 68.1221 32.3996 67.8744 32.5042C67.6267 32.6087 67.4022 32.7612 67.2137 32.953C67.0252 33.1447 66.8765 33.3718 66.7762 33.6212C66.6758 33.8706 66.6258 34.1374 66.6291 34.4062C66.6316 34.6325 66.5622 34.8537 66.431 35.038C66.2997 35.2223 66.1134 35.3602 65.8988 35.4319C65.0327 35.7005 64.193 36.0475 63.39 36.4688C63.1778 36.5748 62.9375 36.611 62.7035 36.5723C62.4694 36.5336 62.2536 36.4219 62.0869 36.2531C61.7065 35.873 61.1907 35.6596 60.653 35.6596C60.1152 35.6596 59.5995 35.873 59.2191 36.2531L56.8753 38.5969C56.4954 38.9777 56.282 39.4937 56.282 40.0317C56.282 40.5697 56.4954 41.0857 56.8753 41.4666C57.0456 41.6318 57.1582 41.8474 57.1967 42.0815C57.2352 42.3156 57.1975 42.5558 57.0891 42.7669C56.6715 43.5601 56.3264 44.3894 56.0578 45.2447C55.9827 45.4683 55.8388 45.6624 55.6466 45.7993C55.4545 45.9362 55.224 46.0089 54.9881 46.0069C54.4525 46.0098 53.9397 46.2243 53.5615 46.6036C53.1833 46.9829 52.9702 47.4962 52.9688 48.0319V51.3431C52.9695 51.8807 53.1834 52.3961 53.5635 52.7762C53.9436 53.1563 54.459 53.3702 54.9966 53.3709C55.2323 53.3688 55.4626 53.4413 55.6546 53.578C55.8465 53.7147 55.9903 53.9087 56.0653 54.1322C56.3337 54.9878 56.6789 55.8174 57.0966 56.6109C57.2048 56.8225 57.2421 57.0633 57.2031 57.2978C57.1641 57.5322 57.0509 57.7479 56.88 57.9131C56.5004 58.2938 56.2872 58.8094 56.2872 59.347C56.2872 59.8846 56.5004 60.4003 56.88 60.7809L59.2238 63.1247C59.6044 63.5051 60.1205 63.7188 60.6586 63.7188C61.1967 63.7188 61.7128 63.5051 62.0934 63.1247C62.2603 62.9567 62.4758 62.8455 62.7095 62.8072C62.9431 62.7688 63.1829 62.8051 63.3947 62.9109C64.1877 63.3283 65.0167 63.6734 65.8716 63.9422C66.0951 64.0171 66.2892 64.1609 66.4261 64.3529C66.563 64.5448 66.6357 64.7752 66.6337 65.0109C66.6365 65.5464 66.8506 66.0591 67.2295 66.4375C67.6084 66.8159 68.1214 67.0293 68.6569 67.0312H71.9681C72.5057 67.0305 73.0211 66.8166 73.4012 66.4365C73.7813 66.0564 73.9952 65.541 73.9959 65.0034C73.994 64.7677 74.0667 64.5373 74.2036 64.3454C74.3405 64.1534 74.5346 64.0096 74.7581 63.9347C75.613 63.6659 76.442 63.3208 77.235 62.9034C77.4472 62.7974 77.6875 62.7612 77.9215 62.7999C78.1556 62.8386 78.3714 62.9503 78.5381 63.1191C78.9185 63.4991 79.4343 63.7126 79.972 63.7126C80.5098 63.7126 81.0255 63.4991 81.4059 63.1191L83.7497 60.7753C84.1296 60.3945 84.343 59.8784 84.343 59.3405C84.343 58.8025 84.1296 58.2865 83.7497 57.9056C83.5794 57.7404 83.4667 57.5249 83.428 57.2909C83.3894 57.0568 83.4269 56.8165 83.535 56.6053C83.9573 55.8018 84.3053 54.9615 84.5747 54.0947C84.6498 53.8758 84.7932 53.6869 84.9837 53.5556C85.1742 53.4243 85.4019 53.3576 85.6331 53.3653C86.1689 53.3633 86.6822 53.1497 87.0612 52.7709C87.4401 52.3921 87.654 51.8789 87.6562 51.3431V48.0319C87.6555 47.4943 87.4416 46.9789 87.0615 46.5988C86.6814 46.2187 86.166 46.0048 85.6284 46.0041Z" fill="#65788F"/>
<path d="M70.3125 59.8125C75.9044 59.8125 80.4375 55.2794 80.4375 49.6875C80.4375 44.0956 75.9044 39.5625 70.3125 39.5625C64.7206 39.5625 60.1875 44.0956 60.1875 49.6875C60.1875 55.2794 64.7206 59.8125 70.3125 59.8125Z" fill="#E6EEF3"/>
<path d="M76.6591 48.4453L75.4216 44.6653C75.3837 44.5479 75.3229 44.4392 75.2429 44.3453C75.1628 44.2515 75.0651 44.1743 74.9552 44.1183C74.8452 44.0623 74.7254 44.0286 74.6024 44.019C74.4794 44.0094 74.3557 44.0242 74.2385 44.0625L70.4585 45.3L71.0416 47.0812L72.6953 46.5394L70.8841 50.1919L68.9575 48.9075C68.852 48.8371 68.7333 48.7889 68.6086 48.7657C68.4839 48.7426 68.3558 48.745 68.232 48.7727C68.1083 48.8005 67.9915 48.8531 67.8886 48.9274C67.7858 49.0016 67.6991 49.096 67.6338 49.2047L64.8213 53.8922L66.4282 54.8578L68.7353 51.0141L70.7294 52.3434C70.8399 52.418 70.9652 52.4678 71.0968 52.4895C71.2283 52.5112 71.363 52.5042 71.4916 52.4691C71.6203 52.4348 71.7402 52.3735 71.8433 52.2893C71.9464 52.2051 72.0304 52.0998 72.0897 51.9806L74.3519 47.4253L74.8769 49.0303L76.6591 48.4453Z" fill="#D98285"/>
<path d="M57.1875 81.5625H62.8125V87.1875H57.1875V81.5625Z" fill="#95C0F8"/>
<path d="M67.5 76.875H73.125V87.1875H67.5V76.875Z" fill="#85ACDE"/>
<path d="M77.8125 72.1875H83.4375V87.1875H77.8125V72.1875Z" fill="#7698C4"/>
<path d="M45.825 63.6375L43.125 65.625H36.135C35.6869 65.6246 35.2452 65.7312 34.8466 65.936C34.4481 66.1408 34.1042 66.4379 33.8437 66.8025L31.875 71.25L32.3438 76.875H34.6875V72.1875L35.625 69.375V88.125H38.4375L39.2812 78C39.2812 77.9751 39.2911 77.9513 39.3087 77.9337C39.3263 77.9161 39.3501 77.9062 39.375 77.9062C39.3999 77.9062 39.4237 77.9161 39.4413 77.9337C39.4589 77.9513 39.4688 77.9751 39.4688 78L40.3125 88.125H43.125V69.375L47.8125 65.625L50.625 61.875L48.75 60L45.825 63.6375Z" fill="#FFAF04"/>
<path d="M39.3291 65.625C40.8824 65.625 42.1416 64.3658 42.1416 62.8125C42.1416 61.2592 40.8824 60 39.3291 60C37.7758 60 36.5166 61.2592 36.5166 62.8125C36.5166 64.3658 37.7758 65.625 39.3291 65.625Z" fill="#FFAF04"/>
</svg>
