<svg width="120" height="120" viewBox="0 0 120 120" fill="none" xmlns="http://www.w3.org/2000/svg">
<circle cx="60" cy="60" r="60" fill="#DEF5FF"/>
<path d="M77.0723 63H71.5723V67.5C71.5723 68.163 71.8357 68.7989 72.3045 69.2678C72.7733 69.7366 73.4092 70 74.0723 70V74H77.0723V63Z" fill="#FFB3D0"/>
<path d="M31 31H89V62H31V31Z" fill="#74C0FC"/>
<path d="M89 60H31V62H89V60ZM53.5 42H66.5V58H53.5V42Z" fill="#339AEF"/>
<path d="M61.25 40.5V42L60.0014 43L58.75 42V38.5L61.25 40.5Z" fill="#FFB3D0"/>
<path d="M61.5 87H68.5L66.5 85V58H53.5V87H60.5L58.5 85V64H61.5V87Z" fill="#1B53A6"/>
<path d="M50.965 43.7812L48.5 52L43.0937 39.8438L42.735 39.9525C42.5977 39.9943 42.4706 40.0642 42.3616 40.1576C42.2527 40.2511 42.1643 40.3661 42.102 40.4954C42.0398 40.6247 42.005 40.7655 41.9999 40.909C41.9948 41.0524 42.0195 41.1953 42.0725 41.3287L42.8125 43.1875L42.485 43.3025C42.2334 43.3909 42.0031 43.5309 41.8087 43.7135C41.6144 43.8961 41.4603 44.1173 41.3564 44.3629C41.2525 44.6085 41.2011 44.8731 41.2053 45.1397C41.2096 45.4063 41.2695 45.6691 41.3812 45.9112L45.5475 54.9375C45.8535 55.6006 46.3566 56.1532 46.9881 56.52C47.6196 56.8868 48.3488 57.0499 49.0764 56.9872C49.804 56.9245 50.4946 56.6389 51.054 56.1694C51.6134 55.7 52.0145 55.0694 52.2025 54.3638L54.7997 44.6262L50.965 43.7812Z" fill="#FFB3D0"/>
<path d="M45.99 46.355L42.3 47.8987H42.2987L41.3812 45.9112C41.2695 45.6691 41.2096 45.4063 41.2053 45.1397C41.2011 44.8731 41.2525 44.6085 41.3564 44.3629C41.4603 44.1173 41.6144 43.8961 41.8087 43.7135C42.0031 43.5309 42.2334 43.3909 42.485 43.3025L42.8125 43.1875L42.0725 41.3287C42.0195 41.1953 41.9948 41.0524 41.9999 40.909C42.005 40.7655 42.0398 40.6247 42.102 40.4954C42.1643 40.3661 42.2527 40.2511 42.3616 40.1576C42.4706 40.0642 42.5977 39.9943 42.735 39.9525L43.0937 39.8438L45.99 46.355Z" fill="#FFB3D0"/>
<path d="M55.5001 42L52.2026 54.3637C52.0145 55.0694 51.6134 55.6999 51.054 56.1693C50.4946 56.6387 49.8041 56.9242 49.0765 56.9869C48.3489 57.0497 47.6197 56.8865 46.9882 56.5198C46.3567 56.1531 45.8537 55.6005 45.5476 54.9375L42.2988 47.8987H42.3001L45.9901 46.355L48.5001 52L50.9651 43.7812C51.1197 43.2663 51.4361 42.8149 51.8676 42.494C52.299 42.1731 52.8224 41.9999 53.3601 42H55.5001Z" fill="#339AEF"/>
<path d="M58.5 45L59.5 46L59 47V60L60 62L61 60V47L60.5 46L61.5 45L60 43.5625L58.5 45Z" fill="#0E3E86"/>
<path d="M63.5 54V58H57C56.8674 58 56.7402 57.9473 56.6464 57.8536C56.5527 57.7598 56.5 57.6326 56.5 57.5V54.5C56.5 54.3674 56.5527 54.2402 56.6464 54.1464C56.7402 54.0527 56.8674 54 57 54H58.5V53.5263C58.4999 53.3 58.5764 53.0805 58.7172 52.9034C58.8579 52.7263 59.0546 52.6021 59.275 52.5513L59.5 52.5L59.8337 54H63.5Z" fill="#FFB3D0"/>
<path d="M70.945 55.0387C71.0128 55.3999 71.0002 55.7715 70.908 56.1271C70.8158 56.4828 70.6464 56.8138 70.4117 57.0965C70.1771 57.3793 69.883 57.6068 69.5504 57.763C69.2178 57.9191 68.8549 58.0001 68.4875 58H63.5V54H66.5L64.5 42H66.425C67.0081 41.9997 67.573 42.2033 68.0219 42.5757C68.4707 42.948 68.7751 43.4656 68.8825 44.0388L70.945 55.0387Z" fill="#339AEF"/>
<path d="M66.5004 54.5H63.9795C63.8469 54.5 63.7197 54.4473 63.6259 54.3536C63.5322 54.2598 63.4795 54.1326 63.4795 54C63.4795 53.8674 63.5322 53.7402 63.6259 53.6464C63.7197 53.5527 63.8469 53.5 63.9795 53.5H65.9101L64.6976 46.2224C64.6772 46.0922 64.709 45.9592 64.7861 45.8523C64.8632 45.7454 64.9794 45.6733 65.1094 45.6516C65.2395 45.63 65.3728 45.6605 65.4804 45.7367C65.5879 45.8128 65.6611 45.9283 65.684 46.0581L66.9939 53.9179C67.0058 53.9895 67.002 54.0629 66.9827 54.1329C66.9634 54.203 66.929 54.2679 66.882 54.3233C66.8351 54.3787 66.7766 54.4232 66.7107 54.4537C66.6448 54.4843 66.573 54.5 66.5004 54.5Z" fill="#1D7ED7"/>
<path d="M58.5 86H53.5V64C53.7912 64 54.075 64.0916 54.3113 64.2619C54.5475 64.4322 54.7242 64.6725 54.8162 64.9487L55.5 67H56.25C56.8467 67 57.419 67.2371 57.841 67.659C58.2629 68.081 58.5 68.6533 58.5 69.25V86Z" fill="#FF9AC0"/>
<path d="M35.5 71V80H29.5V74.4062C29.5 73.5029 29.8589 72.6365 30.4977 71.9977C31.1365 71.3589 32.0029 71 32.9062 71H35.5Z" fill="#06B790"/>
<path d="M35.5 80V89H29.5V80H35.2262H35.5ZM81.7862 63.55L79 74H85L87.44 64.8487L88.6037 60.4837C88.8622 59.5169 88.8239 58.4947 88.4937 57.55L83.35 42.7962C83.2724 42.5735 83.1186 42.3853 82.9157 42.265C82.7128 42.1447 82.4739 42.1 82.2412 42.1387L78.1412 42.8225C78.005 42.8451 77.875 42.8957 77.7593 42.9711C77.6437 43.0464 77.5448 43.1449 77.4691 43.2604C77.3934 43.3758 77.3423 43.5056 77.3193 43.6418C77.2962 43.7779 77.3015 43.9173 77.335 44.0512L77.8225 46H76.7337C76.5584 46.0001 76.3902 46.0697 76.2662 46.1937C76.1422 46.3177 76.0725 46.4859 76.0725 46.6612V47L79 48L83 59L81.7862 63.55Z" fill="#FFB3D0"/>
<path d="M87.44 64.8487L85 74H79L81.7863 63.55L87.44 64.8487Z" fill="#06B790"/>
<path d="M85.0727 71V89H68.0727V71.0143L85.0727 71ZM50.5 71V89H33.5V71.0143L50.5 71Z" fill="#06B790"/>
<path d="M70.0723 62.6562C70.0723 63.1452 70.2665 63.6142 70.6123 63.96C70.9581 64.3058 71.427 64.5 71.916 64.5H74.5723L74.5686 66.9945C74.5684 67.1921 74.6071 67.3878 74.6825 67.5705C74.758 67.7531 74.8687 67.9191 75.0083 68.0589C75.1479 68.1988 75.3138 68.3097 75.4963 68.3854C75.6789 68.461 75.8745 68.5 76.0721 68.5C76.7352 68.5 77.3711 68.2366 77.8399 67.7678C78.3087 67.2989 78.5721 66.663 78.5721 66V63.5C78.5721 62.837 78.3087 62.2011 77.8399 61.7322C77.3711 61.2634 76.7352 61 76.0721 61H71.7283C71.5108 61 71.2954 61.0428 71.0945 61.1261C70.8936 61.2093 70.711 61.3313 70.5572 61.4851C70.4034 61.6389 70.2815 61.8215 70.1982 62.0224C70.115 62.2234 70.0722 62.4388 70.0723 62.6562Z" fill="#0E3E86"/>
<path d="M69 71V80H63V74.75C63 73.7554 63.3951 72.8016 64.0984 72.0984C64.8016 71.3951 65.7554 71 66.75 71H69Z" fill="#06B790"/>
<path d="M69 80V89H63V80H63.0913H69ZM41 63V72H44V70C44.663 70 45.2989 69.7366 45.7678 69.2678C46.2366 68.7989 46.5 68.163 46.5 67.5V63H41Z" fill="#FFB3D0"/>
<path d="M74.5759 67.7209C75.2644 67.7209 75.8226 67.1627 75.8226 66.4741C75.8226 65.7856 75.2644 65.2274 74.5759 65.2274C73.8873 65.2274 73.3291 65.7856 73.3291 66.4741C73.3291 67.1627 73.8873 67.7209 74.5759 67.7209Z" fill="#FFB3D0"/>
<path d="M55.5173 74.6613L58.4823 85.3363C58.682 86.0732 58.582 86.8591 58.2041 87.5226C57.8263 88.186 57.2013 88.673 56.4657 88.8772C55.73 89.0814 54.9434 88.9863 54.2777 88.6126C53.6119 88.2388 53.1211 87.6169 52.9123 86.8825L49.8887 76L55.5173 74.6613Z" fill="#FFB3D0"/>
<path d="M55.5175 74.6613L56.2862 77.4275H56.285L50.7312 79.0325L48.5 71H50.7C51.7927 71.0001 52.8553 71.3582 53.7253 72.0193C54.5953 72.6805 55.2248 73.6085 55.5175 74.6613Z" fill="#06B790"/>
<path d="M42.9965 66.5135L43.0029 66.562L44.991 70.0952C45.3248 70.6884 45.5001 71.3575 45.5 72.0381C45.4999 73.0888 45.0824 74.0964 44.3394 74.8394C43.5965 75.5824 42.5889 75.9998 41.5382 76H37.9699C37.2277 76 36.5002 75.7933 35.8689 75.4032C35.2376 75.013 34.7274 74.4547 34.3955 73.7909C34.152 73.3038 34.0106 72.7721 33.98 72.2284C33.9493 71.6847 34.0301 71.1405 34.2174 70.6292C34.4047 70.1178 34.6945 69.6502 35.0691 69.2549C35.4436 68.8596 35.895 68.545 36.3955 68.3305L37.4863 67.863C38.0607 67.6168 38.5359 67.185 38.8358 66.6368C39.1357 66.0885 39.2429 65.4555 39.1404 64.839C39.0495 64.2921 39.1234 63.7305 39.3529 63.2257C39.6546 62.562 40.141 61.9992 40.754 61.6045C41.3669 61.2098 42.0806 61 42.8097 61H47.5V62.2188C47.5 62.6912 47.3124 63.1442 46.9783 63.4783C46.6443 63.8123 46.1912 64 45.7188 64H43.6429L42.9965 66.5135Z" fill="#0E3E86"/>
<path d="M43.2467 67.7209C43.9353 67.7209 44.4935 67.1627 44.4935 66.4741C44.4935 65.7856 43.9353 65.2274 43.2467 65.2274C42.5582 65.2274 42 65.7856 42 66.4741C42 67.1627 42.5582 67.7209 43.2467 67.7209Z" fill="#FFB3D0"/>
<path d="M61.4997 45.5C61.434 45.5001 61.369 45.4872 61.3083 45.462C61.2477 45.4369 61.1926 45.4 61.1462 45.3535L59.9997 44.2071L58.8532 45.3535C58.7595 45.4472 58.6323 45.4999 58.4997 45.4999C58.3671 45.4999 58.24 45.4472 58.1462 45.3535L56.6462 43.8535C56.5551 43.7592 56.5047 43.6329 56.5059 43.5018C56.507 43.3707 56.5596 43.2453 56.6523 43.1526C56.745 43.0599 56.8704 43.0073 57.0015 43.0062C57.1326 43.005 57.2589 43.0554 57.3532 43.1465L58.4997 44.2929L59.6462 43.1465C59.74 43.0528 59.8671 43.0001 59.9997 43.0001C60.1323 43.0001 60.2594 43.0528 60.3532 43.1465L61.4997 44.2929L62.6462 43.1465C62.7405 43.0554 62.8668 43.005 62.9979 43.0062C63.129 43.0073 63.2544 43.0599 63.3471 43.1526C63.4398 43.2453 63.4924 43.3707 63.4935 43.5018C63.4947 43.6329 63.4443 43.7592 63.3532 43.8535L61.8532 45.3535C61.8068 45.4 61.7517 45.4369 61.6911 45.462C61.6304 45.4872 61.5654 45.5001 61.4997 45.5Z" fill="#1D7ED7"/>
<path d="M59.75 39H61.25V41.5C60.8522 41.5 60.4706 41.342 60.1893 41.0607C59.908 40.7794 59.75 40.3978 59.75 40V39Z" fill="#E67199"/>
<path d="M62.2502 36.0776V39.625C62.2502 39.9897 62.1053 40.3394 61.8474 40.5973C61.5896 40.8551 61.2399 41 60.8752 41C60.3123 41 59.7725 40.7764 59.3745 40.3784C58.9765 39.9804 58.7529 39.4406 58.7529 38.8777V36.0777L62.2502 36.0776Z" fill="#FFB3D0"/>
<path d="M60.5149 34.7595L61.75 35.1712H63.75V36.0315C63.75 36.4664 63.5772 36.8835 63.2697 37.191C62.9622 37.4985 62.5451 37.6712 62.1102 37.6712C61.9157 37.6712 61.7227 37.6366 61.5402 37.569L60.25 37.0909C60.25 37.5972 60.0489 38.0828 59.6908 38.4408C59.3328 38.7989 58.8472 39 58.3409 39H58.25V36.392C58.25 35.9356 58.4313 35.4979 58.754 35.1752C59.0767 34.8525 59.5144 34.6712 59.9708 34.6712C60.1557 34.6713 60.3394 34.7011 60.5149 34.7595Z" fill="#0E3E86"/>
<path d="M59.1019 39.8288C59.5724 39.8288 59.9538 39.4474 59.9538 38.9769C59.9538 38.5064 59.5724 38.125 59.1019 38.125C58.6314 38.125 58.25 38.5064 58.25 38.9769C58.25 39.4474 58.6314 39.8288 59.1019 39.8288Z" fill="#FFB3D0"/>
<path d="M53.5 49.5C53.3674 49.5 53.2402 49.4473 53.1464 49.3536C53.0527 49.2598 53 49.1326 53 49V46C53 45.8674 53.0527 45.7402 53.1464 45.6464C53.2402 45.5527 53.3674 45.5 53.5 45.5C53.6326 45.5 53.7598 45.5527 53.8536 45.6464C53.9473 45.7402 54 45.8674 54 46V49C54 49.1326 53.9473 49.2598 53.8536 49.3536C53.7598 49.4473 53.6326 49.5 53.5 49.5Z" fill="#1D7ED7"/>
</svg>
