<svg width="120" height="120" viewBox="0 0 120 120" fill="none" xmlns="http://www.w3.org/2000/svg">
<circle cx="60" cy="60" r="60" fill="#EBFDF2"/>
<g clip-path="url(#clip0_186_3726)">
<path d="M74.7712 79.9397V35.9577C74.7712 33.2196 72.5515 31 69.8134 31H37.3757C34.6376 31 32.418 33.2196 32.418 35.9577V79.9397C32.418 82.6778 34.6376 84.8975 37.3757 84.8975H69.8134C72.5515 84.8975 74.7712 82.6778 74.7712 79.9397Z" fill="#C5F1DF"/>
<path d="M69.8131 84.8975C72.5512 84.8975 74.7708 82.6778 74.7708 79.9397V66.7068L61.1385 80.3392C59.9643 81.5151 59.1042 82.967 58.6371 84.5617L58.5391 84.8975H69.8131Z" fill="#B1E1CD"/>
<path d="M86.6722 71.2693L69.3703 88.5712C68.6253 89.3162 67.7046 89.8616 66.6932 90.1571L64.1227 90.908C62.4355 91.4009 60.8698 89.8351 61.3627 88.148L62.1136 85.5775C62.409 84.5661 62.9544 83.6454 63.6995 82.9003L81.0014 65.5984C82.215 64.3848 84.1826 64.3848 85.3962 65.5984L86.6723 66.8746C87.8858 68.0881 87.8858 70.0557 86.6722 71.2693Z" fill="#B0ADE2"/>
<path d="M70.9938 75.6058L63.6995 82.9001C62.9544 83.6452 62.409 84.5659 62.1136 85.5773L61.3627 88.1478C60.8698 89.8349 62.4355 91.4007 64.1227 90.9078L66.6932 90.1568C67.7046 89.8614 68.6253 89.316 69.3703 88.5709L73.2334 84.7078C70.8284 82.5061 70.4748 78.6836 70.9938 75.6058Z" fill="#A09CDC"/>
<path d="M67.9078 89.656L62.6146 84.3627C62.4055 84.7489 62.2376 85.156 62.1136 85.5773L61.3627 88.1478C60.8698 89.8349 62.4355 91.4007 64.1227 90.9078L66.6932 90.1568C67.1145 90.033 67.5216 89.8651 67.9078 89.656Z" fill="#59636F"/>
<path d="M83.8282 74.1141L86.673 71.2693C87.8866 70.0557 87.8866 68.0881 86.673 66.8745L85.3968 65.5983C84.1832 64.3847 82.2157 64.3847 81.0021 65.5983L78.1572 68.4432L83.8282 74.1141Z" fill="#E7889D"/>
<path d="M83.8366 74.1133L80.384 77.566L74.7139 71.8959L78.1664 68.4433L83.8366 74.1133Z" fill="#59636F"/>
<path d="M70.8876 82.2621C70.7722 82.2623 70.6579 82.2396 70.5512 82.1955C70.4445 82.1513 70.3477 82.0864 70.2662 82.0047C70.1014 81.8399 70.0088 81.6163 70.0088 81.3832C70.0088 81.1502 70.1014 80.9266 70.2662 80.7618L73.0973 77.9307C73.2624 77.767 73.4856 77.6755 73.718 77.676C73.9504 77.6765 74.1732 77.7691 74.3375 77.9334C74.5019 78.0978 74.5944 78.3206 74.5949 78.553C74.5954 78.7854 74.5038 79.0086 74.3402 79.1737L71.5091 82.0048C71.4275 82.0865 71.3307 82.1513 71.224 82.1955C71.1174 82.2397 71.0031 82.2623 70.8876 82.2621Z" fill="#F6EE86"/>
<path d="M42.4944 77.1957C40.3215 77.1957 38.5537 75.4279 38.5537 73.255C38.5537 71.0821 40.3215 69.3143 42.4944 69.3143C44.6673 69.3143 46.435 71.0821 46.435 73.255C46.435 75.4279 44.6671 77.1957 42.4944 77.1957ZM42.4944 71.0721C41.2907 71.0721 40.3115 72.0514 40.3115 73.255C40.3115 74.4586 41.2907 75.4378 42.4944 75.4378C43.698 75.4378 44.6772 74.4586 44.6772 73.255C44.6772 72.0514 43.6979 71.0721 42.4944 71.0721ZM66.9111 74.1339H52.1998C51.9667 74.1339 51.7432 74.0413 51.5784 73.8765C51.4135 73.7117 51.3209 73.4881 51.3209 73.255C51.3209 73.0219 51.4135 72.7983 51.5784 72.6335C51.7432 72.4687 51.9667 72.3761 52.1998 72.3761H66.9112C67.0266 72.3761 67.1409 72.3988 67.2475 72.443C67.3542 72.4872 67.4511 72.5519 67.5327 72.6336C67.6143 72.7152 67.679 72.8121 67.7232 72.9187C67.7673 73.0253 67.7901 73.1396 67.7901 73.2551C67.7901 73.3705 67.7673 73.4848 67.7231 73.5914C67.679 73.698 67.6142 73.7949 67.5326 73.8765C67.451 73.9581 67.3541 74.0229 67.2474 74.067C67.1408 74.1112 67.0265 74.1339 66.9111 74.1339ZM42.4944 65.7512C40.3215 65.7512 38.5537 63.9835 38.5537 61.8106C38.5537 59.6377 40.3215 57.8699 42.4944 57.8699C44.6673 57.8699 46.435 59.6377 46.435 61.8106C46.4349 63.9835 44.6671 65.7512 42.4944 65.7512ZM42.4944 59.6277C41.2907 59.6277 40.3115 60.6069 40.3115 61.8106C40.3115 63.0142 41.2907 63.9934 42.4944 63.9934C43.698 63.9934 44.6772 63.0142 44.6772 61.8106C44.6772 60.6069 43.6979 59.6277 42.4944 59.6277ZM66.9111 62.6895H52.1998C51.9667 62.6895 51.7432 62.5969 51.5784 62.4321C51.4135 62.2672 51.3209 62.0437 51.3209 61.8106C51.3209 61.5775 51.4135 61.3539 51.5784 61.1891C51.7432 61.0243 51.9667 60.9317 52.1998 60.9317H66.9112C67.0266 60.9317 67.1409 60.9544 67.2475 60.9986C67.3542 61.0428 67.4511 61.1075 67.5327 61.1891C67.6143 61.2708 67.679 61.3677 67.7232 61.4743C67.7673 61.5809 67.7901 61.6952 67.7901 61.8106C67.7901 61.9261 67.7673 62.0403 67.7231 62.147C67.679 62.2536 67.6142 62.3505 67.5326 62.4321C67.451 62.5137 67.3541 62.5784 67.2474 62.6226C67.1408 62.6668 67.0265 62.6895 66.9111 62.6895ZM66.9111 51.2451H52.1998C51.9667 51.2451 51.7432 51.1525 51.5784 50.9876C51.4135 50.8228 51.3209 50.5993 51.3209 50.3662C51.3209 50.1331 51.4135 49.9095 51.5784 49.7447C51.7432 49.5799 51.9667 49.4873 52.1998 49.4873H66.9112C67.0266 49.4873 67.1409 49.51 67.2475 49.5542C67.3542 49.5984 67.4511 49.6631 67.5327 49.7447C67.6143 49.8263 67.679 49.9232 67.7232 50.0299C67.7673 50.1365 67.7901 50.2508 67.7901 50.3662C67.7901 50.4816 67.7673 50.5959 67.7231 50.7026C67.679 50.8092 67.6142 50.9061 67.5326 50.9877C67.451 51.0693 67.3541 51.134 67.2474 51.1782C67.1408 51.2224 67.0265 51.2451 66.9111 51.2451Z" fill="#59636F"/>
<path d="M40.894 53.127C40.7786 53.1271 40.6642 53.1045 40.5576 53.0603C40.4509 53.0161 40.3541 52.9513 40.2726 52.8695L38.1454 50.7423C37.9817 50.5773 37.8901 50.3541 37.8906 50.1217C37.8911 49.8892 37.9837 49.6665 38.148 49.5021C38.3124 49.3377 38.5351 49.2452 38.7676 49.2447C39 49.2441 39.2232 49.3357 39.3883 49.4993L40.894 51.0051L45.6015 46.2975C45.7664 46.1327 45.9899 46.0401 46.223 46.0401C46.4561 46.0401 46.6796 46.1327 46.8444 46.2975C47.0092 46.4624 47.1018 46.6859 47.1018 46.919C47.1018 47.1521 47.0092 47.3756 46.8444 47.5404L41.5154 52.8695C41.4339 52.9513 41.3371 53.0161 41.2304 53.0603C41.1238 53.1045 41.0094 53.1272 40.894 53.127Z" fill="#E7889D"/>
<path d="M62.7904 42.1008H44.3995C43.0721 42.1008 41.9961 41.0248 41.9961 39.6974V37.6055C41.9961 36.2781 43.0721 35.2021 44.3995 35.2021H62.7904C64.1178 35.2021 65.1938 36.2781 65.1938 37.6055V39.6974C65.1938 41.0247 64.1178 42.1008 62.7904 42.1008Z" fill="#90D8C6"/>
</g>
<defs>
<clipPath id="clip0_186_3726">
<rect width="60" height="60" fill="white" transform="translate(30 31)"/>
</clipPath>
</defs>
</svg>
