<svg width="24" height="25" viewBox="0 0 24 25" fill="none" xmlns="http://www.w3.org/2000/svg">
<path d="M8 22.5C8.55228 22.5 9 22.0523 9 21.5C9 20.9477 8.55228 20.5 8 20.5C7.44772 20.5 7 20.9477 7 21.5C7 22.0523 7.44772 22.5 8 22.5Z" stroke="white" stroke-width="2" stroke-linecap="round" stroke-linejoin="round"/>
<path d="M19 22.5C19.5523 22.5 20 22.0523 20 21.5C20 20.9477 19.5523 20.5 19 20.5C18.4477 20.5 18 20.9477 18 21.5C18 22.0523 18.4477 22.5 19 22.5Z" stroke="white" stroke-width="2" stroke-linecap="round" stroke-linejoin="round"/>
<path d="M2.0498 2.54999H4.0498L6.7098 14.97C6.80738 15.4248 7.06048 15.8315 7.42552 16.1198C7.79056 16.4082 8.24471 16.5603 8.7098 16.55H18.4898C18.945 16.5493 19.3863 16.3933 19.7408 16.1078C20.0954 15.8224 20.3419 15.4245 20.4398 14.98L22.0898 7.54999H5.1198" stroke="white" stroke-width="2" stroke-linecap="round" stroke-linejoin="round"/>
</svg>
