<svg width="97" height="41" viewBox="0 0 97 41" fill="none" xmlns="http://www.w3.org/2000/svg">
<rect width="97" height="41" rx="8" fill="#F54737"/>
<path d="M26.5376 18.6172C26.4912 18.183 26.2957 17.8449 25.951 17.603C25.6096 17.361 25.1655 17.2401 24.6186 17.2401C24.2341 17.2401 23.9044 17.2981 23.6293 17.4141C23.3542 17.5301 23.1437 17.6875 22.9979 17.8864C22.852 18.0852 22.7775 18.3123 22.7741 18.5675C22.7741 18.7796 22.8222 18.9635 22.9183 19.1193C23.0178 19.2751 23.152 19.4077 23.321 19.517C23.4901 19.6231 23.6773 19.7126 23.8828 19.7855C24.0883 19.8584 24.2955 19.9197 24.5043 19.9695L25.4588 20.2081C25.8433 20.2976 26.2128 20.4186 26.5675 20.571C26.9254 20.7235 27.2453 20.9157 27.527 21.1477C27.812 21.3797 28.0374 21.6598 28.2031 21.9879C28.3688 22.3161 28.4517 22.7005 28.4517 23.1413C28.4517 23.7379 28.2992 24.2633 27.9943 24.7173C27.6894 25.1681 27.2486 25.5211 26.6719 25.7763C26.0985 26.0282 25.4041 26.1541 24.5888 26.1541C23.7966 26.1541 23.1089 26.0315 22.5256 25.7862C21.9455 25.541 21.4915 25.183 21.1634 24.7124C20.8385 24.2417 20.6629 23.6683 20.6364 22.9922H22.451C22.4775 23.3468 22.5869 23.6418 22.7791 23.8771C22.9714 24.1125 23.2216 24.2881 23.5298 24.4041C23.8414 24.5201 24.1894 24.5781 24.5739 24.5781C24.9749 24.5781 25.3262 24.5185 25.6278 24.3991C25.9328 24.2765 26.1714 24.1075 26.3438 23.892C26.5161 23.6733 26.6039 23.4181 26.6072 23.1264C26.6039 22.8613 26.526 22.6425 26.3736 22.4702C26.2211 22.2945 26.0073 22.1487 25.7322 22.0327C25.4605 21.9134 25.1423 21.8073 24.7777 21.7145L23.6193 21.4162C22.7808 21.2008 22.1179 20.8743 21.6307 20.4368C21.1468 19.996 20.9048 19.411 20.9048 18.6818C20.9048 18.0819 21.0672 17.5566 21.392 17.1058C21.7202 16.6551 22.166 16.3054 22.7294 16.0568C23.2929 15.8049 23.9309 15.679 24.6435 15.679C25.366 15.679 25.9991 15.8049 26.5426 16.0568C27.0895 16.3054 27.5187 16.6518 27.8303 17.0959C28.1418 17.5367 28.3026 18.0438 28.3125 18.6172H26.5376ZM31.9405 15.8182V26H30.0961V15.8182H31.9405ZM40.7589 19.0696C40.676 18.8011 40.5617 18.5608 40.4158 18.3487C40.2733 18.1333 40.101 17.9493 39.8988 17.7969C39.6999 17.6444 39.4712 17.5301 39.2127 17.4538C38.9542 17.3743 38.6725 17.3345 38.3675 17.3345C37.8207 17.3345 37.3335 17.4721 36.9059 17.7472C36.4783 18.0223 36.1419 18.4266 35.8967 18.9602C35.6547 19.4905 35.5337 20.1368 35.5337 20.8991C35.5337 21.6681 35.6547 22.3194 35.8967 22.853C36.1386 23.3866 36.475 23.7926 36.9059 24.071C37.3368 24.3461 37.8372 24.4837 38.4073 24.4837C38.9244 24.4837 39.3718 24.3842 39.7496 24.1854C40.1308 23.9865 40.4241 23.7048 40.6296 23.3402C40.8351 22.9723 40.9379 22.5414 40.9379 22.0476L41.3555 22.1122H38.5913V20.6705H42.7227V21.8935C42.7227 22.7652 42.5371 23.5192 42.1658 24.1555C41.7946 24.7919 41.2842 25.2824 40.6346 25.6271C39.985 25.9685 39.2392 26.1392 38.3974 26.1392C37.4594 26.1392 36.6358 25.9287 35.9265 25.5078C35.2205 25.0836 34.6687 24.482 34.271 23.7031C33.8765 22.9209 33.6793 21.9929 33.6793 20.919C33.6793 20.0971 33.7953 19.3629 34.0273 18.7166C34.2627 18.0703 34.5908 17.5218 35.0117 17.071C35.4326 16.617 35.9265 16.2723 36.4933 16.0369C37.06 15.7983 37.6765 15.679 38.3427 15.679C38.9061 15.679 39.4315 15.7618 39.9187 15.9276C40.4059 16.09 40.8384 16.322 41.2163 16.6236C41.5974 16.9252 41.9106 17.2831 42.1559 17.6974C42.4012 18.1117 42.5619 18.5691 42.6381 19.0696H40.7589ZM52.8734 15.8182V26H51.2328L46.4352 19.0646H46.3507V26H44.5062V15.8182H46.1568L50.9494 22.7585H51.0389V15.8182H52.8734ZM64.7741 15.8182H66.6186V22.4702C66.6186 23.1993 66.4463 23.8407 66.1016 24.3942C65.7602 24.9477 65.2796 25.3802 64.6598 25.6918C64.04 26 63.3158 26.1541 62.4872 26.1541C61.6553 26.1541 60.9295 26 60.3097 25.6918C59.6899 25.3802 59.2093 24.9477 58.8679 24.3942C58.5265 23.8407 58.3558 23.1993 58.3558 22.4702V15.8182H60.2003V22.3161C60.2003 22.7403 60.2931 23.1181 60.4787 23.4496C60.6676 23.781 60.9328 24.0412 61.2741 24.2301C61.6155 24.4157 62.0199 24.5085 62.4872 24.5085C62.9545 24.5085 63.3589 24.4157 63.7003 24.2301C64.045 24.0412 64.3101 23.781 64.4957 23.4496C64.6813 23.1181 64.7741 22.7403 64.7741 22.3161V15.8182ZM68.6234 26V15.8182H72.4416C73.2238 15.8182 73.88 15.964 74.4103 16.2557C74.944 16.5473 75.3467 16.9484 75.6184 17.4588C75.8935 17.9659 76.0311 18.5426 76.0311 19.1889C76.0311 19.8419 75.8935 20.4219 75.6184 20.929C75.3433 21.4361 74.9373 21.8355 74.4004 22.1271C73.8635 22.4155 73.2022 22.5597 72.4167 22.5597H69.8862V21.0433H72.1681C72.6255 21.0433 73.0001 20.9638 73.2917 20.8047C73.5834 20.6456 73.7988 20.4268 73.938 20.1484C74.0806 19.87 74.1518 19.5502 74.1518 19.1889C74.1518 18.8277 74.0806 18.5095 73.938 18.2344C73.7988 17.9593 73.5817 17.7455 73.2868 17.593C72.9951 17.4373 72.6189 17.3594 72.1582 17.3594H70.4679V26H68.6234Z" fill="white"/>
</svg>
