<svg width="253" height="304" viewBox="0 0 253 304" fill="none" xmlns="http://www.w3.org/2000/svg">
<path d="M131.939 117.171C126.333 111.224 126.019 103.94 126.232 96.249C126.389 90.5802 126.426 84.9114 126.416 79.2426C126.416 78.7602 126.804 78.3612 127.285 78.3612H128.338C128.818 78.3612 129.215 78.7602 129.215 79.2426C129.178 84.9393 129.132 90.6452 129.067 96.3418C128.984 103.467 129.427 110.073 134.304 115.723C135.153 116.707 137.019 118.395 134.682 119.592C132.614 120.65 132.798 118.071 131.949 117.161L131.939 117.171ZM127.562 74.9006C128.43 74.9006 128.855 67.2277 128.901 66.4391C128.975 65.2887 129.002 64.1382 129.002 62.9877L129.427 16.7095C129.427 11.4304 129.381 6.14198 129.353 0.862846C129.353 0.389673 128.966 0 128.495 0H127.359C126.888 0 126.5 0.389673 126.49 0.862846C126.37 21.8309 126.38 42.7897 126.315 63.7578C126.315 64.6206 126.324 65.4835 126.361 66.3556C126.389 67.135 126.629 74.9098 127.552 74.9191L127.562 74.9006ZM156.128 154.18C156.072 159.636 156.109 165.1 156.109 170.556C160.598 170.556 164.744 170.584 168.891 170.547C170.35 170.537 171.606 170.092 172.77 169.025C180.602 161.825 188.489 154.691 196.386 147.565C198.057 146.053 199.018 144.466 199.009 141.998C198.944 119.945 199.064 97.8912 198.999 75.8469C198.999 74.1398 200.292 70.9667 197.605 70.9389C195.36 70.9203 196.478 74.0099 196.469 75.6521C196.321 97.1304 196.238 118.6 196.284 140.078C196.284 143.26 195.24 145.441 192.839 147.472C186.808 152.575 180.565 157.53 175.181 163.273C170.397 168.366 165.058 168.311 159.249 167.485C157.744 159.292 158.667 152.019 165.021 146.006C167.921 143.27 170.119 139.79 172.659 136.673C174.063 134.938 174.876 133.027 174.876 130.744C174.904 108.839 174.959 86.9247 174.987 65.0196C174.987 63.665 175.347 61.9486 172.955 62.0321C171.782 63.5351 172.271 65.3258 172.262 66.968C172.133 87.1474 172.022 107.327 172.022 127.506C172.022 131.125 171.255 134.14 168.716 136.923C165.04 140.95 161.78 145.366 158.335 149.606C157.236 150.961 156.155 152.371 156.137 154.19L156.128 154.18ZM189.228 187.349C185.949 186.746 182.625 187.015 179.364 187.674C178.173 187.915 175.726 187.228 175.873 189.446C175.956 190.8 177.166 190.763 178.173 190.772C181.045 190.782 183.908 190.772 188.074 190.772C191.177 190.234 195.878 192.368 200.006 188.908C209.574 180.873 219.308 173.033 228.96 165.091C229.874 164.33 231.583 163.57 230.437 162.067C228.941 160.1 227.935 162.243 227.011 162.985C217.923 170.259 208.863 177.551 199.895 184.964C196.847 187.488 193.633 188.175 189.219 187.358L189.228 187.349ZM161.318 53.1346C162.205 53.1346 162.805 49.1636 162.823 48.106C162.851 46.9555 162.86 46.5751 162.87 45.4246C162.897 41.1754 162.943 36.9168 162.999 32.6675C162.999 32.1851 162.62 31.7954 162.14 31.7954H160.625C160.154 31.7954 159.766 32.1758 159.766 32.6582C159.72 37.724 159.646 47.9297 159.656 47.9575C159.729 48.4956 160.191 53.1346 161.327 53.1346H161.318ZM49.5392 159.478C55.9949 164.08 62.4506 168.682 68.897 173.284C69.7559 173.896 70.6703 174.527 71.7139 174.629C72.7667 174.731 73.9581 174.063 74.0505 173.014C69.1464 169.313 64.2423 165.611 59.0611 162.336C55.7178 160.22 51.3493 158.003 49.8439 154.088C49.142 152.269 48.9388 150.302 48.8372 148.354C48.4401 141.061 48.8095 133.713 48.5509 126.421C48.32 120.01 48.2739 113.599 48.5509 107.197C48.6618 104.683 48.6248 102.094 48.9204 99.6076C49.0035 98.9118 49.0312 98.1788 48.7264 97.5479C48.4216 96.9263 47.6643 96.4717 47.0178 96.7222C46.4914 96.9263 46.2051 97.5201 46.1774 98.0768C46.1404 99.1159 46.5099 100.127 46.4822 101.203C46.4452 102.428 46.2882 103.653 46.279 104.877C46.279 107.095 46.279 109.312 46.279 111.53C46.279 116.067 46.279 120.594 46.2697 125.131C46.2697 130.447 46.2143 135.764 46.1589 141.089C46.1404 143.14 46.1127 145.181 46.0943 147.231C46.0943 147.899 46.0758 148.558 46.0758 149.226C46.0573 151.378 45.457 154.134 46.3252 156.156C46.9439 157.604 48.2831 158.587 49.5576 159.497L49.5392 159.478ZM242.37 194.753C232.829 201.396 223.317 208.066 213.869 214.839C210.876 216.992 207.801 217.78 203.765 217.289C191.906 215.832 179.955 215.758 168.125 217.363C164.495 217.855 160.884 217.53 157.116 218.884C156.913 218.959 156.46 218.968 156.238 219.005C155.601 219.144 150.632 220.629 149.219 218.773C153.098 211.202 160.902 206.573 166.638 200.403C167.783 199.169 169.261 199.484 170.683 199.484C176.852 199.484 183.022 199.521 189.2 199.503C190.401 199.503 192.11 200.032 192.193 198.056C192.267 196.098 190.53 196.386 189.339 196.376C183.022 196.321 176.695 196.562 170.397 196.256C166.619 196.079 163.812 197.369 161.142 199.828C153.939 206.434 146.643 212.937 139.337 219.441C138.22 220.434 137.49 220.879 135.126 222.234C135.098 222.252 134.47 222.568 134.313 222.382C131.459 218.782 137.093 213.995 138.626 210.052C145.331 192.869 152.064 175.724 149.395 156.63C148.859 152.807 150.485 149.625 152.673 146.647C155.056 143.399 157.31 140.05 159.739 136.849C161.558 134.446 162.306 131.867 162.325 128.833C162.445 106.761 162.639 84.698 162.814 62.6259C162.814 62.0135 162.325 61.5125 161.715 61.5125H160.616C160.034 61.5125 159.563 61.9764 159.554 62.5609C159.323 79.2612 159.037 95.9614 159.609 112.643C160.071 126.18 157.827 137.953 147.871 147.565C146.107 149.272 145.627 151.415 145.645 153.865C145.7 160.35 145.599 166.845 145.507 173.33C145.368 182.988 140.473 190.791 135.615 198.584C135.375 198.965 134.378 199.967 133.74 198.696C133.399 198.018 133.759 196.831 133.74 195.727C133.389 176.123 132.965 156.518 132.715 136.914C132.66 132.284 131.792 128.221 128.716 124.528C125.595 120.78 123.064 116.549 120.146 112.625C118.825 110.843 118.132 108.672 118.141 106.455C118.215 89.6524 118.197 72.8594 118.16 56.0571C118.16 54.7489 118.871 52.5686 116.904 52.4851C114.401 52.3738 115.352 54.7953 115.334 56.1406C115.149 68.6844 115.666 81.2745 114.78 93.7626C113.948 105.527 115.86 115.965 123.831 124.927C124.736 125.948 125.244 127.311 125.992 128.471C127.054 130.123 127.534 132.08 127.497 134.047C127.211 148.846 127.045 163.644 126.832 178.451C126.694 187.822 126.601 197.193 126.361 206.554C126.315 208.28 126.62 210.377 124.098 211.657C119.333 207.009 117.015 200.347 112.997 195.068C109.534 190.513 108.675 185.614 108.813 180.14C109.007 172.356 108.767 164.572 108.878 156.787C108.915 154.273 108.102 152.427 106.32 150.701C101.674 146.201 97.2227 141.488 92.5495 137.016C90.6562 135.198 89.5941 132.674 89.6125 130.039C89.7141 115.092 89.6402 100.146 89.5756 85.199C89.5756 83.8723 90.0558 81.8868 87.9039 81.8961C85.9368 81.8961 86.5371 83.7702 86.5371 84.9207C86.4817 100.637 86.5094 116.354 86.4355 132.071C86.4262 134.558 87.2852 136.469 88.9845 138.232C93.6762 143.093 98.2109 148.113 102.949 152.928C104.343 154.347 105.138 156.249 105.101 158.244C104.962 165.731 105.479 173.265 104.897 180.715C104.288 188.583 107.437 194.845 111.168 201.275C113.828 205.849 116.654 210.469 118.502 216.565C107.576 212.659 102.053 201.59 94.2303 194.4C92.023 192.368 89.7049 191.635 86.5555 191.682C78.7607 191.812 70.5964 193.797 63.1617 191.023C56.0595 185.595 34.4481 170.222 31.0032 171.4C39.0198 181.875 51.885 187.479 63.2263 194.307C68.1489 196.506 73.4687 195.662 78.4467 195.179C86.4632 194.409 92.3001 196.924 97.2412 203.233C100.88 207.881 105.442 211.805 109.164 216.871C107.871 217.298 104.445 216.918 104.112 216.695C103.872 216.537 103.392 216.37 103.152 216.212C98.608 213.132 92.6695 213.633 87.1466 213.735C73.6811 213.976 60.2063 213.921 46.7408 214.023C45.0045 214.032 43.6191 213.68 42.0768 212.603C29.4886 203.836 16.7896 195.217 4.07216 186.625C1.20911 184.695 -1.94023 185.966 1.51389 188.332C14.3514 197.128 27.1612 205.951 39.9341 214.83C42.2799 216.463 44.7274 217.103 47.572 217.085C61.4716 217.01 75.3712 217.103 89.2708 217.066C92.7803 217.066 96.0867 217.873 99.3007 219.116C102.727 220.443 99.9841 220.851 98.3771 221.928C98.2848 221.993 97.7214 222.271 97.6106 222.327C93.5284 224.256 88.966 223.969 84.5052 223.941C70.1715 223.876 55.8378 223.941 41.5042 224.034C40.0172 224.043 37.4774 223.124 37.4959 225.778C37.5144 228.19 39.9156 227.216 41.264 227.216C57.4633 227.281 73.6534 227.244 89.8527 227.253C93.2144 227.253 96.3361 226.409 99.2453 224.73C99.4854 224.572 99.9472 224.256 100.187 224.099C101.6 223.95 102.893 223.69 104.242 223.394C105.821 223.05 107.336 222.726 108.315 222.911C116.017 224.312 123.332 228.932 123.378 237.644C123.443 250.012 123.092 262.398 123.646 274.747C124.052 283.635 115.472 293.766 110.467 298.211C109.598 298.981 97.6291 302.664 98.9497 304H153.366C151.362 301.105 138.026 292.95 134.849 291.057C133.63 289.499 133.703 287.56 133.713 285.704C133.713 269.765 133.777 253.816 133.75 237.876C133.75 235.742 134.276 233.98 135.772 232.43C141.24 226.771 152.295 224.266 159.452 227.003C162.925 228.329 166.361 229.879 170.175 229.87C185.811 229.851 201.438 229.832 217.073 229.749C218.496 229.749 220.306 230.352 221.119 228.292C220.407 226.214 218.385 227.021 216.953 227.012C208.346 226.947 199.738 227.123 191.14 226.956C180.768 226.752 170.221 228.431 160.182 224.219C158.307 223.431 156.635 222.623 159.729 221.111C162.131 220.768 164.56 220.49 166.97 220.471C180.297 220.387 193.633 220.378 206.96 220.397C209.472 220.397 211.698 219.924 213.804 218.393C223.806 211.165 233.901 204.058 243.912 196.849C244.826 196.191 246.868 195.727 245.87 194.112C244.633 192.099 243.358 194.048 242.361 194.743L242.37 194.753ZM40.2666 166.214C46.6576 170.806 53.4366 174.935 59.412 180.01C64.9996 184.751 71.0027 185.688 77.754 184.686C84.6807 184.686 91.6167 184.695 98.5434 184.705C99.0052 184.89 99.1899 184.714 99.1437 184.241C99.8364 181.587 97.9338 181.838 96.4007 181.856C90.1482 181.931 83.8864 182.07 77.6339 182.19C69.8575 183.016 63.7066 179.63 57.8512 174.935C52.8363 170.908 47.4427 167.355 42.1599 163.672C41.0978 162.929 39.694 161.306 38.4749 162.948C37.2465 164.618 39.1675 165.434 40.2481 166.204L40.2666 166.214ZM170.544 155.219C170.544 155.359 170.563 155.507 170.618 155.637C170.637 155.683 170.664 155.72 170.692 155.767C170.978 156.157 171.588 155.99 172.013 155.767C174.433 154.477 176.27 152.353 178.275 150.478C180.981 147.964 184.075 145.867 186.596 143.158C189.496 140.041 191.14 136.218 190.761 131.923C190.521 129.121 190.466 126.514 190.549 123.684C190.567 122.997 190.576 122.274 190.253 121.671C189.431 120.149 188.055 121.086 187.778 122.357C187.233 124.806 187.011 127.33 187.113 129.835C187.233 132.702 187.464 136.413 186.522 138.315C185.478 140.421 181.987 142.787 179.586 144.615C177.637 146.099 175.716 147.676 174.118 149.551C172.798 151.109 170.489 152.974 170.544 155.21V155.219ZM228.027 184.695C219.345 190.429 211.283 197.016 203.008 203.298C202.703 203.53 202.638 203.966 202.869 204.272C202.961 204.402 203.054 204.532 203.155 204.661C203.386 204.977 203.839 205.051 204.153 204.81C212.456 198.603 220.768 192.396 229.07 186.189C230.013 185.484 229.006 184.055 228.027 184.695ZM223.668 154.505C224.554 153.763 224.684 152.844 223.363 151.536C215.263 157.799 207.358 164.367 200.135 171.799C200.135 177.05 216.445 160.591 223.668 154.505ZM22.5065 189.687C26.7733 192.507 31.0494 195.328 35.4086 198.009C36.5816 198.733 37.9392 198.686 38.2994 196.72C38.1886 196.386 38.1793 195.801 37.9023 195.615C33.423 192.6 28.9252 189.594 24.3813 186.681C23.6147 186.189 22.7558 186.597 22.2017 187.451C21.6383 188.323 21.6937 189.139 22.5157 189.687H22.5065ZM149.136 100.322C150.337 100.322 150.752 96.0264 150.762 94.7924C150.789 91.9163 150.762 89.0401 150.762 86.1639H150.78C150.78 83.1486 150.78 80.124 150.78 77.1087C150.78 76.0603 150.66 75.0119 149.293 74.9098C147.603 74.78 147.548 75.9954 147.538 77.2015C147.511 83.093 147.483 88.9937 147.455 94.8852C147.455 95.9336 148.148 100.322 149.118 100.322H149.136ZM102.044 135.439C103.568 137.814 105.553 140.041 107.779 141.757C109.506 143.084 110.781 141.442 111.51 140.124C111.492 138.603 105.47 131.923 104.399 132.08C102.542 132.359 100.668 133.314 102.044 135.439ZM73.4502 151.508C75.168 151.397 76.4425 150.339 76.4518 148.447C76.4518 146.572 75.3343 145.598 73.4317 145.376C71.7878 145.747 70.5594 146.61 70.5594 148.521C70.5594 150.386 71.5661 151.62 73.4502 151.508ZM250.534 157.65C248.825 157.622 247.366 158.402 247.163 160.285C246.96 162.169 248.216 163.328 249.906 163.532C251.827 163.755 252.594 162.271 253 160.554C252.815 159.07 252.317 157.678 250.534 157.65ZM183.622 178.776C186.079 177.31 188.147 175.408 189.524 173.061C189.699 171.845 189.025 171.289 188.378 170.741C187.778 170.231 187.002 170.073 186.439 170.611C184.703 172.282 183.012 174.007 181.405 175.798C180.722 176.568 181.184 177.403 181.793 178.08C182.283 178.628 182.929 179.194 183.622 178.776ZM145.359 126.606C147.474 126.606 148.019 121.717 148.259 120.251C148.434 118.163 147.501 117.189 145.83 117.059C144.001 116.92 142.708 117.913 142.468 119.694C142.209 121.615 143.604 126.606 145.359 126.606ZM63.9744 96.0356C65.8308 96.082 67.1884 89.9493 67.3547 87.8711C67.5394 85.6351 66.2926 84.429 63.9744 84.1414C62.2843 84.364 60.6866 84.8929 60.5757 87.1103C60.4649 89.3277 61.7394 95.98 63.9652 96.0356H63.9744ZM62.94 139.039C65.0735 139.122 66.348 137.833 66.6712 135.717C66.4588 133.639 65.3228 132.442 63.3279 132.424C61.37 132.405 59.9754 133.463 59.92 135.532C59.8738 137.471 60.9082 138.965 62.94 139.048V139.039ZM216.057 142.815C218.052 142.759 219.078 141.479 219.188 139.428C219.068 137.424 217.988 136.348 215.937 136.339C213.887 136.339 212.603 137.61 212.52 139.438C212.428 141.562 213.878 142.88 216.048 142.815H216.057ZM27.7708 150.599C29.9411 150.673 31.2711 149.486 31.2988 147.203C31.3265 145.032 29.9966 144.188 28.0386 144.03C26.1084 144.188 24.6491 144.958 24.6953 147.138C24.7323 149.077 25.7112 150.534 27.7615 150.608L27.7708 150.599ZM99.7348 94.3935C101.767 94.5048 102.81 90.4596 103.133 88.669C103.06 86.2011 101.748 84.8929 99.6332 84.8836C97.7214 84.8836 96.3084 86.099 96.3361 88.1401C96.3545 90.1256 97.7307 94.2728 99.7348 94.3842V94.3935ZM120.644 41.4723C122.648 41.5929 123.867 32.6768 123.941 30.6542C124.015 28.4554 122.778 26.9987 120.635 27.0358C118.779 27.0637 117.495 28.2605 117.532 30.7934C117.606 32.3985 118.705 41.3516 120.653 41.4723H120.644ZM120.229 59.4807C120.266 60.6683 120.894 65.4 121.91 65.4C122.833 65.4 123.507 60.7146 123.498 59.7312C123.489 58.7756 122.888 58.1911 121.919 58.1354C120.94 58.0797 120.376 58.6178 120.219 59.4807H120.229ZM82.6119 34.2448C84.1728 34.2448 85.3364 20.6897 85.318 19.0104C85.2995 17.3868 84.2743 16.3941 82.6304 16.3013C80.968 16.2085 80.0075 17.1177 79.7396 18.5837C79.8043 20.6062 80.8756 34.2355 82.6119 34.2448ZM111.547 58.1354C112.471 58.1354 113.145 54.6654 113.136 53.6727C113.126 52.7171 112.526 52.1326 111.556 52.0769C110.577 52.0212 110.014 52.5594 109.857 53.4222C109.894 54.6098 110.522 58.1261 111.538 58.1354H111.547ZM154.927 71.6904C156.285 71.7739 157.116 66.2072 157.162 64.8248C157.208 63.331 156.377 62.3475 154.918 62.3661C153.652 62.3847 152.784 63.1918 152.812 64.9175C152.867 66.003 153.606 71.6069 154.927 71.6811V71.6904ZM132.678 43.9958C134.036 44.0794 134.867 39.8486 134.913 38.4755C134.959 36.9818 134.128 35.9983 132.669 36.0168C131.404 36.0354 130.536 36.8426 130.563 38.5683C130.619 39.6538 131.358 43.9123 132.678 43.9958ZM50.0194 195.337C50.3426 195.532 50.7675 195.43 50.9707 195.105C51.0538 194.966 51.1369 194.836 51.22 194.697C51.4232 194.363 51.3216 193.918 50.9891 193.713C42.1599 188.277 33.3306 182.849 24.5014 177.412C23.5039 176.8 22.5526 178.266 23.5132 178.934C32.0376 184.899 41.1347 189.956 50.0194 195.337ZM119.573 132.526C119.573 132.173 119.748 131.616 119.545 131.347C116.267 127.042 106.495 116.577 103.115 112.355C102.552 111.65 101.6 111.752 100.806 112.383C99.9934 113.023 99.781 113.821 100.391 114.601C103.531 118.646 113.154 128.87 116.424 132.813C117.31 133.88 118.603 134.27 119.573 132.516V132.526ZM57.1124 152.325C63.642 156.927 70.0145 161.779 76.9413 165.796C78.0588 166.9 79.0654 168.218 80.8387 168.227C86.3801 168.246 91.9307 168.227 97.7306 168.227C97.7306 163.755 97.7306 159.729 97.7306 155.711C97.7306 154.681 97.4351 153.8 96.6501 153.011C91.3027 147.621 86.1215 142.063 80.6355 136.821C78.0403 134.344 76.9413 131.802 76.9597 128.156C77.0244 113.237 76.969 93.2244 76.9043 74.214C76.9043 73.8058 76.5718 73.481 76.1655 73.481H75.0572C74.6508 73.481 74.3183 73.8058 74.3183 74.214C74.2906 93.9296 74.2537 115.055 74.2167 130.716C74.2167 133.379 75.0757 135.374 76.9505 137.202C81.282 141.405 85.161 146.155 89.8434 149.903C95.117 154.115 95.708 159.2 94.4612 165.815H81.3836C74.189 159.719 65.9601 155.09 58.3961 149.504C57.6019 148.92 56.6321 148.103 55.8101 149.263C54.6926 150.822 56.1149 151.61 57.1124 152.315V152.325ZM75.6021 70.4286C76.304 70.4286 76.8766 68.0256 76.8766 67.3112C76.8027 48.774 76.7104 34.254 76.7104 34.254C76.7104 34.254 76.4795 33.9757 75.5836 33.9757C74.2906 33.9757 74.3645 34.3097 74.3645 34.3097C74.3645 34.3097 74.346 48.7183 74.3276 67.3112C74.3276 68.0164 74.9002 70.4286 75.6021 70.4286Z" fill="url(#paint0_linear_333_212)"/>
<defs>
<linearGradient id="paint0_linear_333_212" x1="126.5" y1="0" x2="126.5" y2="304" gradientUnits="userSpaceOnUse">
<stop stop-color="#FFF1E0" stop-opacity="0"/>
<stop offset="0.671875" stop-color="#FFEEDA"/>
</linearGradient>
</defs>
</svg>
