<svg width="41" height="41" viewBox="0 0 41 41" fill="none" xmlns="http://www.w3.org/2000/svg">
<circle opacity="0.5" cx="20.5" cy="20.5" r="20.5" fill="#E9E6EC"/>
<path d="M27.3333 15.0403C26.679 15.5019 25.9544 15.8549 25.1877 16.0858C24.7761 15.6126 24.2292 15.2772 23.6208 15.125C23.0124 14.9728 22.372 15.0111 21.7861 15.2347C21.2002 15.4583 20.6971 15.8565 20.3449 16.3754C19.9926 16.8942 19.8082 17.5087 19.8167 18.1358V18.8192C18.6158 18.8503 17.4259 18.584 16.3528 18.0439C15.2798 17.5038 14.357 16.7067 13.6667 15.7237C13.6667 15.7237 10.9333 21.8737 17.0833 24.607C15.676 25.5623 13.9995 26.0413 12.3 25.9737C18.45 29.3903 25.9667 25.9737 25.9667 18.1153C25.966 17.925 25.9477 17.7351 25.912 17.5482C26.6094 16.8604 27.1016 15.992 27.3333 15.0403Z" fill="#4D3466"/>
</svg>
