<svg width="198" height="31" viewBox="0 0 198 31" fill="none" xmlns="http://www.w3.org/2000/svg">
<path d="M10.0898 8.31H16.3698V16.28H10.0898V8.31Z" fill="#F2CB05"/>
<path d="M0 8.31H6.28V16.28H0V8.31Z" fill="#210140"/>
<path d="M28.4785 11.0513C29.7887 11.0513 30.8594 11.4219 31.6904 12.1631C32.5215 12.9043 32.937 14.091 32.937 15.7231V24H28.5459V17.0596C28.5459 16.2135 28.4224 15.5771 28.1753 15.1504C27.9357 14.7161 27.5464 14.499 27.0073 14.499C26.1763 14.499 25.6185 14.8397 25.334 15.521C25.0495 16.1948 24.9072 17.1644 24.9072 18.4297V24H20.5161V11.2759H23.8291L24.4243 12.9604H24.5928C24.8623 12.5562 25.1842 12.2118 25.5586 11.9272C25.9329 11.6427 26.3634 11.4256 26.8501 11.2759C27.3368 11.1261 27.8796 11.0513 28.4785 11.0513ZM43.5592 24.2246C42.2715 24.2246 41.1522 23.9963 40.2013 23.5396C39.2505 23.0754 38.513 22.3641 37.9889 21.4058C37.4723 20.4399 37.214 19.2046 37.214 17.6997C37.214 16.1574 37.5023 14.8958 38.0788 13.915C38.6628 12.9342 39.4601 12.2118 40.4709 11.7476C41.4816 11.2834 42.6271 11.0513 43.9074 11.0513C44.686 11.0513 45.4235 11.1374 46.1198 11.3096C46.8236 11.4818 47.4749 11.7176 48.0739 12.0171L46.7824 15.2627C46.2583 15.0306 45.7679 14.8472 45.3112 14.7124C44.862 14.5701 44.394 14.499 43.9074 14.499C43.4657 14.499 43.0763 14.6151 42.7394 14.8472C42.4025 15.0793 42.1405 15.4312 41.9533 15.9028C41.7661 16.367 41.6725 16.9585 41.6725 17.6772C41.6725 18.411 41.7661 19.0024 41.9533 19.4517C42.1479 19.9009 42.4137 20.2266 42.7506 20.4287C43.095 20.6309 43.4881 20.7319 43.9298 20.7319C44.5662 20.7319 45.1989 20.6346 45.8278 20.4399C46.4642 20.2378 47.0669 19.9608 47.6359 19.6089V23.1016C47.1118 23.446 46.5203 23.7192 45.8615 23.9214C45.2026 24.1235 44.4352 24.2246 43.5592 24.2246ZM64.1541 17.6099C64.1541 18.673 64.0081 19.6164 63.7161 20.4399C63.4241 21.2635 63.0011 21.9561 62.4471 22.5176C61.8931 23.0791 61.223 23.5059 60.4368 23.7979C59.6507 24.0824 58.7635 24.2246 57.7752 24.2246C56.8543 24.2246 56.0083 24.0824 55.2371 23.7979C54.4735 23.5059 53.8071 23.0791 53.2381 22.5176C52.6691 21.9561 52.2274 21.2635 51.9129 20.4399C51.6059 19.6164 51.4525 18.673 51.4525 17.6099C51.4525 16.2023 51.707 15.0119 52.2161 14.0386C52.7327 13.0653 53.4665 12.3241 54.4173 11.8149C55.3756 11.3058 56.5174 11.0513 57.8426 11.0513C59.063 11.0513 60.1486 11.3058 61.0994 11.8149C62.0503 12.3241 62.7952 13.0653 63.3343 14.0386C63.8808 15.0119 64.1541 16.2023 64.1541 17.6099ZM55.911 17.6099C55.911 18.3361 55.9746 18.95 56.1019 19.4517C56.2292 19.9458 56.4313 20.3239 56.7083 20.5859C56.9928 20.8405 57.3634 20.9678 57.8201 20.9678C58.2768 20.9678 58.64 20.8405 58.9095 20.5859C59.179 20.3239 59.3737 19.9458 59.4935 19.4517C59.6208 18.95 59.6844 18.3361 59.6844 17.6099C59.6844 16.8836 59.6208 16.2772 59.4935 15.7905C59.3737 15.3039 59.1753 14.937 58.8983 14.6899C58.6287 14.4429 58.2619 14.3193 57.7977 14.3193C57.1313 14.3193 56.6484 14.5964 56.3489 15.1504C56.057 15.7044 55.911 16.5243 55.911 17.6099ZM76.4721 11.0513C77.7824 11.0513 78.853 11.4219 79.6841 12.1631C80.5151 12.9043 80.9306 14.091 80.9306 15.7231V24H76.5395V17.0596C76.5395 16.2135 76.416 15.5771 76.1689 15.1504C75.9293 14.7161 75.54 14.499 75.001 14.499C74.1699 14.499 73.6121 14.8397 73.3276 15.521C73.0431 16.1948 72.9009 17.1644 72.9009 18.4297V24H68.5097V11.2759H71.8227L72.4179 12.9604H72.5864C72.8559 12.5562 73.1779 12.2118 73.5522 11.9272C73.9266 11.6427 74.3571 11.4256 74.8437 11.2759C75.3304 11.1261 75.8732 11.0513 76.4721 11.0513ZM95.214 20.0918C95.214 20.9004 95.0343 21.6154 94.6749 22.2368C94.3156 22.8582 93.7391 23.3449 92.9454 23.6968C92.1593 24.0487 91.1224 24.2246 89.8346 24.2246C88.9287 24.2246 88.1163 24.1759 87.3976 24.0786C86.6863 23.9813 85.9638 23.7941 85.2301 23.5171V20.002C86.0312 20.3688 86.8473 20.6346 87.6784 20.7993C88.5094 20.9565 89.1645 21.0352 89.6437 21.0352C90.1378 21.0352 90.4972 20.9827 90.7218 20.8779C90.9539 20.7656 91.07 20.6009 91.07 20.3838C91.07 20.1966 90.9913 20.0394 90.8341 19.9121C90.6844 19.7773 90.4111 19.6239 90.0143 19.4517C89.625 19.2795 89.0747 19.0474 88.3634 18.7554C87.6596 18.4634 87.0719 18.1452 86.6002 17.8008C86.136 17.4564 85.7879 17.0446 85.5558 16.5654C85.3237 16.0863 85.2077 15.4985 85.2077 14.8022C85.2077 13.5594 85.6868 12.6235 86.6452 11.9946C87.6035 11.3657 88.8725 11.0513 90.4523 11.0513C91.2908 11.0513 92.0807 11.1449 92.8219 11.332C93.5631 11.5117 94.3305 11.7775 95.1242 12.1294L93.9225 14.9595C93.2936 14.675 92.6572 14.4466 92.0133 14.2744C91.3694 14.1022 90.8566 14.0161 90.4747 14.0161C90.1303 14.0161 89.8646 14.061 89.6774 14.1509C89.4902 14.2407 89.3966 14.3717 89.3966 14.5439C89.3966 14.7012 89.4603 14.8397 89.5875 14.9595C89.7223 15.0793 89.9731 15.2178 90.34 15.375C90.7068 15.5322 91.2422 15.7531 91.9459 16.0376C92.6871 16.3371 93.2973 16.659 93.7765 17.0034C94.2632 17.3403 94.6225 17.7521 94.8546 18.2388C95.0942 18.7254 95.214 19.3431 95.214 20.0918ZM105.735 20.7544C106.132 20.7544 106.495 20.7132 106.825 20.6309C107.154 20.5485 107.498 20.4437 107.858 20.3164V23.5171C107.379 23.7267 106.869 23.8952 106.33 24.0225C105.799 24.1572 105.117 24.2246 104.286 24.2246C103.463 24.2246 102.737 24.0973 102.108 23.8428C101.479 23.5807 100.988 23.1315 100.637 22.4951C100.292 21.8512 100.12 20.9565 100.12 19.811V14.5664H98.5813V12.7808L100.535 11.3994L101.67 8.72656H104.545V11.2759H107.667V14.5664H104.545V19.519C104.545 19.9308 104.65 20.2415 104.859 20.4512C105.069 20.6533 105.361 20.7544 105.735 20.7544ZM119.603 11.0513C119.843 11.0513 120.093 11.07 120.355 11.1074C120.617 11.1374 120.812 11.1636 120.939 11.186L120.546 15.3301C120.404 15.2926 120.221 15.2627 119.996 15.2402C119.771 15.2103 119.457 15.1953 119.053 15.1953C118.776 15.1953 118.48 15.2215 118.165 15.2739C117.851 15.3263 117.552 15.4386 117.267 15.6108C116.99 15.7756 116.762 16.0301 116.582 16.3745C116.402 16.7114 116.312 17.1681 116.312 17.7446V24H111.921V11.2759H115.189L115.874 13.3086H116.088C116.32 12.8893 116.616 12.5112 116.975 12.1743C117.342 11.8299 117.75 11.5566 118.199 11.3545C118.656 11.1523 119.124 11.0513 119.603 11.0513ZM130.776 11.0513C132.385 11.0513 133.643 11.4518 134.549 12.2529C135.455 13.0465 135.908 14.1808 135.908 15.6558V24H132.864L132.022 22.3154H131.932C131.573 22.7646 131.202 23.1315 130.82 23.416C130.446 23.693 130.016 23.8952 129.529 24.0225C129.042 24.1572 128.447 24.2246 127.743 24.2246C127.01 24.2246 126.351 24.0749 125.767 23.7754C125.183 23.4759 124.722 23.0229 124.385 22.4165C124.048 21.8101 123.88 21.0426 123.88 20.1143C123.88 18.7516 124.352 17.7409 125.295 17.082C126.238 16.4232 127.605 16.0526 129.394 15.9702L131.517 15.9028V15.7231C131.517 15.1541 131.374 14.7498 131.09 14.5103C130.813 14.2707 130.439 14.1509 129.967 14.1509C129.465 14.1509 128.904 14.2407 128.282 14.4204C127.668 14.5926 127.051 14.8172 126.429 15.0942L125.16 12.1968C125.894 11.8224 126.725 11.5379 127.653 11.3433C128.582 11.1486 129.623 11.0513 130.776 11.0513ZM131.539 18.3174L130.528 18.3623C129.72 18.3923 129.151 18.5345 128.821 18.7891C128.499 19.0361 128.338 19.3918 128.338 19.856C128.338 20.2902 128.455 20.6121 128.687 20.8218C128.919 21.0239 129.226 21.125 129.608 21.125C130.139 21.125 130.592 20.9565 130.966 20.6196C131.348 20.2827 131.539 19.8447 131.539 19.3057V18.3174ZM145.149 11.2759V24H140.758V11.2759H145.149ZM142.97 6.15479C143.599 6.15479 144.145 6.28581 144.61 6.54785C145.081 6.8099 145.317 7.33024 145.317 8.10889C145.317 8.86507 145.081 9.37793 144.61 9.64746C144.145 9.90951 143.599 10.0405 142.97 10.0405C142.326 10.0405 141.776 9.90951 141.319 9.64746C140.87 9.37793 140.645 8.86507 140.645 8.10889C140.645 7.33024 140.87 6.8099 141.319 6.54785C141.776 6.28581 142.326 6.15479 142.97 6.15479ZM158.017 11.0513C159.327 11.0513 160.398 11.4219 161.229 12.1631C162.06 12.9043 162.476 14.091 162.476 15.7231V24H158.084V17.0596C158.084 16.2135 157.961 15.5771 157.714 15.1504C157.474 14.7161 157.085 14.499 156.546 14.499C155.715 14.499 155.157 14.8397 154.872 15.521C154.588 16.1948 154.446 17.1644 154.446 18.4297V24H150.055V11.2759H153.368L153.963 12.9604H154.131C154.401 12.5562 154.723 12.2118 155.097 11.9272C155.471 11.6427 155.902 11.4256 156.389 11.2759C156.875 11.1261 157.418 11.0513 158.017 11.0513ZM177.309 24H167.561V7.58105H177.309V11.1411H171.997V13.7241H176.916V17.2842H171.997V20.3838H177.309V24ZM195.961 15.4424C195.961 17.3516 195.606 18.9388 194.894 20.2041C194.183 21.4694 193.18 22.4202 191.885 23.0566C190.597 23.6855 189.081 24 187.336 24H182.024V7.58105H187.707C189.474 7.58105 190.971 7.88428 192.199 8.49072C193.427 9.09717 194.359 9.98438 194.995 11.1523C195.639 12.3203 195.961 13.7503 195.961 15.4424ZM191.357 15.5996C191.357 14.6038 191.222 13.7803 190.952 13.1289C190.69 12.4701 190.294 11.9797 189.762 11.6577C189.23 11.3283 188.56 11.1636 187.752 11.1636H186.46V20.3613H187.449C188.796 20.3613 189.784 19.972 190.413 19.1934C191.042 18.4072 191.357 17.2093 191.357 15.5996Z" fill="#120123"/>
<path d="M16.37 16.28C16.37 20.8 12.71 24.47 8.18 24.47C3.65 24.47 0 20.8 0 16.28H16.37Z" fill="#D9042B"/>
</svg>
