<svg width="95" height="40" viewBox="0 0 95 40" fill="none" xmlns="http://www.w3.org/2000/svg">
<rect x="0.5" y="0.5" width="94" height="39" rx="7.5" fill="white"/>
<path d="M22.3665 15.8182L25.0163 23.8324H25.1207L27.7656 15.8182H29.794L26.2045 26H23.9276L20.343 15.8182H22.3665ZM31.0556 26V18.3636H32.8553V26H31.0556ZM31.9604 17.2798C31.6754 17.2798 31.4301 17.1854 31.2246 16.9964C31.0191 16.8042 30.9164 16.5739 30.9164 16.3054C30.9164 16.0336 31.0191 15.8033 31.2246 15.6143C31.4301 15.4221 31.6754 15.326 31.9604 15.326C32.2488 15.326 32.494 15.4221 32.6962 15.6143C32.9017 15.8033 33.0044 16.0336 33.0044 16.3054C33.0044 16.5739 32.9017 16.8042 32.6962 16.9964C32.494 17.1854 32.2488 17.2798 31.9604 17.2798ZM38.0866 26.1491C37.321 26.1491 36.6598 25.9901 36.103 25.6719C35.5495 25.3504 35.1236 24.8963 34.8253 24.3097C34.527 23.7197 34.3778 23.0253 34.3778 22.2266C34.3778 21.4411 34.527 20.7517 34.8253 20.1584C35.1269 19.5618 35.5478 19.0978 36.0881 18.7663C36.6283 18.4316 37.263 18.2642 37.9922 18.2642C38.4628 18.2642 38.907 18.3404 39.3246 18.4929C39.7455 18.642 40.1167 18.8741 40.4382 19.1889C40.763 19.5038 41.0182 19.9048 41.2038 20.392C41.3894 20.8759 41.4822 21.4527 41.4822 22.1222V22.674H35.223V21.4609H39.7571C39.7538 21.1162 39.6792 20.8097 39.5334 20.5412C39.3875 20.2694 39.1837 20.0556 38.9219 19.8999C38.6634 19.7441 38.3617 19.6662 38.017 19.6662C37.6491 19.6662 37.326 19.7557 37.0476 19.9347C36.7692 20.1103 36.5521 20.3423 36.3963 20.6307C36.2438 20.9157 36.166 21.2289 36.1626 21.5703V22.6293C36.1626 23.0734 36.2438 23.4545 36.4062 23.7727C36.5687 24.0876 36.7957 24.3295 37.0874 24.4986C37.379 24.6643 37.7204 24.7472 38.1115 24.7472C38.3733 24.7472 38.6103 24.7107 38.8224 24.6378C39.0346 24.5616 39.2185 24.4505 39.3743 24.3047C39.5301 24.1589 39.6477 23.9782 39.7273 23.7628L41.4077 23.9517C41.3016 24.3958 41.0994 24.7836 40.8011 25.1151C40.5062 25.4432 40.1283 25.6984 39.6676 25.8807C39.2069 26.0597 38.6799 26.1491 38.0866 26.1491ZM44.5398 26L42.3821 18.3636H44.2166L45.5589 23.733H45.6286L47.0007 18.3636H48.8153L50.1875 23.7031H50.2621L51.5845 18.3636H53.424L51.2614 26H49.3871L47.9553 20.8395H47.8509L46.419 26H44.5398ZM59.5403 26H57.5716L61.1561 15.8182H63.4331L67.0225 26H65.0538L62.3343 17.9062H62.2548L59.5403 26ZM59.6049 22.0078H64.9743V23.4893H59.6049V22.0078ZM70.0838 15.8182V26H68.2841V15.8182H70.0838ZM73.7342 15.8182V26H71.9345V15.8182H73.7342Z" fill="#F54737"/>
<rect x="0.5" y="0.5" width="94" height="39" rx="7.5" stroke="#F54737"/>
</svg>
